STARTFONT 2.1
FONT -FontForge-Nunito-Light-R-Normal--75-720-75-75-P-418-ISO10646-1
SIZE 72 75 75
FONTBOUNDINGBOX 106 111 -11 -21
COMMENT "Generated by fontforge, http://fontforge.sourceforge.net"
COMMENT "Digitized data Copyright (c) 2011-2013, vernon adams."
STARTPROPERTIES 39
FOUNDRY "FontForge"
FAMILY_NAME "Nunito"
WEIGHT_NAME "Light"
SLANT "R"
SETWIDTH_NAME "Normal"
ADD_STYLE_NAME ""
PIXEL_SIZE 75
POINT_SIZE 720
RESOLUTION_X 75
RESOLUTION_Y 75
SPACING "P"
AVERAGE_WIDTH 418
CHARSET_REGISTRY "ISO10646"
CHARSET_ENCODING "1"
FONTNAME_REGISTRY ""
CHARSET_COLLECTIONS "ISO8859-2 ISO8859-9 ISO8859-4 ISO10646-1"
FONT_NAME "Nunito-Light"
FACE_NAME "Nunito Light"
COPYRIGHT "Digitized data Copyright (c) 2011-2013, vernon adams."
FONT_VERSION "2.0; ttfautohint (v1.00rc1.6-4cba) -l 8 -r 50 -G 200 -x 0 -D latn -f none -w G -W"
FONT_ASCENT 60
FONT_DESCENT 15
UNDERLINE_POSITION 0
UNDERLINE_THICKNESS 0
X_HEIGHT 35
CAP_HEIGHT 51
RAW_ASCENT 799
RAW_DESCENT 200
NORM_SPACE 21
RELATIVE_WEIGHT 30
RELATIVE_SETWIDTH 50
SUPERSCRIPT_X 0
SUPERSCRIPT_Y 35
SUPERSCRIPT_SIZE 52
SUBSCRIPT_X 0
SUBSCRIPT_Y 10
SUBSCRIPT_SIZE 52
AVG_LOWERCASE_WIDTH 381
AVG_UPPERCASE_WIDTH 501
ENDPROPERTIES
CHARS 495
STARTCHAR space
ENCODING 32
SWIDTH 286 0
DWIDTH 21 0
BBX 1 1 0 0
BITMAP
00
ENDCHAR
STARTCHAR exclam
ENCODING 33
SWIDTH 388 0
DWIDTH 29 0
BBX 7 55 12 0
BITMAP
78
7C
FC
FC
FC
FC
FC
FC
FC
FC
FC
7C
7C
7C
7C
7C
7C
7C
7C
7C
7C
78
78
78
78
78
78
78
78
78
78
78
78
78
38
38
38
38
38
38
30
00
00
00
00
00
00
00
78
FC
FE
FE
FE
FC
78
ENDCHAR
STARTCHAR quotedbl
ENCODING 34
SWIDTH 297 0
DWIDTH 22 0
BBX 16 18 3 37
BITMAP
381E
7C3F
FC3F
FC3F
7C3E
7C3E
7C3E
7C3E
7C3E
7C3E
7C3E
7C1E
781E
781E
781E
781E
381E
380C
ENDCHAR
STARTCHAR numbersign
ENCODING 35
SWIDTH 565 0
DWIDTH 42 0
BBX 38 55 2 -2
BITMAP
0003C00700
0007C00F80
0007C00F80
0007C00F80
0007C00F80
0007C00F80
0007C01F00
000F801F00
000F801F00
000F801F00
000F801F00
000F801F00
000F801F00
000F803E00
001F003E00
001F003E00
001F003E00
1FFFFFFFF8
1FFFFFFFFC
3FFFFFFFFC
1FFFFFFFFC
1FFFFFFFF8
003E007C00
003E007C00
003E007C00
003E007C00
003E007C00
003E00F800
007C00F800
007C00F800
007C00F800
007C00F800
7FFFFFFFE0
7FFFFFFFF0
FFFFFFFFF0
7FFFFFFFF0
7FFFFFFFE0
00F801F000
00F801F000
00F801F000
00F801E000
00F803E000
01F003E000
01F003E000
01F003E000
01F003E000
01F003E000
01F003C000
01E007C000
03E007C000
03E007C000
03E007C000
03E007C000
03E0078000
03C0078000
ENDCHAR
STARTCHAR dollar
ENCODING 36
SWIDTH 630 0
DWIDTH 47 0
BBX 28 57 10 -2
BITMAP
00070000
000F0000
000F8000
000F8000
000F8000
000F8000
000F8000
000F8000
000F8000
000F8000
01FFFC00
0FFFFF00
1FFFFFC0
3FC01FE0
7E0003E0
7C0000C0
F8000000
F8000000
F8000000
F8000000
F8000000
F8000000
FC000000
7F000000
7FF00000
3FFF0000
1FFFF000
07FFFE00
00FFFF00
0007FFC0
00007FE0
00000FE0
000003F0
000001F0
000001F0
000000F0
000000F0
000000F0
000000F0
000001F0
400001F0
F80003E0
FE0007E0
7FC01FC0
3FFFFF80
0FFFFE00
01FFF800
001F8000
000F8000
000F8000
000F8000
000F8000
000F8000
000F8000
000F8000
000F8000
00070000
ENDCHAR
STARTCHAR percent
ENCODING 37
SWIDTH 1003 0
DWIDTH 75 0
BBX 59 54 8 -2
BITMAP
0000000000300000
007F000000780000
01FFC00000F80000
07FFF00000F00000
0FFFF80001F00000
1F80FC0001E00000
1F007E0003E00000
3E003E0007C00000
3C001F0007C00000
7C001F000F800000
7C001F000F000000
78000F001F000000
78000F801E000000
F8000F803E000000
F8000F807C000000
F8000F8078000000
F8000F80F8000000
78000F00F0000000
78000F01F0000000
7C001F01E0000000
7C001F03E0000000
3E001E07C0000000
3E003E0780000000
1F007C0F80000000
1FC1FC0F00000000
0FFFF81F00078000
07FFF03E007FF000
01FFC03E00FFFC00
003E007C01FFFE00
0000007803F07F00
000000F807C01F00
000000F00F800F80
000001F00F8007C0
000003E01F0007C0
000003C01F0007C0
000007C01F0003C0
000007801E0003E0
00000F801E0003E0
00000F001E0003E0
00001F001E0003E0
00003E001E0003E0
00003C001E0003E0
00007C001F0003C0
000078001F0003C0
0000F8001F0007C0
0000F0000F8007C0
0001F0000F800F80
0003E00007C01F80
0003C00007E03F00
0007C00003FFFE00
0007800001FFFC00
000F8000007FF800
000F0000001FC000
000F000000000000
ENDCHAR
STARTCHAR ampersand
ENCODING 38
SWIDTH 735 0
DWIDTH 55 0
BBX 47 56 4 -1
BITMAP
0001FF800000
000FFFE00000
003FFFF80000
007FFFFC0000
00FFFFFC0000
01FF03FE0000
01FC00FE0000
03F8007E0000
03F8007F0000
03F0007F0000
03F0007F0000
03F0007E0000
03F8007E0000
01F8007E0000
01FC00FE0000
01FC01FC0000
00FE03F80000
007F07F80000
007F0FF00000
003F9FE00000
001FFFC00000
000FFF80003C
0007FF00003C
0003FC00007E
000FFC00007E
003FFE00007E
007FFF00007C
01FF3F80007C
03FE3FC0007C
07F81FE0007C
0FF00FF000FC
1FC007F800F8
3F8003FC00F8
3F0001FE01F8
7F0000FF01F8
7E00007F81F0
FE00003FC3F0
FC00001FE3F0
FC00000FE3E0
FC000007F7E0
FC000003FFC0
FC000001FFC0
FE000000FF80
FE0000007F80
FE0000003F80
7F000000FFC0
7F800001FFE0
3FC00003FFF0
3FE00007F7F8
1FF8001FE3FC
0FFF00FFC1FE
07FFFFFF80FE
03FFFFFF007E
00FFFFFC003E
003FFFF0001C
0003FF800000
ENDCHAR
STARTCHAR quotesingle
ENCODING 39
SWIDTH 282 0
DWIDTH 21 0
BBX 5 18 8 37
BITMAP
70
F8
F8
F8
F8
F8
F8
F8
F8
F8
F8
F8
F8
F8
78
78
70
70
ENDCHAR
STARTCHAR parenleft
ENCODING 40
SWIDTH 284 0
DWIDTH 21 0
BBX 12 62 6 -8
BITMAP
00E0
01E0
01F0
03E0
03E0
03C0
07C0
07C0
0780
0F80
0F80
1F00
1F00
1F00
3F00
3E00
3E00
3E00
7E00
7E00
7C00
7C00
FC00
FC00
FC00
FC00
FC00
FC00
FC00
FC00
FC00
FC00
FC00
FC00
FC00
FC00
FC00
FC00
FC00
FC00
7C00
7C00
7E00
7E00
3E00
3E00
3E00
3F00
1F00
1F00
1F00
0F80
0F80
0F80
07C0
07C0
03C0
03E0
03E0
01E0
01E0
00E0
ENDCHAR
STARTCHAR parenright
ENCODING 41
SWIDTH 284 0
DWIDTH 21 0
BBX 12 62 4 -8
BITMAP
6000
F000
F000
F800
7800
7C00
7C00
3C00
3E00
3E00
1F00
1F00
1F00
1F80
0F80
0F80
0FC0
0FC0
07C0
07C0
07E0
07E0
07E0
07E0
07E0
03E0
03E0
03F0
03F0
03F0
03F0
03F0
03F0
03F0
03F0
03E0
03E0
07E0
07E0
07E0
07E0
07E0
07C0
07C0
0FC0
0FC0
0F80
0F80
1F80
1F00
1F00
1F00
3E00
3E00
3C00
7C00
7C00
7800
F800
F000
F000
6000
ENDCHAR
STARTCHAR asterisk
ENCODING 42
SWIDTH 545 0
DWIDTH 41 0
BBX 31 26 5 26
BITMAP
00C00600
01E00F00
01F01F00
01F01F00
00F83E00
00F83E00
007C7C00
007C7800
003EF800
001EF000
001FF000
3FFFFFF8
FFFFFFFC
FFFFFFFE
7FFFFFFC
001FE000
001FF000
003EF800
003EF800
007C7C00
00F87E00
00F83E00
01F01F00
01F01F00
01E00F00
00C00E00
ENDCHAR
STARTCHAR plus
ENCODING 43
SWIDTH 656 0
DWIDTH 49 0
BBX 37 36 6 0
BITMAP
0000700000
0000F80000
0000F80000
0000F80000
0000F80000
0000F80000
0000F80000
0000F80000
0000F80000
0000F80000
0000F80000
0000F80000
0000F80000
0000F80000
0000F80000
0000F80000
7FFFFFFFF0
FFFFFFFFF8
FFFFFFFFF8
FFFFFFFFF8
7FFFFFFFF0
0000F80000
0000F80000
0000F80000
0000F80000
0000F80000
0000F80000
0000F80000
0000F80000
0000F80000
0000F80000
0000F80000
0000F80000
0000F80000
0000F80000
0000700000
ENDCHAR
STARTCHAR comma
ENCODING 44
SWIDTH 282 0
DWIDTH 21 0
BBX 10 21 5 -12
BITMAP
0380
1FC0
1FC0
1FC0
1F80
3F80
3F80
3F00
3F00
3F00
3E00
7E00
7E00
7C00
7C00
7C00
F800
F800
F000
F000
E000
ENDCHAR
STARTCHAR hyphen
ENCODING 45
SWIDTH 343 0
DWIDTH 26 0
BBX 22 4 2 17
BITMAP
7FFFF8
FFFFFC
FFFFFC
FFFFFC
ENDCHAR
STARTCHAR period
ENCODING 46
SWIDTH 282 0
DWIDTH 21 0
BBX 7 7 7 0
BITMAP
3C
FE
FE
FE
FE
FE
3C
ENDCHAR
STARTCHAR slash
ENCODING 47
SWIDTH 358 0
DWIDTH 27 0
BBX 23 58 2 -6
BITMAP
00001C
00003E
00003E
00007E
00007C
00007C
0000FC
0000F8
0000F8
0001F8
0001F0
0001F0
0003F0
0003E0
0003E0
0007E0
0007C0
0007C0
000FC0
000F80
000F80
001F80
001F00
001F00
003F00
003E00
003E00
007E00
007C00
007C00
00FC00
00F800
00F800
01F800
01F000
01F000
03F000
03E000
03E000
07E000
07C000
07C000
0FC000
0F8000
0F8000
1F8000
1F0000
1F0000
3F0000
3E0000
3E0000
7E0000
7C0000
7C0000
FC0000
F80000
F80000
F00000
ENDCHAR
STARTCHAR zero
ENCODING 48
SWIDTH 565 0
DWIDTH 42 0
BBX 36 53 3 -1
BITMAP
0003FE0000
001FFFC000
007FFFE000
00FFFFF800
03FFFFFC00
03FE07FE00
07F800FE00
0FF0007F00
0FE0003F80
1FC0003F80
1F80001FC0
3F80001FC0
3F80000FC0
3F00000FC0
3F000007E0
7F000007E0
7E000007E0
7E000007E0
7E000007E0
7E000007F0
7E000007F0
7E000003F0
7E000003F0
7E000003F0
FE000003F0
FE000003F0
FE000003F0
FE000003F0
FE000003F0
FE000003F0
7E000003F0
7E000003F0
7E000007F0
7E000007F0
7E000007E0
7E000007E0
7E000007E0
7F000007E0
3F000007E0
3F00000FC0
3F80000FC0
3F80001FC0
1F80001FC0
1FC0003F80
0FE0003F80
0FF0007F00
07F800FE00
03FE07FE00
03FFFFFC00
01FFFFF800
007FFFF000
001FFFC000
0003FE0000
ENDCHAR
STARTCHAR one
ENCODING 49
SWIDTH 561 0
DWIDTH 42 0
BBX 18 52 9 0
BITMAP
000700
001F80
003FC0
00FFC0
01FFC0
07FFC0
0FFFC0
3FCFC0
7F8FC0
FE0FC0
FC0FC0
700FC0
000FC0
000FC0
000FC0
000FC0
000FC0
000FC0
000FC0
000FC0
000FC0
000FC0
000FC0
000FC0
000FC0
000FC0
000FC0
000FC0
000FC0
000FC0
000FC0
000FC0
000FC0
000FC0
000FC0
000FC0
000FC0
000FC0
000FC0
000FC0
000FC0
000FC0
000FC0
000FC0
000FC0
000FC0
000FC0
000FC0
000FC0
000FC0
000F80
000700
ENDCHAR
STARTCHAR two
ENCODING 50
SWIDTH 560 0
DWIDTH 42 0
BBX 32 52 5 0
BITMAP
000FF800
00FFFF00
03FFFFC0
0FFFFFE0
3FFFFFF0
7FF00FF8
7F0003FC
7C0000FE
3800007E
0000007F
0000003F
0000003F
0000001F
0000001F
0000001F
0000001F
0000001F
0000001F
0000003F
0000003F
0000003E
0000007E
000000FC
000000FC
000001F8
000003F0
000007E0
00000FC0
00001F80
00003F00
00007E00
0000FC00
0001F800
0003F000
0007E000
000FC000
001F8000
003F0000
007E0000
00FC0000
01F80000
03F00000
07E00000
0FC00000
1F800000
3F000000
7E000000
FFFFFFFE
FFFFFFFF
FFFFFFFF
7FFFFFFF
3FFFFFFE
ENDCHAR
STARTCHAR three
ENCODING 51
SWIDTH 561 0
DWIDTH 42 0
BBX 31 53 6 -1
BITMAP
007FE000
07FFFC00
3FFFFF00
FFFFFF80
FFFFFFC0
FF807FE0
F8000FF0
600007F8
000003F8
000001F8
000001FC
000000FC
000000FC
000000FC
000000FC
000000FC
000000FC
000000FC
000001F8
000001F8
000003F0
000007F0
00001FE0
00007FC0
007FFF00
00FFFC00
00FFFE00
007FFF80
00007FE0
00000FF0
000007F8
000001F8
000001FC
000000FC
0000007E
0000007E
0000007E
0000007E
0000003E
0000003E
0000007E
0000007E
0000007E
000000FE
000001FC
200003FC
7C0007F8
7F803FF0
7FFFFFE0
7FFFFFC0
1FFFFF80
07FFFC00
007FE000
ENDCHAR
STARTCHAR four
ENCODING 52
SWIDTH 561 0
DWIDTH 42 0
BBX 38 52 3 0
BITMAP
000000F000
000003FC00
000003FC00
000007FC00
00000FFC00
00000FFC00
00001FFC00
00003FFC00
00003EFC00
00007CFC00
0000FCFC00
0000F8FC00
0001F8FC00
0003F0FC00
0003E0FC00
0007E0FC00
000FC0FC00
000F80FC00
001F80FC00
003F00FC00
003E00FC00
007E00FC00
00FC00FC00
00F800FC00
01F800FC00
03F000FC00
03F000FC00
07E000FC00
0FC000FC00
0FC000FC00
1F8000FC00
3F0000FC00
3F0000FC00
7E0000FC00
7C0000FC00
FC0000FC00
FFFFFFFFFC
FFFFFFFFFC
FFFFFFFFFC
7FFFFFFFFC
000000FC00
000000FC00
000000FC00
000000FC00
000000FC00
000000FC00
000000FC00
000000FC00
000000FC00
000000FC00
0000007C00
0000003800
ENDCHAR
STARTCHAR five
ENCODING 53
SWIDTH 561 0
DWIDTH 42 0
BBX 33 53 6 -1
BITMAP
3FFFFFF800
7FFFFFFC00
7FFFFFFC00
7FFFFFF800
7C00000000
7C00000000
7C00000000
7C00000000
7C00000000
7C00000000
7C00000000
7C00000000
7C00000000
7C00000000
7C00000000
7C00000000
7C00000000
7C00000000
7C00000000
7C07FC0000
7C3FFF8000
7C7FFFC000
7DFFFFF000
7FFFFFF800
7FF80FFC00
7FE003FC00
7F8000FE00
7E00007E00
7C00003F00
3C00003F00
0000001F80
0000001F80
0000001F80
0000001F80
0000000F80
0000000F80
0000000F80
0000000F80
0000001F80
0000001F80
0000001F80
0000001F80
0000003F00
7000003F00
F800007E00
FE0000FE00
FF8001FC00
3FF00FF800
1FFFFFF000
0FFFFFE000
03FFFFC000
00FFFF0000
001FF80000
ENDCHAR
STARTCHAR six
ENCODING 54
SWIDTH 561 0
DWIDTH 42 0
BBX 36 53 3 -1
BITMAP
0000FFC000
0007FFF800
001FFFFE00
007FFFFF80
00FFFFFF80
01FF807F80
03FC000F80
07F0000000
07E0000000
0FC0000000
0FC0000000
1F80000000
1F80000000
1F00000000
3F00000000
3F00000000
3E00000000
7E00000000
7E00000000
7E007C0000
7E07FFE000
7E0FFFF000
7E3FFFFC00
7E7E01FE00
7EF8007F00
7FE0003F80
7FC0001F80
FF80000FC0
FF800007C0
FF000007E0
FF000007E0
FF000003E0
7E000003F0
7E000003F0
7E000003F0
7E000003F0
7E000003F0
7E000003F0
7E000003F0
3F000003E0
3F000007E0
3F000007E0
1F80000FE0
1F80000FC0
1FC0001FC0
0FE0003F80
07F8007F80
07FE03FF00
03FFFFFE00
00FFFFFC00
007FFFF000
001FFFC000
0003FE0000
ENDCHAR
STARTCHAR seven
ENCODING 55
SWIDTH 561 0
DWIDTH 42 0
BBX 34 52 3 0
BITMAP
7FFFFFFF80
7FFFFFFFC0
FFFFFFFFC0
FFFFFFFFC0
7FFFFFFFC0
0000000FC0
0000001F80
0000001F80
0000003F00
0000003F00
0000003F00
0000007E00
0000007E00
000000FC00
000000FC00
000001F800
000001F800
000001F800
000003F000
000003F000
000007E000
000007E000
00000FC000
00000FC000
00000FC000
00001F8000
00001F8000
00003F0000
00003F0000
00007E0000
00007E0000
00007E0000
0000FC0000
0000FC0000
0001F80000
0001F80000
0003F00000
0003F00000
0007F00000
0007E00000
0007E00000
000FC00000
000FC00000
001F800000
001F800000
003F800000
003F000000
003F000000
007E000000
007E000000
007E000000
003C000000
ENDCHAR
STARTCHAR eight
ENCODING 56
SWIDTH 561 0
DWIDTH 42 0
BBX 34 53 4 -1
BITMAP
000FFC0000
007FFFC000
01FFFFE000
07FFFFF800
0FF003FC00
1FC000FE00
3F80007F00
3F00003F00
7E00001F80
7E00001F80
7C00000F80
7C00000F80
7C00000FC0
7C00000FC0
7C00000F80
7C00000F80
7E00001F80
7E00001F80
3F00003F80
3F80007F00
1FC000FE00
0FF807FE00
07FFFFF800
03FFFFF000
00FFFFC000
007FFF8000
03FFFFE000
07FFFFF800
0FF807FC00
1FE001FE00
3F80007F00
3F00003F80
7E00001F80
7E00001FC0
FC00000FC0
FC00000FC0
FC00000FC0
FC00000FC0
FC00000FC0
FC00000FC0
FC00000FC0
FC00000FC0
FC00000FC0
7E00001F80
7E00001F80
3F00003F80
3F80007F00
1FE000FE00
0FF807FC00
07FFFFF800
01FFFFF000
007FFFC000
000FFC0000
ENDCHAR
STARTCHAR nine
ENCODING 57
SWIDTH 561 0
DWIDTH 42 0
BBX 36 53 3 -1
BITMAP
0007FC0000
003FFF8000
00FFFFE000
01FFFFF800
07FFFFFC00
0FFC07FE00
0FF001FE00
1FC0007F00
3F80003F80
3F00001F80
3F00001FC0
7E00000FC0
7E00000FC0
7E000007E0
7C000007E0
FC000007E0
FC000007E0
FC000007E0
FC000007E0
FC000007F0
7C000007F0
7E000007F0
7E00000FF0
7E00000FF0
3F00000FF0
3F00001FF0
1F80003BF0
1FC0007BF0
0FE000F3F0
07F003E3E0
03FFFFC3E0
01FFFF87E0
007FFE07E0
000FF807E0
00000007E0
00000007E0
00000007C0
00000007C0
0000000FC0
0000000FC0
0000000F80
0000001F80
0000001F00
0000003F00
0000007E00
000000FE00
1F0003FC00
1FE00FF800
1FFFFFF000
1FFFFFE000
07FFFF8000
01FFFE0000
003FF00000
ENDCHAR
STARTCHAR colon
ENCODING 58
SWIDTH 282 0
DWIDTH 21 0
BBX 7 36 7 0
BITMAP
3C
FE
FE
FE
FE
FE
7C
00
00
00
00
00
00
00
00
00
00
00
00
00
00
00
00
00
00
00
00
00
00
3C
FE
FE
FE
FE
FE
3C
ENDCHAR
STARTCHAR semicolon
ENCODING 59
SWIDTH 282 0
DWIDTH 21 0
BBX 10 45 5 -8
BITMAP
0F80
1FC0
1FC0
1FC0
1FC0
1FC0
0F00
0000
0000
0000
0000
0000
0000
0000
0000
0000
0000
0000
0000
0000
0000
0000
0000
0000
0000
0FC0
1FC0
1FC0
1FC0
1F80
1F80
3F80
3F00
3F00
3F00
3E00
7E00
7E00
7C00
7C00
7C00
7800
F800
F000
F000
ENDCHAR
STARTCHAR less
ENCODING 60
SWIDTH 656 0
DWIDTH 49 0
BBX 37 33 6 1
BITMAP
0000000070
00000001F8
00000007F8
0000003FF0
000000FFC0
000003FF00
00001FF800
00007FE000
0001FF0000
000FFC0000
003FF00000
00FF800000
07FE000000
1FF8000000
7FC0000000
FF00000000
FE00000000
FF80000000
3FE0000000
0FFC000000
01FF000000
007FC00000
001FF00000
0007FE0000
0000FF8000
00003FE000
00000FFC00
000003FF00
0000007FC0
0000001FF0
00000007F8
00000001F8
0000000030
ENDCHAR
STARTCHAR equal
ENCODING 61
SWIDTH 656 0
DWIDTH 49 0
BBX 37 19 6 9
BITMAP
7FFFFFFFF0
FFFFFFFFF8
FFFFFFFFF8
FFFFFFFFF8
7FFFFFFFF0
0000000000
0000000000
0000000000
0000000000
0000000000
0000000000
0000000000
0000000000
0000000000
7FFFFFFFF0
FFFFFFFFF8
FFFFFFFFF8
FFFFFFFFF8
7FFFFFFFF0
ENDCHAR
STARTCHAR greater
ENCODING 62
SWIDTH 656 0
DWIDTH 49 0
BBX 37 33 6 1
BITMAP
7000000000
FC00000000
FF00000000
7FE0000000
1FF8000000
07FE000000
00FFC00000
003FF00000
0007FC0000
0001FF8000
00007FE000
00000FFC00
000003FF00
000000FFC0
0000001FF0
00000007F8
00000003F8
0000000FF8
0000003FE0
000000FF80
000007FE00
00001FF000
00007FC000
0003FF0000
000FF80000
003FE00000
00FF800000
07FE000000
1FF0000000
7FC0000000
FF00000000
FC00000000
6000000000
ENDCHAR
STARTCHAR question
ENCODING 63
SWIDTH 502 0
DWIDTH 38 0
BBX 26 52 6 0
BITMAP
03FF8000
7FFFF000
FFFFFC00
FFFFFE00
FFFFFF00
FE01FF80
00007F80
00001F80
00001FC0
00000FC0
00000FC0
00000FC0
00000FC0
00000FC0
00000FC0
00000FC0
00000F80
00001F80
00003F00
00007F00
0000FE00
0001FC00
0003F800
000FE000
001FC000
003F8000
007F0000
00FC0000
01F80000
01F80000
01F00000
01F00000
01F00000
01F00000
01F00000
01F00000
01F00000
01E00000
00000000
00000000
00000000
00000000
00000000
00000000
00000000
01F00000
03F80000
03F80000
03F80000
03F80000
03F80000
01F00000
ENDCHAR
STARTCHAR at
ENCODING 64
SWIDTH 799 0
DWIDTH 60 0
BBX 55 56 2 -1
BITMAP
0000007FF00000
000007FFFF0000
00003FFFFFC000
0000FFFFFFF000
0003FF0007FC00
000FF80001FE00
001FE000007F00
003F8000001F80
007E0000000FC0
00FC00000007E0
01F800000003E0
03F000000001F0
07E0003F8001F0
0FC001FFF000F8
0F8007FFF9E0F8
1F800FFFFDF07C
1F001FE0FFE07C
3E003F803FE07C
3E007F001FE07C
7E00FE000FE03C
7C00FC000FC03E
7C01F80007C03E
7C01F00007C03E
7803F0000F803E
F803E0000F803E
F807E0000F803E
F807E0001F003C
F807C0001F003C
F807C0001F007C
F80FC0001E007C
F80FC0003E0078
F80FC0003E00F8
F80FC0003C00F8
780FC0007C01F0
7C0FC0007C01F0
7C07C000FC03E0
7C07C001F807C0
7C07E003F807C0
3E03F007F81F80
3E03F81FF83F00
3F01FFFFFFFC00
1F00FFFCFFF800
1F807FF07FE000
0F800F800F0000
07C00000000000
07E00000000000
03F00000000000
01F80000000000
00FE0000000000
007F0000000000
003FE000000000
000FFC001F0000
0007FFFFFF8000
0001FFFFFF0000
00003FFFFC0000
000003FF800000
ENDCHAR
STARTCHAR A
ENCODING 65
SWIDTH 686 0
DWIDTH 51 0
BBX 47 52 2 0
BITMAP
000007C00000
00000FE00000
00001FF00000
00001FF80000
00003FF80000
00003FF80000
00003EFC0000
00007EFC0000
00007E7E0000
0000FC7E0000
0000FC3E0000
0001F83F0000
0001F83F0000
0001F81F8000
0003F01F8000
0003F00FC000
0007E00FC000
0007E00FC000
0007E007E000
000FC007E000
000FC003F000
001F8003F000
001F8003F000
001F8001F800
003F0001F800
003F0000FC00
007E0000FC00
007E0000FC00
00FE00007E00
00FC00007E00
00FC00003F00
01F800003F00
01F800003F80
03F800001F80
03FFFFFFFF80
03FFFFFFFFC0
07FFFFFFFFC0
07FFFFFFFFE0
0FC0000007E0
0FC0000007E0
0FC0000003F0
1F80000003F0
1F80000001F8
3F00000001F8
3F00000001F8
3F00000000FC
7E00000000FC
7E000000007E
FC000000007E
FC000000007E
FC000000003E
78000000001C
ENDCHAR
STARTCHAR B
ENCODING 66
SWIDTH 624 0
DWIDTH 47 0
BBX 37 52 7 0
BITMAP
7FFFFE0000
FFFFFFC000
FFFFFFF800
FFFFFFFC00
FFFFFFFE00
F80003FF00
F800007F80
F800003F80
F800001FC0
F800000FC0
F800000FC0
F8000007C0
F8000007E0
F8000007E0
F8000007E0
F8000007C0
F800000FC0
F800000FC0
F800000F80
F800001F80
F800003F00
F80000FE00
F80007FC00
FFFFFFF800
FFFFFFE000
FFFFFF8000
FFFFFFF800
FFFFFFFE00
F80003FF00
F800007F80
F800001FC0
F8000007E0
F8000007F0
F8000003F0
F8000003F0
F8000003F0
F8000003F8
F8000001F8
F8000003F8
F8000003F8
F8000003F8
F8000003F0
F8000003F0
F8000007F0
F800000FE0
F800001FE0
F80000FFC0
FFFFFFFF80
FFFFFFFF00
FFFFFFFC00
FFFFFFF000
7FFFFF8000
ENDCHAR
STARTCHAR C
ENCODING 67
SWIDTH 661 0
DWIDTH 50 0
BBX 39 53 5 -1
BITMAP
00001FF800
0001FFFF80
0007FFFFE0
001FFFFFF8
003FFFFFFC
00FFF003FC
01FF80007C
03FE000018
03F8000000
07F0000000
0FE0000000
0FC0000000
1FC0000000
1F80000000
3F80000000
3F00000000
7F00000000
7E00000000
7E00000000
7E00000000
FE00000000
FC00000000
FC00000000
FC00000000
FC00000000
FC00000000
FC00000000
FC00000000
FC00000000
FC00000000
FC00000000
FC00000000
FE00000000
FE00000000
7E00000000
7E00000000
7F00000000
7F00000000
3F00000000
3F80000000
1FC0000000
1FC0000000
0FE0000000
0FF0000000
07F800000C
03FE00003E
01FF0000FE
00FFF007FE
007FFFFFFC
001FFFFFF8
000FFFFFE0
0001FFFF00
00003FF800
ENDCHAR
STARTCHAR D
ENCODING 68
SWIDTH 729 0
DWIDTH 55 0
BBX 43 52 7 0
BITMAP
7FFFFC000000
FFFFFFC00000
FFFFFFF80000
FFFFFFFE0000
FFFFFFFF8000
F8000FFFC000
F800007FE000
F800001FF000
F8000007F800
F8000001FC00
F8000000FE00
F80000007E00
F80000007F00
F80000003F00
F80000003F80
F80000001F80
F80000001FC0
F80000000FC0
F80000000FC0
F80000000FC0
F80000000FC0
F80000000FE0
F80000000FE0
F800000007E0
F800000007E0
F800000007E0
F800000007E0
F800000007E0
F800000007E0
F80000000FE0
F80000000FE0
F80000000FC0
F80000000FC0
F80000000FC0
F80000000FC0
F80000001FC0
F80000001F80
F80000001F80
F80000003F80
F80000007F00
F80000007F00
F8000000FE00
F8000001FC00
F8000003F800
F800000FF800
F800003FE000
F80003FFC000
FFFFFFFF8000
FFFFFFFE0000
FFFFFFF80000
FFFFFFC00000
7FFFFC000000
ENDCHAR
STARTCHAR E
ENCODING 69
SWIDTH 600 0
DWIDTH 45 0
BBX 33 52 7 0
BITMAP
7FFFFFFE00
FFFFFFFF00
FFFFFFFF00
FFFFFFFF00
FFFFFFFE00
F800000000
F800000000
F800000000
F800000000
F800000000
F800000000
F800000000
F800000000
F800000000
F800000000
F800000000
F800000000
F800000000
F800000000
F800000000
F800000000
F800000000
F800000000
FFFFFFFC00
FFFFFFFE00
FFFFFFFE00
FFFFFFFE00
FFFFFFFC00
F800000000
F800000000
F800000000
F800000000
F800000000
F800000000
F800000000
F800000000
F800000000
F800000000
F800000000
F800000000
F800000000
F800000000
F800000000
F800000000
F800000000
F800000000
F800000000
FFFFFFFF00
FFFFFFFF80
FFFFFFFF80
FFFFFFFF80
7FFFFFFF00
ENDCHAR
STARTCHAR F
ENCODING 70
SWIDTH 554 0
DWIDTH 42 0
BBX 31 52 7 0
BITMAP
7FFFFFFC
FFFFFFFE
FFFFFFFE
FFFFFFFE
FFFFFFFC
F8000000
F8000000
F8000000
F8000000
F8000000
F8000000
F8000000
F8000000
F8000000
F8000000
F8000000
F8000000
F8000000
F8000000
F8000000
F8000000
F8000000
FFFFFFF8
FFFFFFFC
FFFFFFFC
FFFFFFFC
FFFFFFF8
F8000000
F8000000
F8000000
F8000000
F8000000
F8000000
F8000000
F8000000
F8000000
F8000000
F8000000
F8000000
F8000000
F8000000
F8000000
F8000000
F8000000
F8000000
F8000000
F8000000
F8000000
F8000000
F8000000
F8000000
70000000
ENDCHAR
STARTCHAR G
ENCODING 71
SWIDTH 703 0
DWIDTH 53 0
BBX 43 53 5 -1
BITMAP
00000FFF0000
0000FFFFF000
0003FFFFFE00
000FFFFFFF80
003FFFFFFF80
007FF801FF80
00FF80000F80
01FE00000000
03FC00000000
07F000000000
0FE000000000
0FE000000000
1FC000000000
1F8000000000
3F8000000000
3F0000000000
7F0000000000
7E0000000000
7E0000000000
7E0000000000
FE0000000000
FC0000000000
FC0000000000
FC0000000000
FC0000000000
FC00007FFFC0
FC0000FFFFE0
FC0000FFFFE0
FC0000FFFFE0
FC00007FFFE0
FC00000007E0
FC00000007E0
FE00000007E0
FE00000007E0
7E00000007E0
7E00000007E0
7F00000007E0
7F00000007E0
3F80000007E0
3F80000007E0
1FC0000007E0
1FC0000007E0
0FE0000007E0
0FF0000007E0
07F8000007E0
03FE000007E0
01FF80000FE0
00FFF001FFE0
007FFFFFFFE0
001FFFFFFFC0
000FFFFFFF00
0001FFFFF800
00001FFE0000
ENDCHAR
STARTCHAR H
ENCODING 72
SWIDTH 709 0
DWIDTH 53 0
BBX 40 52 7 0
BITMAP
700000001C
F80000003E
F80000003F
F80000003F
F80000003F
F80000003F
F80000003F
F80000003F
F80000003F
F80000003F
F80000003F
F80000003F
F80000003F
F80000003F
F80000003F
F80000003F
F80000003F
F80000003F
F80000003F
F80000003F
F80000003F
F80000003F
F80000003F
FFFFFFFFFF
FFFFFFFFFF
FFFFFFFFFF
FFFFFFFFFF
FFFFFFFFFF
F80000003F
F80000003F
F80000003F
F80000003F
F80000003F
F80000003F
F80000003F
F80000003F
F80000003F
F80000003F
F80000003F
F80000003F
F80000003F
F80000003F
F80000003F
F80000003F
F80000003F
F80000003F
F80000003F
F80000003F
F80000003F
F80000003F
F80000003E
700000001C
ENDCHAR
STARTCHAR I
ENCODING 73
SWIDTH 285 0
DWIDTH 21 0
BBX 6 52 8 0
BITMAP
70
F8
FC
FC
FC
FC
FC
FC
FC
FC
FC
FC
FC
FC
FC
FC
FC
FC
FC
FC
FC
FC
FC
FC
FC
FC
FC
FC
FC
FC
FC
FC
FC
FC
FC
FC
FC
FC
FC
FC
FC
FC
FC
FC
FC
FC
FC
FC
FC
FC
F8
70
ENDCHAR
STARTCHAR J
ENCODING 74
SWIDTH 484 0
DWIDTH 36 0
BBX 28 53 3 -1
BITMAP
000001E0
000001F0
000003F0
000003F0
000003F0
000003F0
000003F0
000003F0
000003F0
000003F0
000003F0
000003F0
000003F0
000003F0
000003F0
000003F0
000003F0
000003F0
000003F0
000003F0
000003F0
000003F0
000003F0
000003F0
000003F0
000003F0
000003F0
000003F0
000003F0
000003F0
000003F0
000003F0
000003F0
000003F0
000003F0
000003F0
000003F0
000003F0
000003F0
000003F0
000003F0
000007F0
000007E0
000007E0
70000FE0
F8001FC0
FE003FC0
FF80FF80
7FFFFF00
3FFFFE00
1FFFF800
07FFF000
00FF8000
ENDCHAR
STARTCHAR K
ENCODING 75
SWIDTH 598 0
DWIDTH 45 0
BBX 35 52 7 0
BITMAP
7000000780
F800000F80
F800001F80
F800003F80
F800007F00
F80000FE00
F80001FC00
F80003F800
F80007F000
F8000FE000
F8001FC000
F8001F8000
F8003F0000
F8007E0000
F800FC0000
F801F80000
F803F00000
F807E00000
F80FC00000
F81F800000
F83F000000
F87E000000
F8FC000000
F9F8000000
FBF0000000
FFE0000000
FFF8000000
FBFC000000
F9FE000000
F8FF000000
F87F800000
F83FC00000
F81FE00000
F807F00000
F803F80000
F801FC0000
F800FE0000
F8007F0000
F8003F8000
F8001FC000
F8000FE000
F80007F000
F80003F800
F80001FC00
F80000FE00
F800007F80
F800003FC0
F800001FE0
F800000FE0
F8000007E0
F8000003E0
70000001C0
ENDCHAR
STARTCHAR L
ENCODING 76
SWIDTH 531 0
DWIDTH 40 0
BBX 32 52 7 0
BITMAP
70000000
F8000000
F8000000
F8000000
F8000000
F8000000
F8000000
F8000000
F8000000
F8000000
F8000000
F8000000
F8000000
F8000000
F8000000
F8000000
F8000000
F8000000
F8000000
F8000000
F8000000
F8000000
F8000000
F8000000
F8000000
F8000000
F8000000
F8000000
F8000000
F8000000
F8000000
F8000000
F8000000
F8000000
F8000000
F8000000
F8000000
F8000000
F8000000
F8000000
F8000000
F8000000
F8000000
F8000000
F8000000
F8000000
F8000000
FFFFFFFE
FFFFFFFF
FFFFFFFF
FFFFFFFF
7FFFFFFE
ENDCHAR
STARTCHAR M
ENCODING 77
SWIDTH 925 0
DWIDTH 69 0
BBX 56 52 7 0
BITMAP
3C000000000078
7F0000000000FE
FF0000000001FE
FF8000000001FF
FF8000000003FF
FFC000000003FF
FFC000000007FF
FFE000000007FF
FBE00000000FFF
FBF00000000FBF
F9F00000001FBF
F9F80000001F3F
F8F80000003F3F
F8FC0000003E3F
F87C0000007E3F
F87E0000007C3F
F83E0000007C3F
F83E000000FC3F
F83F000000F83F
F81F000001F83F
F81F800001F03F
F80F800003F03F
F80FC00003E03F
F807C00007E03F
F807E00007C03F
F803E0000FC03F
F803F0000F803F
F801F0001F803F
F801F8001F003F
F800F8001F003F
F800F8003F003F
F800FC003E003F
F8007C007E003F
F8007E007C003F
F8003E00FC003F
F8003F00F8003F
F8001F01F8003F
F8001F81F0003F
F8000F83F0003F
F8000FC3E0003F
F80007C7E0003F
F80007E7C0003F
F80007E7C0003F
F80003EFC0003F
F80003FF80003F
F80001FF80003F
F80001FF00003F
F80000FF00003F
F80000FE00003F
F800007E00003F
F800003800001F
7000000000001E
ENDCHAR
STARTCHAR N
ENCODING 78
SWIDTH 727 0
DWIDTH 55 0
BBX 41 52 7 0
BITMAP
780000000700
FC0000000F80
FE0000001F80
FF0000001F80
FF8000001F80
FF8000001F80
FFC000001F80
FFE000001F80
FFE000001F80
FFF000001F80
FBF800001F80
F9F800001F80
F9FC00001F80
F8FE00001F80
F87E00001F80
F87F00001F80
F83F80001F80
F81F80001F80
F81FC0001F80
F80FE0001F80
F807E0001F80
F807F0001F80
F803F8001F80
F801F8001F80
F800FC001F80
F800FE001F80
F8007F001F80
F8003F001F80
F8003F801F80
F8001FC01F80
F8000FC01F80
F8000FE01F80
F80007F01F80
F80003F01F80
F80003F81F80
F80001FC1F80
F80000FC1F80
F800007E1F80
F800007F1F80
F800003F1F80
F800001F9F80
F800001FDF80
F800000FDF80
F8000007FF80
F8000007FF80
F8000003FF80
F8000001FF80
F8000001FF80
F8000000FF80
F80000007F80
F80000003F00
700000001E00
ENDCHAR
STARTCHAR O
ENCODING 79
SWIDTH 779 0
DWIDTH 58 0
BBX 49 53 5 -1
BITMAP
00001FFC000000
0001FFFF800000
0007FFFFF00000
001FFFFFFC0000
007FFFFFFE0000
00FFF007FF0000
01FF8000FF8000
03FE00003FC000
07F800001FE000
07F000000FF000
0FE0000007F000
1FC0000003F800
1FC0000001FC00
3F80000001FC00
3F80000000FC00
3F00000000FE00
7F000000007E00
7E000000007E00
7E000000007F00
7E000000007F00
FE000000003F00
FE000000003F00
FC000000003F00
FC000000003F00
FC000000003F00
FC000000003F00
FC000000003F80
FC000000003F00
FC000000003F00
FC000000003F00
FC000000003F00
FE000000003F00
FE000000003F00
7E000000003F00
7E000000007F00
7E000000007E00
7F000000007E00
3F00000000FE00
3F80000000FC00
3F80000001FC00
1FC0000001FC00
1FC0000003F800
0FE0000007F000
07F000000FF000
07F800001FE000
03FE00003FC000
01FF8000FF8000
00FFF007FF0000
007FFFFFFE0000
001FFFFFFC0000
0007FFFFF00000
0001FFFF800000
00001FFC000000
ENDCHAR
STARTCHAR P
ENCODING 80
SWIDTH 581 0
DWIDTH 44 0
BBX 36 52 7 0
BITMAP
7FFFFF0000
FFFFFFF000
FFFFFFFC00
FFFFFFFE00
FFFFFFFF00
F80001FF80
F800003FC0
F800001FC0
F800000FE0
F8000007E0
F8000007E0
F8000003F0
F8000003F0
F8000003F0
F8000003F0
F8000003F0
F8000003F0
F8000003E0
F8000007E0
F8000007E0
F800000FE0
F800001FC0
F800003FC0
F80001FF80
FFFFFFFF00
FFFFFFFE00
FFFFFFF800
FFFFFFE000
FFFFFF0000
F800000000
F800000000
F800000000
F800000000
F800000000
F800000000
F800000000
F800000000
F800000000
F800000000
F800000000
F800000000
F800000000
F800000000
F800000000
F800000000
F800000000
F800000000
F800000000
F800000000
F800000000
F800000000
7000000000
ENDCHAR
STARTCHAR Q
ENCODING 81
SWIDTH 779 0
DWIDTH 58 0
BBX 49 60 5 -8
BITMAP
00001FFC000000
0001FFFF800000
0007FFFFF00000
001FFFFFFC0000
007FFFFFFE0000
00FFF007FF0000
01FF8000FF8000
03FE00003FC000
07F800001FE000
07F000000FF000
0FE0000007F000
1FC0000003F800
1FC0000001FC00
3F80000001FC00
3F80000000FC00
3F00000000FE00
7F000000007E00
7E000000007E00
7E000000007F00
7E000000007F00
FE000000003F00
FE000000003F00
FC000000003F00
FC000000003F00
FC000000003F00
FC000000003F00
FC000000003F80
FC000000003F00
FC000000003F00
FC000000003F00
FC000000003F00
FE000000003F00
FE000000003F00
7E000000003F00
7E000000007F00
7E000000007E00
7F000000007E00
3F00000000FE00
3F80000000FC00
3F80000001FC00
1FC0000001FC00
1FC0000003F800
0FE0000007F000
07F000000FF000
07F800001FE000
03FE00003FC000
01FF8000FF8000
00FFF007FF0000
007FFFFFFE0000
001FFFFFFC0000
0007FFFFF00000
0001FFFFE00000
00001FFFF80000
0000001FFE0000
00000003FFC000
00000000FFF000
000000003FFC00
0000000007FE00
0000000001FE00
00000000007C00
ENDCHAR
STARTCHAR R
ENCODING 82
SWIDTH 652 0
DWIDTH 49 0
BBX 37 52 7 0
BITMAP
7FFFFF8000
FFFFFFF800
FFFFFFFE00
FFFFFFFF00
FFFFFFFF80
F80000FFC0
F800001FE0
F800000FE0
F8000007F0
F8000003F0
F8000003F0
F8000003F0
F8000001F0
F8000001F8
F8000001F0
F8000003F0
F8000003F0
F8000003F0
F8000007E0
F8000007E0
F800000FC0
F800003F80
F80001FF00
FFFFFFFE00
FFFFFFF000
FFFFFFE000
FFFFFFFC00
FFFFFFFE00
F80000FF00
F800003F80
F800001F80
F800000FC0
F800000FC0
F8000007E0
F8000007E0
F8000007E0
F8000007E0
F8000007E0
F8000007E0
F8000003F0
F8000003F0
F8000003F0
F8000003F0
F8000003F0
F8000003F0
F8000003F0
F8000003F0
F8000003F0
F8000001F8
F8000001F8
F8000001F0
70000000F0
ENDCHAR
STARTCHAR S
ENCODING 83
SWIDTH 618 0
DWIDTH 46 0
BBX 37 53 5 -1
BITMAP
0007FE0000
007FFFE000
01FFFFFC00
03FFFFFF00
0FFFFFFF80
1FFC01FFC0
1FE0001FE0
3F800007F0
7F000001E0
7E000000C0
7E00000000
7C00000000
FC00000000
FC00000000
FC00000000
7C00000000
7E00000000
7E00000000
7F00000000
3F80000000
1FE0000000
1FFC000000
07FF800000
03FFF00000
00FFFE0000
003FFFC000
0007FFF000
0000FFFC00
00001FFF00
000003FF80
0000007FC0
0000001FE0
0000000FF0
00000007F0
00000003F0
00000001F8
00000001F8
00000001F8
00000001F8
00000001F8
00000001F8
00000001F8
00000003F0
38000003F0
7C000007F0
FF00000FE0
7FC0003FC0
3FFC01FFC0
1FFFFFFF80
07FFFFFE00
03FFFFFC00
007FFFF000
000FFF0000
ENDCHAR
STARTCHAR T
ENCODING 84
SWIDTH 562 0
DWIDTH 42 0
BBX 40 52 1 0
BITMAP
7FFFFFFFFE
FFFFFFFFFF
FFFFFFFFFF
FFFFFFFFFF
7FFFFFFFFE
00007E0000
00007E0000
00007E0000
00007E0000
00007E0000
00007E0000
00007E0000
00007E0000
00007E0000
00007E0000
00007E0000
00007E0000
00007E0000
00007E0000
00007E0000
00007E0000
00007E0000
00007E0000
00007E0000
00007E0000
00007E0000
00007E0000
00007E0000
00007E0000
00007E0000
00007E0000
00007E0000
00007E0000
00007E0000
00007E0000
00007E0000
00007E0000
00007E0000
00007E0000
00007E0000
00007E0000
00007E0000
00007E0000
00007E0000
00007E0000
00007E0000
00007E0000
00007E0000
00007E0000
00007E0000
00003E0000
00003C0000
ENDCHAR
STARTCHAR U
ENCODING 85
SWIDTH 725 0
DWIDTH 54 0
BBX 40 53 7 -1
BITMAP
780000000E
FC0000001F
FC0000003F
FC0000003F
FC0000003F
FC0000003F
FC0000003F
FC0000003F
FC0000003F
FC0000003F
FC0000003F
FC0000003F
FC0000003F
FC0000003F
FC0000003F
FC0000003F
FC0000003F
FC0000003F
FC0000003F
FC0000003F
FC0000003F
FC0000003F
FC0000003F
FC0000003F
FC0000003F
FC0000003F
FC0000003F
FC0000003F
FC0000003F
FC0000003F
FC0000003F
FC0000003F
FC0000003F
FC0000003F
FC0000003F
FC0000003F
FC0000003F
FC0000003F
FE0000003F
7E0000007F
7E0000007E
7F000000FE
3F800000FE
3F800001FC
1FC00003FC
0FF00007F8
0FFC001FF0
07FF00FFE0
03FFFFFFC0
00FFFFFF80
003FFFFE00
000FFFF800
0001FF8000
ENDCHAR
STARTCHAR V
ENCODING 86
SWIDTH 622 0
DWIDTH 47 0
BBX 44 52 2 0
BITMAP
7000000001C0
F800000003E0
F800000003F0
FC00000007F0
FC00000007E0
FE00000007E0
7E0000000FC0
7E0000000FC0
3F0000000FC0
3F0000001F80
3F0000001F80
1F8000003F00
1F8000003F00
1FC000003F00
0FC000007E00
0FC000007E00
07E000007E00
07E00000FC00
07E00000FC00
03F00001F800
03F00001F800
01F80001F800
01F80003F000
01F80003F000
00FC0003E000
00FC0007E000
00FC0007E000
007E000FC000
007E000FC000
003F000FC000
003F001F8000
003F001F8000
001F801F0000
001F803F0000
000F803F0000
000FC07E0000
000FC07E0000
0007E07C0000
0007E0FC0000
0007E0FC0000
0003F0F80000
0003F1F80000
0001F9F80000
0001FBF00000
0001FBF00000
0000FFE00000
0000FFE00000
00007FE00000
00007FC00000
00007FC00000
00003F800000
00000F000000
ENDCHAR
STARTCHAR W
ENCODING 87
SWIDTH 1042 0
DWIDTH 78 0
BBX 72 52 3 0
BITMAP
700000003C0000000E
F80000007E0000001F
FC000000FF0000003F
FC000000FF0000003F
FC000001FF0000003F
7C000001FF8000003E
7E000001FF8000007E
7E000003FF8000007E
7E000003EFC000007E
3E000003E7C00000FC
3F000007E7C00000FC
3F000007C7E00000FC
3F000007C3E00000F8
1F80000FC3F00001F8
1F80000F81F00001F8
1F80000F81F00001F8
0F80001F81F80001F0
0FC0001F00F80003F0
0FC0001F00F80003F0
0FC0003F00FC0003F0
07C0003E007C0003E0
07E0003E007C0007E0
07E0007E007E0007E0
07E0007C003E0007C0
03E0007C003E0007C0
03F000F8003F000FC0
03F000F8001F000FC0
01F000F8001F000F80
01F001F0001F801F80
01F801F0000F801F80
01F801F0000F801F00
00F803E00007C01F00
00FC03E00007C03F00
00FC03E00007C03F00
007C07C00003E03E00
007C07C00003E03E00
007E0FC00003E07E00
007E0F800001F07E00
003E0F800001F07C00
003E1F800001F07C00
003F1F000000F8FC00
003F1F000000F8F800
001F3E000000F8F800
001F3E0000007DF800
001FBE0000007DF800
000FFC0000007FF000
000FFC0000003FF000
000FFC0000003FF000
000FF80000001FE000
0007F80000001FE000
0007F00000000FC000
0001E0000000078000
ENDCHAR
STARTCHAR X
ENCODING 88
SWIDTH 617 0
DWIDTH 46 0
BBX 40 52 3 0
BITMAP
380000000E
7C0000001F
7E0000003F
7F0000003F
3F8000007E
3F800000FC
1FC00001FC
0FE00001F8
07E00003F0
07F00007E0
03F80007E0
01FC000FC0
01FC001F80
00FE003F00
007F003F00
003F007E00
003F80FC00
001FC0FC00
000FC1F800
000FE3F000
0007F7E000
0003FFE000
0001FFC000
0001FF8000
0000FF8000
00007F0000
0000FF0000
0000FF8000
0001FFC000
0003FFC000
0007FFE000
0007E7F000
000FC3F800
001F83F800
003F81FC00
003F00FE00
007E007E00
00FC007F00
01FC003F80
01F8001FC0
03F0001FC0
07F0000FE0
0FE00007F0
0FC00003F8
1F800003F8
3F800001FC
7F000000FE
7E0000007E
FC0000007F
FC0000003F
F80000001F
700000000E
ENDCHAR
STARTCHAR Y
ENCODING 89
SWIDTH 622 0
DWIDTH 47 0
BBX 41 52 3 0
BITMAP
700000000700
F80000000F80
FC0000000F80
FE0000001F80
7E0000003F00
7F0000003E00
3F8000007E00
1F800000FC00
1FC00000F800
0FE00001F800
07E00003F000
07F00003E000
03F80007E000
01F8000FC000
01FC000F8000
00FC001F8000
007E003F0000
007F003E0000
003F007E0000
001F80FC0000
001FC0FC0000
000FC1F80000
0007E1F00000
0007F3F00000
0003F7E00000
0001FFC00000
0001FFC00000
0000FF800000
00007F000000
00007F000000
00007E000000
00007E000000
00007E000000
00007E000000
00007E000000
00007E000000
00007E000000
00007E000000
00007E000000
00007E000000
00007E000000
00007E000000
00007E000000
00007E000000
00007E000000
00007E000000
00007E000000
00007E000000
00007E000000
00007E000000
00003E000000
00001C000000
ENDCHAR
STARTCHAR Z
ENCODING 90
SWIDTH 565 0
DWIDTH 42 0
BBX 36 52 4 0
BITMAP
7FFFFFFFE0
FFFFFFFFF0
FFFFFFFFF0
FFFFFFFFF0
7FFFFFFFF0
00000003F0
00000007E0
0000000FC0
0000001F80
0000001F80
0000003F00
0000007E00
0000007E00
000000FC00
000001F800
000003F000
000003F000
000007E000
00000FC000
00000FC000
00001F8000
00003F0000
00003F0000
00007E0000
0000FC0000
0001F80000
0001F80000
0003F00000
0007E00000
0007E00000
000FC00000
001F800000
003F800000
003F000000
007E000000
00FC000000
00FC000000
01F8000000
03F0000000
03F0000000
07E0000000
0FC0000000
1F80000000
1F80000000
3F00000000
7E00000000
7E00000000
FFFFFFFFE0
FFFFFFFFF0
FFFFFFFFF0
FFFFFFFFF0
7FFFFFFFE0
ENDCHAR
STARTCHAR bracketleft
ENCODING 91
SWIDTH 291 0
DWIDTH 22 0
BBX 12 59 6 -7
BITMAP
3FE0
7FF0
FFF0
FFE0
FC00
FC00
FC00
FC00
FC00
FC00
FC00
FC00
FC00
FC00
FC00
FC00
FC00
FC00
FC00
FC00
FC00
FC00
FC00
FC00
FC00
FC00
FC00
FC00
FC00
FC00
FC00
FC00
FC00
FC00
FC00
FC00
FC00
FC00
FC00
FC00
FC00
FC00
FC00
FC00
FC00
FC00
FC00
FC00
FC00
FC00
FC00
FC00
FC00
FC00
FC00
FFE0
FFF0
7FF0
7FE0
ENDCHAR
STARTCHAR backslash
ENCODING 92
SWIDTH 283 0
DWIDTH 21 0
BBX 23 59 -1 -4
BITMAP
200000
780000
F80000
FC0000
7C0000
7C0000
7E0000
3E0000
3E0000
3F0000
1F0000
1F0000
1F8000
0F8000
0F8000
0FC000
07C000
07C000
07E000
03E000
03E000
03F000
01F000
01F000
01F800
00F800
00F800
00FC00
007C00
007C00
007E00
003E00
003E00
003F00
001F00
001F00
001F80
000F80
000F80
000FC0
0007C0
0007C0
0007E0
0003E0
0003E0
0003F0
0001F0
0001F0
0001F8
0000F8
0000F8
0000FC
00007C
00007C
00007C
00003E
00003E
00003E
00001C
ENDCHAR
STARTCHAR bracketright
ENCODING 93
SWIDTH 291 0
DWIDTH 22 0
BBX 11 59 4 -7
BITMAP
7FC0
FFE0
FFE0
7FE0
03E0
03E0
03E0
03E0
03E0
03E0
03E0
03E0
03E0
03E0
03E0
03E0
03E0
03E0
03E0
03E0
03E0
03E0
03E0
03E0
03E0
03E0
03E0
03E0
03E0
03E0
03E0
03E0
03E0
03E0
03E0
03E0
03E0
03E0
03E0
03E0
03E0
03E0
03E0
03E0
03E0
03E0
03E0
03E0
03E0
03E0
03E0
03E0
03E0
03E0
03E0
7FE0
FFE0
FFE0
7FC0
ENDCHAR
STARTCHAR asciicircum
ENCODING 94
SWIDTH 656 0
DWIDTH 49 0
BBX 35 33 7 18
BITMAP
0000E00000
0001F00000
0003F80000
0003F80000
0007FC0000
0007FC0000
000FBE0000
000FBE0000
001F1F0000
001F1F0000
003E0F8000
003E0F8000
007C07C000
007C07C000
00F803E000
00F803E000
01F001F000
01F001F000
03E000F800
07E000F800
07C0007C00
0FC0007E00
0F80003E00
1F80003F00
1F00001F00
3F00001F80
3E00000F80
7E00000FC0
7C000007C0
FC000007E0
F8000003E0
F8000003E0
70000001C0
ENDCHAR
STARTCHAR underscore
ENCODING 95
SWIDTH 500 0
DWIDTH 38 0
BBX 37 4 0 -9
BITMAP
7FFFFFFFF0
FFFFFFFFF8
FFFFFFFFF8
7FFFFFFFF8
ENDCHAR
STARTCHAR grave
ENCODING 96
SWIDTH 277 0
DWIDTH 21 0
BBX 15 14 3 44
BITMAP
3800
7C00
FE00
FE00
7F00
3F80
1FC0
07E0
03F0
01F8
007C
003E
001E
0006
ENDCHAR
STARTCHAR a
ENCODING 97
SWIDTH 505 0
DWIDTH 38 0
BBX 31 38 2 -1
BITMAP
001FF800
01FFFF00
07FFFFC0
1FFFFFE0
3FC007F0
3F0001F8
180000FC
000000FC
0000007C
0000007C
0000007E
0000007E
0000007E
0000007E
0000007E
0000007E
0000007E
003FFFFE
03FFFFFE
0FFFFFFE
1FFC007E
3F80007E
7E00007E
7E00007E
7C00007E
7C00007E
FC0000FE
FC0000FE
FC0001FE
7C0001FE
7C0003FE
7E0007FE
3F000F7E
3F803E7E
1FFFFC7E
0FFFF87C
03FFF038
007F8000
ENDCHAR
STARTCHAR b
ENCODING 98
SWIDTH 573 0
DWIDTH 43 0
BBX 34 53 6 -1
BITMAP
7000000000
F800000000
F800000000
F800000000
F800000000
F800000000
F800000000
F800000000
F800000000
F800000000
F800000000
F800000000
F800000000
F800000000
F800000000
F803FC0000
F81FFF8000
F87FFFC000
F8FFFFF000
F9F807F800
F9E001FC00
FBC000FC00
FF80007E00
FF00003E00
FE00003F00
FE00001F00
FE00001F80
FC00000F80
FC00000F80
FC00000F80
FC00000FC0
F800000FC0
F800000FC0
F800000FC0
F800000FC0
F800000FC0
F800000FC0
FC00000FC0
FC00000F80
FC00000F80
FC00000F80
FC00001F80
FE00001F00
FE00001F00
FF00003F00
FF80007E00
FBC0007E00
FBE001FC00
F9F803F800
F8FFFFF000
F83FFFE000
701FFF8000
0003FC0000
ENDCHAR
STARTCHAR c
ENCODING 99
SWIDTH 465 0
DWIDTH 35 0
BBX 29 38 3 -1
BITMAP
0003FC00
003FFF80
007FFFE0
01FFFFF0
03FC01F8
07F00078
0FC00010
1F800000
1F800000
3F000000
3E000000
7E000000
7E000000
7C000000
7C000000
FC000000
FC000000
FC000000
FC000000
FC000000
FC000000
FC000000
FC000000
7C000000
7C000000
7C000000
7E000000
3E000000
3F000000
3F000000
1F800000
0FC00010
07E00078
07F801F8
03FFFFF0
00FFFFE0
003FFF80
0007FC00
ENDCHAR
STARTCHAR d
ENCODING 100
SWIDTH 573 0
DWIDTH 43 0
BBX 34 53 3 -1
BITMAP
0000000380
00000007C0
00000007C0
00000007C0
00000007C0
00000007C0
00000007C0
00000007C0
00000007C0
00000007C0
00000007C0
00000007C0
00000007C0
00000007C0
00000007C0
000FF007C0
003FFE07C0
00FFFF87C0
03FFFFC7C0
07F807E7C0
0FE001E7C0
0FC000F7C0
1F80007FC0
1F00003FC0
3F00001FC0
3E00001FC0
7E00001FC0
7C00000FC0
7C00000FC0
7C00000FC0
FC00000FC0
FC000007C0
FC000007C0
FC000007C0
FC000007C0
FC000007C0
FC000007C0
FC00000FC0
7C00000FC0
7C00000FC0
7C00000FC0
7E00000FC0
3E00001FC0
3E00001FC0
3F00003FC0
1F80007FC0
1F800077C0
0FE001F7C0
07F007E7C0
03FFFFC7C0
01FFFF07C0
007FFE0380
000FF00000
ENDCHAR
STARTCHAR e
ENCODING 101
SWIDTH 556 0
DWIDTH 42 0
BBX 33 38 4 -1
BITMAP
0007FC0000
003FFF8000
00FFFFC000
03FFFFF000
07F803F800
0FE000FC00
1FC0007C00
1F80003E00
3F00003E00
3E00001F00
7E00001F00
7C00000F00
FC00000F80
FC00000F80
F800000F80
F800000780
FFFFFFFF80
FFFFFFFF80
FFFFFFFF80
FFFFFFFF80
F800000000
F800000000
F800000000
F800000000
F800000000
FC00000000
7C00000000
7C00000000
7E00000000
3F00000300
1F00000F00
1F80001F00
0FE0007F00
07F801FC00
03FFFFF800
00FFFFF000
003FFFC000
0007FC0000
ENDCHAR
STARTCHAR f
ENCODING 102
SWIDTH 337 0
DWIDTH 25 0
BBX 23 52 2 0
BITMAP
0007FC
001FFE
003FFE
007FFC
00FC00
00F800
00F800
01F800
01F800
01F800
01F000
01F000
01F000
01F000
01F000
01F000
FFFFF8
FFFFF8
FFFFF8
7FFFF0
01F000
01F000
01F000
01F000
01F000
01F000
01F000
01F000
01F000
01F000
01F000
01F000
01F000
01F000
01F000
01F000
01F000
01F000
01F000
01F000
01F000
01F000
01F000
01F000
01F000
01F000
01F000
01F000
01F000
01F000
01F000
00E000
ENDCHAR
STARTCHAR g
ENCODING 103
SWIDTH 566 0
DWIDTH 42 0
BBX 34 52 3 -15
BITMAP
000FF00000
007FFE0380
00FFFF87C0
03FFFFC7C0
07F803E7C0
0FE001E7C0
0FC00077C0
1F80003FC0
1F00003FC0
3F00001FC0
3E00001FC0
7E00000FC0
7C00000FC0
7C00000FC0
7C00000FC0
FC00000FC0
FC000007C0
FC000007C0
FC000007C0
FC000007C0
FC000007C0
FC000007C0
FC00000FC0
7C00000FC0
7C00000FC0
7E00000FC0
7E00001FC0
3E00001FC0
3F00003FC0
1F800077C0
1FC000F7C0
0FE001E7C0
07F807E7C0
03FFFFC7C0
01FFFF07C0
007FFE07C0
000FF007C0
00000007C0
00000007C0
00000007C0
0000000FC0
0000000FC0
0000000F80
0000001F80
0000001F80
0000003F00
0E00007E00
0FE003FC00
0FFFFFF800
07FFFFF000
01FFFFC000
001FFE0000
ENDCHAR
STARTCHAR h
ENCODING 104
SWIDTH 557 0
DWIDTH 42 0
BBX 31 52 6 0
BITMAP
70000000
F8000000
F8000000
F8000000
F8000000
F8000000
F8000000
F8000000
F8000000
F8000000
F8000000
F8000000
F8000000
F8000000
F8000000
F807FC00
F81FFF00
F87FFFC0
F8FFFFE0
F9F007F0
FBC003F8
FF8001F8
FF0000F8
FE0000FC
FC00007C
FC00007C
FC00007C
FC00007C
F800007E
F800007E
F800007E
F800007E
F800007E
F800007E
F800007E
F800007E
F800007E
F800007E
F800007E
F800007E
F800007E
F800007E
F800007E
F800007E
F800007E
F800007E
F800007E
F800007E
F800007E
F800007E
F800007C
70000038
ENDCHAR
STARTCHAR i
ENCODING 105
SWIDTH 238 0
DWIDTH 18 0
BBX 8 52 5 0
BITMAP
3C
7E
7F
FF
7F
7E
3C
00
00
00
00
00
00
00
00
00
1C
3E
3E
3E
3E
3E
3E
3E
3E
3E
3E
3E
3E
3E
3E
3E
3E
3E
3E
3E
3E
3E
3E
3E
3E
3E
3E
3E
3E
3E
3E
3E
3E
3E
3E
1C
ENDCHAR
STARTCHAR j
ENCODING 106
SWIDTH 240 0
DWIDTH 18 0
BBX 14 66 -1 -14
BITMAP
00F0
01FC
01FC
01FC
01FC
01FC
00F0
0000
0000
0000
0000
0000
0000
0000
0000
0000
0070
00F8
00F8
00F8
00F8
00F8
00F8
00F8
00F8
00F8
00F8
00F8
00F8
00F8
00F8
00F8
00F8
00F8
00F8
00F8
00F8
00F8
00F8
00F8
00F8
00F8
00F8
00F8
00F8
00F8
00F8
00F8
00F8
00F8
00F8
00F8
00F8
00F8
00F8
00F8
00F8
00F8
00F8
00F8
01F8
03F8
7FF0
FFE0
FFC0
FF00
ENDCHAR
STARTCHAR k
ENCODING 107
SWIDTH 475 0
DWIDTH 36 0
BBX 27 52 6 0
BITMAP
70000000
F8000000
F8000000
F8000000
F8000000
F8000000
F8000000
F8000000
F8000000
F8000000
F8000000
F8000000
F8000000
F8000000
F8000000
F8000180
F80007C0
F8000FC0
F8001FC0
F8003F80
F8007F00
F800FE00
F801FC00
F803F000
F807E000
F81FC000
F83F8000
F87F0000
F8FE0000
F9FC0000
FBF80000
FFE00000
FBF00000
FBF80000
F9FC0000
F8FE0000
F87F0000
F83F8000
F81FC000
F80FE000
F807E000
F803F000
F801F800
F800FC00
F8007E00
F8003F00
F8001F80
F8000FC0
F8000FE0
F80007E0
F80003E0
700001C0
ENDCHAR
STARTCHAR l
ENCODING 108
SWIDTH 239 0
DWIDTH 18 0
BBX 5 52 7 0
BITMAP
70
F8
F8
F8
F8
F8
F8
F8
F8
F8
F8
F8
F8
F8
F8
F8
F8
F8
F8
F8
F8
F8
F8
F8
F8
F8
F8
F8
F8
F8
F8
F8
F8
F8
F8
F8
F8
F8
F8
F8
F8
F8
F8
F8
F8
F8
F8
F8
F8
F8
F8
70
ENDCHAR
STARTCHAR m
ENCODING 109
SWIDTH 895 0
DWIDTH 67 0
BBX 56 37 6 0
BITMAP
0007F80003FE00
701FFF001FFF80
F87FFF803FFFE0
F8FFFFC07FFFF0
F9F00FE0F803F8
F9C003F1E001FC
FB8001F3C000FC
FF0000FB80007E
FE0000FB00007E
FE0000FF00003E
FC00007E00003E
FC00007E00003F
FC00007E00003F
F800007E00003F
F800007C00003F
F800007C00003F
F800007C00003F
F800007C00003F
F800007C00003F
F800007C00003F
F800007C00003F
F800007C00003F
F800007C00003F
F800007C00003F
F800007C00003F
F800007C00003F
F800007C00003F
F800007C00003F
F800007C00003F
F800007C00003F
F800007C00003F
F800007C00003F
F800007C00003F
F800007C00003F
F800007C00003F
F800007C00003E
7000003800001E
ENDCHAR
STARTCHAR n
ENCODING 110
SWIDTH 559 0
DWIDTH 42 0
BBX 31 37 6 0
BITMAP
0007FC00
701FFF00
F87FFFC0
F8FFFFE0
F9F00FF0
FBC003F8
FB8001F8
FF0000F8
FE0000FC
FE00007C
FC00007C
FC00007C
FC00007C
F800007E
F800007E
F800007E
F800007E
F800007E
F800007E
F800007E
F800007E
F800007E
F800007E
F800007E
F800007E
F800007E
F800007E
F800007E
F800007E
F800007E
F800007E
F800007E
F800007E
F800007E
F800007E
F800007C
70000038
ENDCHAR
STARTCHAR o
ENCODING 111
SWIDTH 554 0
DWIDTH 42 0
BBX 36 38 3 -1
BITMAP
0003FE0000
003FFFC000
007FFFF000
01FFFFF800
03FC01FC00
07F0007E00
0FC0003F00
1F80001F80
1F00000FC0
3F00000FC0
3E000007E0
7E000007E0
7C000003E0
7C000003F0
7C000003F0
FC000003F0
FC000001F0
FC000001F0
FC000001F0
FC000001F0
FC000001F0
FC000001F0
FC000003F0
7C000003F0
7C000003F0
7C000003E0
7E000007E0
3E000007E0
3F000007C0
1F00000FC0
1F80001F80
0FC0003F00
07E0007E00
03F801FC00
01FFFFF800
00FFFFF000
003FFFC000
0003FE0000
ENDCHAR
STARTCHAR p
ENCODING 112
SWIDTH 573 0
DWIDTH 43 0
BBX 34 51 6 -14
BITMAP
0003FC0000
701FFF8000
F83FFFE000
F8FFFFF000
F9F803F800
F9E001FC00
FBC000FE00
FF80007E00
FF00003F00
FE00001F00
FE00001F00
FC00001F80
FC00000F80
FC00000F80
FC00000F80
FC00000FC0
F800000FC0
F800000FC0
F800000FC0
F800000FC0
F800000FC0
F800000FC0
FC00000FC0
FC00000F80
FC00000F80
FC00000F80
FE00001F80
FE00001F00
FE00003F00
FF00003E00
FF80007E00
FBC000FC00
FBE001FC00
F9F807F800
F8FFFFF000
F87FFFC000
F81FFF0000
F803FC0000
F800000000
F800000000
F800000000
F800000000
F800000000
F800000000
F800000000
F800000000
F800000000
F800000000
F800000000
F800000000
7000000000
ENDCHAR
STARTCHAR q
ENCODING 113
SWIDTH 573 0
DWIDTH 43 0
BBX 34 51 3 -14
BITMAP
000FF00000
007FFE0380
01FFFF07C0
03FFFFC7C0
07F807E7C0
0FE001E7C0
1FC00077C0
1F80007FC0
3F00003FC0
3E00001FC0
3E00001FC0
7E00000FC0
7C00000FC0
7C00000FC0
7C00000FC0
FC00000FC0
FC000007C0
FC000007C0
FC000007C0
FC000007C0
FC000007C0
FC000007C0
FC00000FC0
7C00000FC0
7C00000FC0
7C00000FC0
7E00001FC0
3E00001FC0
3F00001FC0
1F00003FC0
1F80007FC0
0FC000F7C0
0FE001F7C0
07F807E7C0
03FFFFC7C0
00FFFF87C0
003FFE07C0
000FF007C0
00000007C0
00000007C0
00000007C0
00000007C0
00000007C0
00000007C0
00000007C0
00000007C0
00000007C0
00000007C0
00000007C0
00000007C0
0000000380
ENDCHAR
STARTCHAR r
ENCODING 114
SWIDTH 344 0
DWIDTH 26 0
BBX 18 37 6 0
BITMAP
000780
703FC0
F87FC0
F8FFC0
F9FF80
F9F000
FBC000
FB0000
FF0000
FE0000
FC0000
FC0000
FC0000
F80000
F80000
F80000
F80000
F80000
F80000
F80000
F80000
F80000
F80000
F80000
F80000
F80000
F80000
F80000
F80000
F80000
F80000
F80000
F80000
F80000
F80000
F80000
700000
ENDCHAR
STARTCHAR s
ENCODING 115
SWIDTH 492 0
DWIDTH 37 0
BBX 29 38 4 -1
BITMAP
003FF000
03FFFE00
0FFFFFC0
1FFFFFE0
3F800FF0
7E0001E0
7C000000
7C000000
7C000000
F8000000
FC000000
7C000000
7C000000
7F000000
3FC00000
3FFC0000
1FFFC000
07FFFC00
00FFFF00
001FFFC0
0001FFE0
00001FE0
000003F0
000001F0
000000F8
000000F8
000000F8
000000F8
000000F8
000000F8
000000F0
780001F0
FC0003F0
7F800FE0
3FFFFFC0
0FFFFF80
03FFFE00
003FF000
ENDCHAR
STARTCHAR t
ENCODING 116
SWIDTH 350 0
DWIDTH 26 0
BBX 22 50 2 -1
BITMAP
004000
00E000
01F000
01F000
01F000
01F000
01F000
01F000
01F000
01F000
01F000
01F000
03F000
FFFFF0
FFFFF8
FFFFF8
7FFFF0
03F000
03F000
03F000
03F000
03F000
03F000
03F000
03F000
03F000
03F000
03F000
03F000
03F000
03F000
03F000
03F000
03F000
03F000
03F000
03F000
03F000
03F000
03F000
03F000
01F000
01F000
01F000
01F800
00FC00
00FFF8
007FFC
003FFC
000FF8
ENDCHAR
STARTCHAR u
ENCODING 117
SWIDTH 559 0
DWIDTH 42 0
BBX 31 37 5 -1
BITMAP
7800001C
7C00003E
FC00003E
FC00003E
FC00003E
FC00003E
FC00003E
FC00003E
FC00003E
FC00003E
FC00003E
FC00003E
FC00003E
FC00003E
FC00003E
FC00003E
FC00003E
FC00003E
FC00003E
FC00003E
FC00003E
FC00003E
FC00003E
FC00007E
FC00007E
7C00007E
7C00007E
7C0000FE
7E0000FE
7E0001FE
3F0003BE
3F8007BE
1FE01F3E
0FFFFE3E
07FFFC3E
01FFF01C
007FC000
ENDCHAR
STARTCHAR v
ENCODING 118
SWIDTH 497 0
DWIDTH 37 0
BBX 34 36 2 0
BITMAP
7000000300
F800000780
F800000FC0
FC00000FC0
FC00000F80
7C00001F80
7E00001F00
3E00003F00
3F00003E00
1F00003E00
1F80007E00
1F80007C00
0F8000FC00
0FC000F800
07C001F800
07E001F000
03E001F000
03E003F000
01F003E000
01F007E000
01F807C000
00F807C000
00FC0F8000
007C0F8000
007C1F8000
003E1F0000
003E3F0000
003F3E0000
001F3E0000
001F7C0000
000FFC0000
000FFC0000
000FF80000
0007F80000
0003F00000
0001E00000
ENDCHAR
STARTCHAR w
ENCODING 119
SWIDTH 829 0
DWIDTH 62 0
BBX 57 36 3 0
BITMAP
7000001C00000700
F800003E00000F80
F800007F00000F80
F800007F00000F80
FC0000FF80001F80
7C0000FF80001F00
7C0000F780001F00
3E0001F7C0003E00
3E0001E3C0003E00
3E0003E3E0007E00
1F0003E3E0007C00
1F0003C1E0007C00
1F8007C1F000FC00
0F800781F000F800
0F800780F000F800
0FC00F80F801F000
07C00F007801F000
07C01F007801F000
03E01F007C03E000
03E01E003C03E000
03E03E003E03E000
01F03C003E07C000
01F03C001E07C000
01F07C001F07C000
00F878000F0F8000
00F878000F0F8000
007CF8000F9F0000
007CF000079F0000
007DF00007DF0000
003FE00003FE0000
003FE00003FE0000
003FE00003FE0000
001FC00001FC0000
001FC00001FC0000
000F800000F80000
0007000000700000
ENDCHAR
STARTCHAR x
ENCODING 120
SWIDTH 505 0
DWIDTH 38 0
BBX 32 36 3 0
BITMAP
1C00001C
3E00003E
3E00007E
3F0000FC
3F8000FC
1FC001F8
0FE003F0
07E007E0
03F007C0
03F80FC0
01FC1F80
00FE3F00
007E3E00
003F7E00
003FFC00
001FF800
000FF000
0007E000
000FF000
001FF800
001FFC00
003FFE00
007E7E00
00FC3F00
01F83F80
01F01FC0
03F00FE0
07E007E0
0FC003F0
1F8003F8
3F0001FC
3F0000FE
7E00007E
FC00003F
7800001E
7000001C
ENDCHAR
STARTCHAR y
ENCODING 121
SWIDTH 498 0
DWIDTH 37 0
BBX 34 50 3 -14
BITMAP
7000000380
F8000007C0
FC000007C0
FC00000FC0
7C00000F80
7E00001F80
3E00001F00
3F00003F00
1F00003E00
1F80007E00
1F80007E00
0FC0007C00
0FC000FC00
07E000F800
07E001F800
03E001F000
03F003F000
01F003E000
01F807E000
00F807C000
00FC0FC000
007C0F8000
007E0F8000
003E1F8000
003F1F0000
003F3F0000
001FBE0000
001FFE0000
000FFC0000
000FFC0000
0007F80000
0007F80000
0003F00000
0003F00000
0003F00000
0003E00000
0007E00000
0007C00000
000FC00000
000F800000
001F800000
001F000000
003F000000
003E000000
007E000000
007C000000
00FC000000
00FC000000
00F8000000
0070000000
ENDCHAR
STARTCHAR z
ENCODING 122
SWIDTH 451 0
DWIDTH 34 0
BBX 27 36 3 0
BITMAP
7FFFFFC0
7FFFFFE0
7FFFFFE0
3FFFFFE0
00000FE0
00000FC0
00001F80
00003F80
00003F00
00007E00
0000FC00
0001FC00
0001F800
0003F000
0007E000
000FE000
000FC000
001F8000
003F0000
007F0000
007E0000
00FC0000
01F80000
03F80000
03F00000
07E00000
0FC00000
0FC00000
1F800000
3F000000
7E000000
7E000000
FFFFFFC0
FFFFFFE0
FFFFFFE0
7FFFFFC0
ENDCHAR
STARTCHAR braceleft
ENCODING 123
SWIDTH 290 0
DWIDTH 22 0
BBX 20 61 1 -7
BITMAP
000FF0
003FF0
007FF0
007FE0
00FC00
00F800
01F800
01F800
01F800
01F800
01F800
01F800
01F800
01F800
01F800
01F800
01F800
01F800
01F800
01F800
01F800
01F800
01F800
01F800
01F000
03F000
07F000
0FE000
FFC000
FF8000
FF0000
FF8000
FFC000
0FE000
07E000
03F000
01F000
01F000
01F800
01F800
01F800
01F800
01F800
01F800
01F800
01F800
01F800
01F800
01F800
01F800
01F800
01F800
01F800
01F800
01F800
00F800
00FC00
007FE0
007FF0
003FF0
000FF0
ENDCHAR
STARTCHAR bar
ENCODING 124
SWIDTH 222 0
DWIDTH 17 0
BBX 5 71 6 -17
BITMAP
70
F8
F8
F8
F8
F8
F8
F8
F8
F8
F8
F8
F8
F8
F8
F8
F8
F8
F8
F8
F8
F8
F8
F8
F8
F8
F8
F8
F8
F8
F8
F8
F8
F8
F8
F8
F8
F8
F8
F8
F8
F8
F8
F8
F8
F8
F8
F8
F8
F8
F8
F8
F8
F8
F8
F8
F8
F8
F8
F8
F8
F8
F8
F8
F8
F8
F8
F8
F8
F8
70
ENDCHAR
STARTCHAR braceright
ENCODING 125
SWIDTH 290 0
DWIDTH 22 0
BBX 20 61 1 -7
BITMAP
FF0000
FF8000
FFC000
FFE000
03F000
03F000
01F000
01F000
01F000
01F000
01F000
01F000
01F000
01F000
01F000
01F000
01F000
01F000
01F000
01F000
01F000
01F800
01F800
01F800
01F800
00FC00
00FC00
007F00
003FE0
001FF0
000FF0
001FF0
003FE0
007F00
00FC00
00F800
00F800
01F800
01F800
01F800
01F000
01F000
01F000
01F000
01F000
01F000
01F000
01F000
01F000
01F000
01F000
01F000
01F000
01F000
01F000
03F000
03F000
7FE000
FFC000
FF8000
FF0000
ENDCHAR
STARTCHAR asciitilde
ENCODING 126
SWIDTH 656 0
DWIDTH 49 0
BBX 21 6 13 43
BITMAP
0F8038
3FF038
7FFFF8
7FFFF0
F03FE0
600FC0
ENDCHAR
STARTCHAR uni00A0
ENCODING 160
SWIDTH 282 0
DWIDTH 21 0
BBX 1 1 0 0
BITMAP
00
ENDCHAR
STARTCHAR exclamdown
ENCODING 161
SWIDTH 387 0
DWIDTH 29 0
BBX 7 55 13 -14
BITMAP
78
FC
FE
FE
FE
FC
78
00
00
00
00
00
00
00
30
38
38
38
38
38
38
78
78
78
78
78
78
78
78
78
78
78
78
78
7C
7C
7C
7C
7C
7C
7C
7C
7C
7C
FC
FC
FC
FC
FC
FC
FC
FC
FC
FC
78
ENDCHAR
STARTCHAR cent
ENCODING 162
SWIDTH 501 0
DWIDTH 38 0
BBX 29 56 3 -10
BITMAP
00008000
0001C000
0001E000
0001E000
0001E000
0001E000
0001E000
0001E000
0001E000
0003FC00
003FFF80
007FFFE0
01FFFFF0
03FC01F8
07F00078
0FC00010
1F800000
1F800000
3F000000
3E000000
7E000000
7E000000
7C000000
7C000000
FC000000
FC000000
FC000000
FC000000
FC000000
FC000000
FC000000
FC000000
7C000000
7C000000
7C000000
7E000000
3E000000
3F000000
3F000000
1F800000
0FC00010
07E00078
07F803F8
03FFFFF0
00FFFFE0
003FFF80
0007FC00
0001E000
0001E000
0001E000
0001E000
0001E000
0001E000
0001E000
0001E000
0000C000
ENDCHAR
STARTCHAR sterling
ENCODING 163
SWIDTH 663 0
DWIDTH 50 0
BBX 34 52 6 0
BITMAP
0001FFC000
000FFFFC00
003FFFFC00
007FFFFC00
00FF000C00
00FC000000
01F8000000
01F8000000
01F0000000
01F0000000
03F0000000
03F0000000
03F0000000
03F0000000
03F0000000
03F0000000
03F0000000
03F0000000
03F0000000
03F0000000
FFFFFFE000
FFFFFFE000
FFFFFFE000
7FFFFFC000
03F0000000
03F0000000
03F0000000
03F0000000
03F0000000
03F0000000
03F0000000
03F0000000
03F0000000
03F0000000
03F0000000
03F0000000
03F0000000
03F0000000
03F0000000
03F0000000
03F0000000
03F0000000
03F0000000
03F0000000
03F0000000
03F0000000
03F0000000
03F0000000
7FFFFFFFC0
7FFFFFFFC0
7FFFFFFFC0
7FFFFFFFC0
ENDCHAR
STARTCHAR currency
ENCODING 164
SWIDTH 563 0
DWIDTH 42 0
BBX 32 32 5 6
BITMAP
60000007
F00FF80F
F87FFE0F
7DFFFF9F
3FFFFFFE
1FF007FC
0FC001F8
1F8000F8
1F00007C
3E00003C
3C00003E
7C00001E
7C00001F
7800001F
7800001F
7800001F
7800000F
7800001F
7800001F
7800001F
7C00001E
7C00003E
3E00003E
3E00007C
1F00007C
1F8000F8
0FC003F8
1FF80FFC
3FFFFFFE
7CFFFF9F
F83FFE0F
6007E007
ENDCHAR
STARTCHAR yen
ENCODING 165
SWIDTH 567 0
DWIDTH 43 0
BBX 41 52 3 0
BITMAP
700000000700
F80000000F80
FC0000000F80
FE0000001F80
7E0000003F00
7F0000003E00
3F8000007E00
1F800000FC00
1FC00000F800
0FE00001F800
07E00003F000
07F00003F000
03F00007E000
01F8000FC000
01FC000FC000
00FC001F8000
007E001F0000
007F003F0000
003F007E0000
003F807C0000
001FC0FC0000
000FC1F80000
000FE1F00000
0007E3F00000
0003F7E00000
0003FFC00000
0001FFC00000
0000FF800000
1FFFFFFFF800
3FFFFFFFF800
3FFFFFFFF800
1FFFFFFFF800
00007E000000
00007E000000
00007E000000
00007E000000
00007E000000
3FFFFFFFF800
3FFFFFFFF800
3FFFFFFFF800
1FFFFFFFF000
00007E000000
00007E000000
00007E000000
00007E000000
00007E000000
00007E000000
00007E000000
00007E000000
00007E000000
00003E000000
00001C000000
ENDCHAR
STARTCHAR brokenbar
ENCODING 166
SWIDTH 222 0
DWIDTH 17 0
BBX 4 61 6 -6
BITMAP
E0
F0
F0
F0
F0
F0
F0
F0
F0
F0
F0
F0
F0
F0
F0
F0
F0
F0
F0
F0
F0
F0
F0
F0
F0
F0
E0
00
00
00
00
00
00
00
00
00
E0
F0
F0
F0
F0
F0
F0
F0
F0
F0
F0
F0
F0
F0
F0
F0
F0
F0
F0
F0
F0
F0
F0
F0
E0
ENDCHAR
STARTCHAR section
ENCODING 167
SWIDTH 565 0
DWIDTH 42 0
BBX 26 57 8 -1
BITMAP
003FE000
01FFFE00
07FFFF00
0FFFFF80
1FFFFF00
3FF01F00
3F800000
3F000000
7F000000
7E000000
7E000000
7E000000
7F000000
3F000000
3F800000
1FE00000
1FF80000
07FF0000
03FFC000
00FFF000
01FFFC00
07FFFE00
0FC3FF00
1F80FF80
3E003F80
7E001FC0
7C000FC0
FC000FC0
FC000FC0
FC000F80
FC001F80
7E003F00
7F807E00
3FE1FC00
3FFBF000
0FFFE000
07FFE000
00FFF800
003FFE00
0007FF00
0000FF80
00003F80
00001FC0
00000FC0
00000FC0
00000FC0
00000FC0
00000FC0
00001FC0
00003F80
00007F80
F803FF00
FFFFFE00
FFFFFC00
FFFFF800
3FFFE000
03FF0000
ENDCHAR
STARTCHAR dieresis
ENCODING 168
SWIDTH 277 0
DWIDTH 21 0
BBX 21 7 0 44
BITMAP
3C01E0
7E03F0
FE03F8
FE03F8
FE03F8
7E03F0
3C01E0
ENDCHAR
STARTCHAR copyright
ENCODING 169
SWIDTH 805 0
DWIDTH 60 0
BBX 51 48 5 5
BITMAP
00000FFE000000
00007FFFC00000
0003FFFFF80000
000FFFFFFE0000
001FE000FF0000
007F00001FC000
00FC000007E000
01F8000003F000
03E0000001F800
07C000F0007800
07800FFF007C00
0F803FFFE03E00
1F00FFFFF01F00
1E01FE03F00F00
3E01F800600F80
3C03E000000780
3C07C000000780
780780000007C0
780F80000003C0
780F80000003C0
780F00000003C0
F80F00000003C0
F80F00000003E0
F80F00000003E0
F80F00000003E0
F80F00000003E0
F80F00000003C0
780F80000003C0
780F80000003C0
7807C0000003C0
7807C0000007C0
7C03E000000780
3C03F000400780
3E01FC01E00F80
1E00FFFFE00F00
1F003FFFC01F00
0F801FFF803E00
078003FC003C00
07C00000007C00
03E0000001F800
01F8000003F000
00FC000007E000
007F00001FC000
001FE000FF0000
000FFFFFFE0000
0003FFFFF80000
00007FFFC00000
00000FFE000000
ENDCHAR
STARTCHAR ordfeminine
ENCODING 170
SWIDTH 505 0
DWIDTH 38 0
BBX 23 30 5 26
BITMAP
003E00
03FFE0
0FFFF0
1FFFF8
3F80FC
3C003C
10003E
00001E
00001E
00001E
00001E
00001E
003FFE
03FFFE
0FFFFE
1FFFFE
3F801E
7C001E
78001E
F8001E
F0001E
F0003E
F8003E
F8007E
7C00FE
7E01FE
3FFFDE
1FFF9E
0FFE0E
03F800
ENDCHAR
STARTCHAR guillemotleft
ENCODING 171
SWIDTH 562 0
DWIDTH 42 0
BBX 26 31 7 5
BITMAP
00700180
00F003C0
01F007C0
01F00780
03E00F80
03E00F00
07C01F00
07C03E00
0F803E00
0F807E00
1F007C00
1F00FC00
3E00F800
3E01F800
7C01F000
FC03F000
7C01F000
7E01F800
3E00F800
3F00FC00
1F007C00
0F807C00
0F803E00
07C03E00
07C01F00
03E00F00
03E00F80
01F00780
01F007C0
00F003C0
00700180
ENDCHAR
STARTCHAR logicalnot
ENCODING 172
SWIDTH 656 0
DWIDTH 49 0
BBX 37 20 6 9
BITMAP
7FFFFFFFF0
FFFFFFFFF8
FFFFFFFFF8
FFFFFFFFF8
7FFFFFFFF8
0000000078
0000000078
0000000078
0000000078
0000000078
0000000078
0000000078
0000000078
0000000078
0000000078
0000000078
0000000078
0000000078
0000000078
0000000078
ENDCHAR
STARTCHAR uni00AD
ENCODING 173
SWIDTH 335 0
DWIDTH 25 0
BBX 23 4 1 17
BITMAP
3FFFF8
7FFFFE
FFFFFE
7FFFFC
ENDCHAR
STARTCHAR registered
ENCODING 174
SWIDTH 805 0
DWIDTH 60 0
BBX 51 48 5 4
BITMAP
00000FFE000000
0000FFFFC00000
0003FFFFF80000
000FFFFFFE0000
003FE000FF0000
007F00001FC000
00FC000007E000
01F8000003F000
03E0000001F800
07C00000007C00
0F807FFF803E00
0F00FFFFE03E00
1F00FFFFF81F00
3E00FFFFF80F00
3C00F000FC0F80
7C00F0007C0780
7800F0003C07C0
7800F0003C03C0
F800F0003C03C0
F800F0007C03E0
F000F0007C03E0
F000FFFFF803E0
F000FFFFF803E0
F000FFFFE001E0
F000FFFF8001E0
F000F03C0003E0
F000F01E0003E0
F000F01F0003E0
F800F00F0003E0
F800F0078003C0
7800F007C003C0
7800F003C007C0
7C00F001E00780
3C00F001F00F80
3E00F000F80F00
1F00F000781F00
1F00F000783E00
0F800000003E00
07C00000007C00
03E0000000F800
01F0000003F000
00FC000007E000
007F00001FC000
003FE000FF0000
000FFFFFFE0000
0003FFFFF80000
0000FFFFC00000
00000FFE000000
ENDCHAR
STARTCHAR macron
ENCODING 175
SWIDTH 277 0
DWIDTH 21 0
BBX 23 4 -1 46
BITMAP
3FFFF8
FFFFFC
FFFFFE
7FFFFC
ENDCHAR
STARTCHAR degree
ENCODING 176
SWIDTH 399 0
DWIDTH 30 0
BBX 22 22 4 30
BITMAP
007800
03FF00
0FFFC0
1FFFE0
3F03F0
7C00F8
780078
F0003C
F0003C
F0003C
E0001C
E0001C
E0001C
F0003C
F0003C
780078
7C00F8
3E01F0
1FFFE0
0FFFC0
07FF80
00FC00
ENDCHAR
STARTCHAR plusminus
ENCODING 177
SWIDTH 656 0
DWIDTH 49 0
BBX 37 36 6 0
BITMAP
0000700000
0000F80000
0000F80000
0000F80000
0000F80000
0000F80000
0000F80000
0000F80000
0000F80000
0000F80000
0000F80000
0000F80000
7FFFFFFFF0
FFFFFFFFF8
FFFFFFFFF8
FFFFFFFFF8
7FFFFFFFF0
0000F80000
0000F80000
0000F80000
0000F80000
0000F80000
0000F80000
0000F80000
0000F80000
0000F80000
0000F80000
0000F80000
0000700000
0000000000
0000000000
7FFFFFFFF0
FFFFFFFFF8
FFFFFFFFF8
FFFFFFFFF8
7FFFFFFFF0
ENDCHAR
STARTCHAR uni00B2
ENCODING 178
SWIDTH 362 0
DWIDTH 27 0
BBX 20 31 3 21
BITMAP
00FC00
07FF00
1FFFC0
3F07E0
3801E0
0000F0
0000F0
0000F0
0000F0
0000F0
0001E0
0001E0
0003C0
0003C0
000780
000F80
001F00
001E00
003C00
007800
00F000
01E000
03C000
078000
0F0000
1E0000
3C0000
780000
FFFFF0
FFFFF0
7FFFF0
ENDCHAR
STARTCHAR uni00B3
ENCODING 179
SWIDTH 382 0
DWIDTH 29 0
BBX 18 32 6 19
BITMAP
0FE000
7FFC00
FFFE00
F81F00
000780
000780
0003C0
0003C0
0003C0
0003C0
0003C0
000780
000F80
001F00
07FC00
07F000
07FE00
001F00
000780
000380
0003C0
0001C0
0001C0
0001C0
0001C0
0001C0
0003C0
400780
F00F80
FFFF00
3FFC00
07F000
ENDCHAR
STARTCHAR acute
ENCODING 180
SWIDTH 277 0
DWIDTH 21 0
BBX 15 14 2 44
BITMAP
001C
003E
007E
00FE
01FC
03F8
07F0
0FC0
1F80
3F00
7C00
F800
F000
C000
ENDCHAR
STARTCHAR mu
ENCODING 181
SWIDTH 562 0
DWIDTH 42 0
BBX 30 45 6 -9
BITMAP
70000038
F800007C
F800007C
F800007C
F800007C
F800007C
F800007C
F800007C
F800007C
F800007C
F800007C
F800007C
F800007C
F800007C
F800007C
F800007C
F800007C
F800007C
F800007C
F800007C
F800007C
F800007C
F800007C
F800007C
F800007C
F80000FC
F80000FC
FC0000FC
FC0001FC
FE0003FC
FE0007FC
FF000F7C
FFC03F7C
FFFFFE7C
FFFFF87C
FBFFF038
F87F8000
F8000000
F8000000
F8000000
F8000000
F8000000
F8000000
F8000000
70000000
ENDCHAR
STARTCHAR paragraph
ENCODING 182
SWIDTH 647 0
DWIDTH 49 0
BBX 33 63 5 -11
BITMAP
001FFFFF00
00FFFFFF80
03FFFFFF80
0FFFFFFF80
1FFFFFFF80
1FFFF00F80
3FFFF00F80
7FFFF00F80
7FFFF00F80
FFFFF00F80
FFFFF00F80
FFFFF00F80
FFFFF00F80
FFFFF00F80
FFFFF00F80
FFFFF00F80
FFFFF00F80
FFFFF00F80
FFFFF00F80
7FFFF00F80
7FFFF00F80
3FFFF00F80
1FFFF00F80
1FFFF00F80
07FFF00F80
03FFF00F80
01FFF00F80
003FF00F80
0003F00F80
0003F00F80
0003F00F80
0003F00F80
0003F00F80
0003F00F80
0003F00F80
0003F00F80
0003F00F80
0003F00F80
0003F00F80
0003F00F80
0003F00F80
0003F00F80
0003F00F80
0003F00F80
0003F00F80
0003F00F80
0003F00F80
0003F00F80
0003F00F80
0003F00F80
0003F00F80
0003F00F80
0003F00F80
0003F00F80
0003F00F80
0003F00F80
0003F00F80
0003F00F80
0003F00F80
0003F00F80
0003E00F80
0003E00F80
0001C00700
ENDCHAR
STARTCHAR periodcentered
ENCODING 183
SWIDTH 282 0
DWIDTH 21 0
BBX 7 7 6 16
BITMAP
3C
7E
FE
FE
FE
7E
3C
ENDCHAR
STARTCHAR cedilla
ENCODING 184
SWIDTH 277 0
DWIDTH 21 0
BBX 15 14 3 -14
BITMAP
0300
0300
0700
0600
07F0
07FC
007C
003E
003E
003E
803E
FCFC
7FF8
1FE0
ENDCHAR
STARTCHAR uni00B9
ENCODING 185
SWIDTH 334 0
DWIDTH 25 0
BBX 10 30 7 21
BITMAP
01C0
03C0
0FC0
1FC0
7DC0
F1C0
E1C0
01C0
01C0
01C0
01C0
01C0
01C0
01C0
01C0
01C0
01C0
01C0
01C0
01C0
01C0
01C0
01C0
01C0
01C0
01C0
01C0
01C0
01C0
01C0
ENDCHAR
STARTCHAR ordmasculine
ENCODING 186
SWIDTH 549 0
DWIDTH 41 0
BBX 28 30 6 26
BITMAP
000F0000
00FFF000
03FFFC00
07FFFE00
0FE07F00
1F801F80
3F000FC0
3E0007C0
7C0003E0
7C0003E0
780001E0
F80001F0
F80001F0
F80001F0
F00001F0
F00001F0
F80001F0
F80001F0
F80001F0
780001E0
780003E0
7C0003E0
3E0007C0
3E000FC0
1F801F80
1FC03F00
0FFFFF00
03FFFC00
01FFF800
003FC000
ENDCHAR
STARTCHAR guillemotright
ENCODING 187
SWIDTH 562 0
DWIDTH 42 0
BBX 26 31 9 5
BITMAP
60038000
F003C000
F803E000
7803E000
7C01F000
3C01F000
3E00F800
3E00F800
1F007C00
1F807C00
0F803E00
0FC03E00
07C01F00
07E01F80
03E00F80
03F00FC0
03E00F80
07E01F80
07C01F00
0FC03F00
0F803E00
0F807C00
1F007C00
1F00F800
3E00F800
3C01F000
7C01F000
7801E000
F803E000
F003C000
60038000
ENDCHAR
STARTCHAR onequarter
ENCODING 188
SWIDTH 745 0
DWIDTH 56 0
BBX 47 55 6 -3
BITMAP
000000060000
0000000F0000
01C0000F0000
03C0001E0000
0FC0001E0000
3FC0001E0000
7DC0003C0000
F1C0003C0000
E1C0003C0000
01C000780000
01C000780000
01C000780000
01C000F00000
01C000F00000
01C000F00000
01C001E00000
01C001E00000
01C001E00000
01C003C00000
01C003C00000
01C003C00000
01C007800000
01C0078003C0
01C0078007C0
01C00F000FC0
01C00F000FC0
01C01F001DC0
01C01E0039C0
01C01E0039C0
01C03E0071C0
01C03C00E1C0
01C03C01E1C0
00007C01C1C0
0000780381C0
0000780781C0
0000F80701C0
0000F00E01C0
0000F01E01C0
0001E01C01C0
0001E03801C0
0001E07001C0
0003C07001C0
0003C0FFFFFC
0003C0FFFFFE
0007807FFFFE
0007800001C0
0007800001C0
000F000001C0
000F000001C0
000F000001C0
001E000001C0
001E000001C0
001E00000000
003C00000000
001C00000000
ENDCHAR
STARTCHAR onehalf
ENCODING 189
SWIDTH 753 0
DWIDTH 57 0
BBX 46 55 6 -3
BITMAP
000000060000
0000000F0000
01C0000F0000
07C0001E0000
0FC0001E0000
3FC0001E0000
79C0003C0000
F1C0003C0000
C1C0003C0000
01C000780000
01C000780000
01C000780000
01C000F00000
01C000F00000
01C000F00000
01C001E00000
01C001E00000
01C001E00000
01C003C00000
01C003C00000
01C003C00000
01C007803F00
01C00780FFE0
01C00F83FFF0
01C00F07C1F8
01C00F0F007C
01C01F06003C
01C01E00003C
01C01E00003C
01C03E00003C
01C03C00003C
01C03C000038
00007C000078
000078000078
0000780000F0
0000F00001E0
0000F00001E0
0000F00003C0
0001E0000780
0001E0000F00
0001E0001E00
0003C0003E00
0003C0007C00
0003C000F800
00078001F000
00078003E000
000780078000
000F000F0000
000F001E0000
000F001FFFFC
001E001FFFFC
001E001FFFFC
001E00000000
003C00000000
001C00000000
ENDCHAR
STARTCHAR threequarters
ENCODING 190
SWIDTH 772 0
DWIDTH 58 0
BBX 51 55 2 -3
BITMAP
00000000300000
0FF00000780000
7FFC0000780000
FFFF0000F00000
F81F8000F00000
00078000F00000
0003C001E00000
0003C001E00000
0001C001E00000
0001C003C00000
0001C003C00000
0003C003C00000
0003C007800000
00078007800000
001F0007800000
07FE000F000000
07F8000F000000
07FE001F000000
001F001E000000
0007801E000000
0003C03E000000
0001C03C000800
0001E03C003C00
0001E07C007E00
0001E07800FE00
0001E07800FE00
0001C0F801DE00
0003C0F0039E00
F80F80F0039E00
7FFF01E0071E00
3FFE01E00E1E00
07F001E00E1E00
000003C01C1E00
000003C0381E00
000003C0381E00
00000780701E00
00000780E01E00
00000780E01E00
00000F01C01E00
00000F03801E00
00000F03801E00
00001E07001E00
00001E07FFFFC0
00001E0FFFFFE0
00003C07FFFFE0
00003C00001E00
00003C00001E00
00007800001E00
00007800001E00
00007800001E00
0000F000001E00
0000F000000C00
0000F000000000
0001E000000000
0000E000000000
ENDCHAR
STARTCHAR questiondown
ENCODING 191
SWIDTH 502 0
DWIDTH 38 0
BBX 27 52 5 -11
BITMAP
0003C000
0007F000
0007F000
0007F000
0007F000
0007F000
0003E000
00000000
00000000
00000000
00000000
00000000
00000000
00000000
0001E000
0003E000
0003E000
0003E000
0003E000
0003E000
0003E000
0003E000
0007E000
0007E000
000FC000
003F8000
007F0000
00FE0000
01FC0000
07F00000
0FE00000
1FC00000
3F800000
3F000000
7E000000
7C000000
FC000000
FC000000
FC000000
FC000000
FC000000
FC000000
FC000000
FE000000
FE000000
7F000000
7FE01FC0
3FFFFFC0
1FFFFFE0
0FFFFFC0
03FFFF80
007FF000
ENDCHAR
STARTCHAR Agrave
ENCODING 192
SWIDTH 687 0
DWIDTH 52 0
BBX 47 73 2 0
BITMAP
000E00000000
001F00000000
003F80000000
003F80000000
001FC0000000
000FE0000000
0007F0000000
0001F8000000
0000FC000000
00007E000000
00001F000000
00000F800000
000007800000
000001800000
000000000000
000000000000
000000000000
000000000000
000000000000
000000000000
000000000000
000007C00000
00000FE00000
00001FF00000
00001FF80000
00003FF80000
00003FF80000
00003EFC0000
00007EFC0000
00007E7E0000
0000FC7E0000
0000FC3E0000
0001F83F0000
0001F83F0000
0001F81F8000
0003F01F8000
0003F00FC000
0007E00FC000
0007E00FC000
0007E007E000
000FC007E000
000FC003F000
001F8003F000
001F8003F000
001F8001F800
003F0001F800
003F0000FC00
007E0000FC00
007E0000FC00
00FE00007E00
00FC00007E00
00FC00003F00
01F800003F00
01F800003F80
03F800001F80
03FFFFFFFF80
03FFFFFFFFC0
07FFFFFFFFC0
07FFFFFFFFE0
0FC0000007E0
0FC0000007E0
0FC0000003F0
1F80000003F0
1F80000001F8
3F00000001F8
3F00000001F8
3F00000000FC
7E00000000FC
7E000000007E
FC000000007E
FC000000007E
FC000000003E
78000000001C
ENDCHAR
STARTCHAR Aacute
ENCODING 193
SWIDTH 687 0
DWIDTH 52 0
BBX 47 73 2 0
BITMAP
000000007000
00000000F800
00000001F800
00000003F800
00000007F000
0000000FE000
0000001FC000
0000003F0000
0000007E0000
000000FC0000
000001F00000
000003E00000
000003C00000
000003000000
000000000000
000000000000
000000000000
000000000000
000000000000
000000000000
000000000000
000007C00000
00000FE00000
00001FF00000
00001FF80000
00003FF80000
00003FF80000
00003EFC0000
00007EFC0000
00007E7E0000
0000FC7E0000
0000FC3E0000
0001F83F0000
0001F83F0000
0001F81F8000
0003F01F8000
0003F00FC000
0007E00FC000
0007E00FC000
0007E007E000
000FC007E000
000FC003F000
001F8003F000
001F8003F000
001F8001F800
003F0001F800
003F0000FC00
007E0000FC00
007E0000FC00
00FE00007E00
00FC00007E00
00FC00003F00
01F800003F00
01F800003F80
03F800001F80
03FFFFFFFF80
03FFFFFFFFC0
07FFFFFFFFC0
07FFFFFFFFE0
0FC0000007E0
0FC0000007E0
0FC0000003F0
1F80000003F0
1F80000001F8
3F00000001F8
3F00000001F8
3F00000000FC
7E00000000FC
7E000000007E
FC000000007E
FC000000007E
FC000000003E
78000000001C
ENDCHAR
STARTCHAR Acircumflex
ENCODING 194
SWIDTH 687 0
DWIDTH 52 0
BBX 47 73 2 0
BITMAP
000003800000
000007C00000
00000FE00000
00001FF00000
00001FF80000
00003EF80000
00007EFC0000
0000FC7E0000
0000F83E0000
0001F01F0000
0003F01F8000
0003E00F8000
0007C007C000
00078003C000
000300018000
000000000000
000000000000
000000000000
000000000000
000000000000
000000000000
000007C00000
00000FE00000
00001FF00000
00001FF80000
00003FF80000
00003FF80000
00003EFC0000
00007EFC0000
00007E7E0000
0000FC7E0000
0000FC3E0000
0001F83F0000
0001F83F0000
0001F81F8000
0003F01F8000
0003F00FC000
0007E00FC000
0007E00FC000
0007E007E000
000FC007E000
000FC003F000
001F8003F000
001F8003F000
001F8001F800
003F0001F800
003F0000FC00
007E0000FC00
007E0000FC00
00FE00007E00
00FC00007E00
00FC00003F00
01F800003F00
01F800003F80
03F800001F80
03FFFFFFFF80
03FFFFFFFFC0
07FFFFFFFFC0
07FFFFFFFFE0
0FC0000007E0
0FC0000007E0
0FC0000003F0
1F80000003F0
1F80000001F8
3F00000001F8
3F00000001F8
3F00000000FC
7E00000000FC
7E000000007E
FC000000007E
FC000000007E
FC000000003E
78000000001C
ENDCHAR
STARTCHAR Atilde
ENCODING 195
SWIDTH 687 0
DWIDTH 52 0
BBX 47 64 2 0
BITMAP
000038008000
0001FF83C000
0003FFFF8000
0007FFFF8000
000787FF0000
0007007C0000
000000000000
000000000000
000000000000
000000000000
000000000000
000000000000
000007C00000
00000FE00000
00001FF00000
00001FF80000
00003FF80000
00003FF80000
00003EFC0000
00007EFC0000
00007E7E0000
0000FC7E0000
0000FC3E0000
0001F83F0000
0001F83F0000
0001F81F8000
0003F01F8000
0003F00FC000
0007E00FC000
0007E00FC000
0007E007E000
000FC007E000
000FC003F000
001F8003F000
001F8003F000
001F8001F800
003F0001F800
003F0000FC00
007E0000FC00
007E0000FC00
00FE00007E00
00FC00007E00
00FC00003F00
01F800003F00
01F800003F80
03F800001F80
03FFFFFFFF80
03FFFFFFFFC0
07FFFFFFFFC0
07FFFFFFFFE0
0FC0000007E0
0FC0000007E0
0FC0000003F0
1F80000003F0
1F80000001F8
3F00000001F8
3F00000001F8
3F00000000FC
7E00000000FC
7E000000007E
FC000000007E
FC000000007E
FC000000003E
78000000001C
ENDCHAR
STARTCHAR Adieresis
ENCODING 196
SWIDTH 687 0
DWIDTH 52 0
BBX 47 66 2 0
BITMAP
0001E00F0000
0003F01F8000
0007F01FC000
0007F01FC000
0007F01FC000
0003F01F8000
0001E00F0000
000000000000
000000000000
000000000000
000000000000
000000000000
000000000000
000000000000
000007C00000
00000FE00000
00001FF00000
00001FF80000
00003FF80000
00003FF80000
00003EFC0000
00007EFC0000
00007E7E0000
0000FC7E0000
0000FC3E0000
0001F83F0000
0001F83F0000
0001F81F8000
0003F01F8000
0003F00FC000
0007E00FC000
0007E00FC000
0007E007E000
000FC007E000
000FC003F000
001F8003F000
001F8003F000
001F8001F800
003F0001F800
003F0000FC00
007E0000FC00
007E0000FC00
00FE00007E00
00FC00007E00
00FC00003F00
01F800003F00
01F800003F80
03F800001F80
03FFFFFFFF80
03FFFFFFFFC0
07FFFFFFFFC0
07FFFFFFFFE0
0FC0000007E0
0FC0000007E0
0FC0000003F0
1F80000003F0
1F80000001F8
3F00000001F8
3F00000001F8
3F00000000FC
7E00000000FC
7E000000007E
FC000000007E
FC000000007E
FC000000003E
78000000001C
ENDCHAR
STARTCHAR Aring
ENCODING 197
SWIDTH 687 0
DWIDTH 52 0
BBX 47 71 2 0
BITMAP
00000FC00000
00001FF00000
00003FF80000
0000783C0000
0000701C0000
0000601C0000
0000601C0000
0000601C0000
0000701C0000
0000783C0000
00003FF80000
00001FF00000
00000FC00000
000000000000
000000000000
000000000000
000000000000
000000000000
000000000000
000007C00000
00000FE00000
00001FF00000
00001FF80000
00003FF80000
00003FF80000
00003EFC0000
00007EFC0000
00007E7E0000
0000FC7E0000
0000FC3E0000
0001F83F0000
0001F83F0000
0001F81F8000
0003F01F8000
0003F00FC000
0007E00FC000
0007E00FC000
0007E007E000
000FC007E000
000FC003F000
001F8003F000
001F8003F000
001F8001F800
003F0001F800
003F0000FC00
007E0000FC00
007E0000FC00
00FE00007E00
00FC00007E00
00FC00003F00
01F800003F00
01F800003F80
03F800001F80
03FFFFFFFF80
03FFFFFFFFC0
07FFFFFFFFC0
07FFFFFFFFE0
0FC0000007E0
0FC0000007E0
0FC0000003F0
1F80000003F0
1F80000001F8
3F00000001F8
3F00000001F8
3F00000000FC
7E00000000FC
7E000000007E
FC000000007E
FC000000007E
FC000000003E
78000000001C
ENDCHAR
STARTCHAR AE
ENCODING 198
SWIDTH 957 0
DWIDTH 72 0
BBX 68 52 2 0
BITMAP
00000000FFFFFFFFC0
00000001FFFFFFFFE0
00000003FFFFFFFFE0
00000007FFFFFFFFE0
0000000FFFFFFFFFE0
0000000FBE00000000
0000001F3E00000000
0000003F3F00000000
0000003E3F00000000
0000007E3F00000000
0000007C3F00000000
000000F81F00000000
000001F81F00000000
000001F01F80000000
000003E01F80000000
000007E01F80000000
000007C01F80000000
00000FC01F80000000
00001F800F80000000
00001F000FC0000000
00003F000FC0000000
00003E000FC0000000
00007C000FC0000000
0000FC000FFFFFFF80
0000F80007FFFFFFC0
0001F00007FFFFFFC0
0003F00007FFFFFFC0
0003E00007FFFFFFC0
0007E00007E0000000
000FC00007E0000000
000F800003E0000000
001F800003E0000000
001F000003F0000000
003FFFFFFFF0000000
007FFFFFFFF0000000
007FFFFFFFF0000000
00FFFFFFFFF0000000
01FFFFFFFFF0000000
01F8000001F8000000
03F0000001F8000000
07E0000001F8000000
07E0000001F8000000
0FC0000001F8000000
1F80000000F8000000
1F80000000FC000000
3F00000000FC000000
3F00000000FC000000
7E00000000FFFFFFE0
FC00000000FFFFFFF0
FC000000007FFFFFF0
F8000000007FFFFFF0
70000000003FFFFFE0
ENDCHAR
STARTCHAR Ccedilla
ENCODING 199
SWIDTH 659 0
DWIDTH 49 0
BBX 39 66 5 -14
BITMAP
00001FF800
0001FFFF80
0007FFFFE0
001FFFFFF8
003FFFFFFC
00FFF003FC
01FF80007C
03FE000018
03F8000000
07F0000000
0FE0000000
0FC0000000
1FC0000000
1F80000000
3F80000000
3F00000000
7F00000000
7E00000000
7E00000000
7E00000000
FE00000000
FC00000000
FC00000000
FC00000000
FC00000000
FC00000000
FC00000000
FC00000000
FC00000000
FC00000000
FC00000000
FC00000000
FE00000000
FE00000000
7E00000000
7E00000000
7F00000000
7F00000000
3F00000000
3F80000000
1FC0000000
1FC0000000
0FE0000000
0FF0000000
07F800000C
03FE00003E
01FF0000FE
00FFF007FE
007FFFFFFC
001FFFFFF8
000FFFFFE0
0001FFFF00
00003FF800
0000030000
0000070000
0000060000
000007F000
000007FC00
0000007C00
0000003E00
0000003E00
0000003E00
0000803E00
0000FCFC00
00007FF800
00001FE000
ENDCHAR
STARTCHAR Egrave
ENCODING 200
SWIDTH 602 0
DWIDTH 45 0
BBX 33 73 7 0
BITMAP
0700000000
0F80000000
1FC0000000
1FC0000000
0FE0000000
07F0000000
03F8000000
00FC000000
007E000000
003F000000
000F800000
0007C00000
0003C00000
0000C00000
0000000000
0000000000
0000000000
0000000000
0000000000
0000000000
0000000000
7FFFFFFE00
FFFFFFFF00
FFFFFFFF00
FFFFFFFF00
FFFFFFFE00
F800000000
F800000000
F800000000
F800000000
F800000000
F800000000
F800000000
F800000000
F800000000
F800000000
F800000000
F800000000
F800000000
F800000000
F800000000
F800000000
F800000000
F800000000
FFFFFFFC00
FFFFFFFE00
FFFFFFFE00
FFFFFFFE00
FFFFFFFC00
F800000000
F800000000
F800000000
F800000000
F800000000
F800000000
F800000000
F800000000
F800000000
F800000000
F800000000
F800000000
F800000000
F800000000
F800000000
F800000000
F800000000
F800000000
F800000000
FFFFFFFF00
FFFFFFFF80
FFFFFFFF80
FFFFFFFF80
7FFFFFFF00
ENDCHAR
STARTCHAR Eacute
ENCODING 201
SWIDTH 602 0
DWIDTH 45 0
BBX 33 73 7 0
BITMAP
0000007000
000000F800
000001F800
000003F800
000007F000
00000FE000
00001FC000
00003F0000
00007E0000
0000FC0000
0001F00000
0003E00000
0003C00000
0003000000
0000000000
0000000000
0000000000
0000000000
0000000000
0000000000
0000000000
7FFFFFFE00
FFFFFFFF00
FFFFFFFF00
FFFFFFFF00
FFFFFFFE00
F800000000
F800000000
F800000000
F800000000
F800000000
F800000000
F800000000
F800000000
F800000000
F800000000
F800000000
F800000000
F800000000
F800000000
F800000000
F800000000
F800000000
F800000000
FFFFFFFC00
FFFFFFFE00
FFFFFFFE00
FFFFFFFE00
FFFFFFFC00
F800000000
F800000000
F800000000
F800000000
F800000000
F800000000
F800000000
F800000000
F800000000
F800000000
F800000000
F800000000
F800000000
F800000000
F800000000
F800000000
F800000000
F800000000
F800000000
FFFFFFFF00
FFFFFFFF80
FFFFFFFF80
FFFFFFFF80
7FFFFFFF00
ENDCHAR
STARTCHAR Ecircumflex
ENCODING 202
SWIDTH 602 0
DWIDTH 45 0
BBX 33 73 7 0
BITMAP
0001C00000
0003E00000
0007F00000
000FF80000
000FFC0000
001F7C0000
003F7E0000
007E3F0000
007C1F0000
00F80F8000
01F80FC000
01F007C000
03E003E000
03C001E000
018000C000
0000000000
0000000000
0000000000
0000000000
0000000000
0000000000
7FFFFFFE00
FFFFFFFF00
FFFFFFFF00
FFFFFFFF00
FFFFFFFE00
F800000000
F800000000
F800000000
F800000000
F800000000
F800000000
F800000000
F800000000
F800000000
F800000000
F800000000
F800000000
F800000000
F800000000
F800000000
F800000000
F800000000
F800000000
FFFFFFFC00
FFFFFFFE00
FFFFFFFE00
FFFFFFFE00
FFFFFFFC00
F800000000
F800000000
F800000000
F800000000
F800000000
F800000000
F800000000
F800000000
F800000000
F800000000
F800000000
F800000000
F800000000
F800000000
F800000000
F800000000
F800000000
F800000000
F800000000
FFFFFFFF00
FFFFFFFF80
FFFFFFFF80
FFFFFFFF80
7FFFFFFF00
ENDCHAR
STARTCHAR Edieresis
ENCODING 203
SWIDTH 602 0
DWIDTH 45 0
BBX 33 66 7 0
BITMAP
00F0078000
01F80FC000
03F80FE000
03F80FE000
03F80FE000
01F80FC000
00F0078000
0000000000
0000000000
0000000000
0000000000
0000000000
0000000000
0000000000
7FFFFFFE00
FFFFFFFF00
FFFFFFFF00
FFFFFFFF00
FFFFFFFE00
F800000000
F800000000
F800000000
F800000000
F800000000
F800000000
F800000000
F800000000
F800000000
F800000000
F800000000
F800000000
F800000000
F800000000
F800000000
F800000000
F800000000
F800000000
FFFFFFFC00
FFFFFFFE00
FFFFFFFE00
FFFFFFFE00
FFFFFFFC00
F800000000
F800000000
F800000000
F800000000
F800000000
F800000000
F800000000
F800000000
F800000000
F800000000
F800000000
F800000000
F800000000
F800000000
F800000000
F800000000
F800000000
F800000000
F800000000
FFFFFFFF00
FFFFFFFF80
FFFFFFFF80
FFFFFFFF80
7FFFFFFF00
ENDCHAR
STARTCHAR Igrave
ENCODING 204
SWIDTH 284 0
DWIDTH 21 0
BBX 16 73 -2 0
BITMAP
3800
7C00
FE00
FE00
7F00
3F80
1FC0
07E0
03F0
01F8
007C
003E
001E
0006
0000
0000
0000
0000
0000
0000
0000
001C
003E
003F
003F
003F
003F
003F
003F
003F
003F
003F
003F
003F
003F
003F
003F
003F
003F
003F
003F
003F
003F
003F
003F
003F
003F
003F
003F
003F
003F
003F
003F
003F
003F
003F
003F
003F
003F
003F
003F
003F
003F
003F
003F
003F
003F
003F
003F
003F
003F
003E
001C
ENDCHAR
STARTCHAR Iacute
ENCODING 205
SWIDTH 284 0
DWIDTH 21 0
BBX 16 73 8 0
BITMAP
000E
001F
003F
007F
00FE
01FC
03F8
07E0
0FC0
1F80
3E00
7C00
7800
6000
0000
0000
0000
0000
0000
0000
0000
7000
F800
FC00
FC00
FC00
FC00
FC00
FC00
FC00
FC00
FC00
FC00
FC00
FC00
FC00
FC00
FC00
FC00
FC00
FC00
FC00
FC00
FC00
FC00
FC00
FC00
FC00
FC00
FC00
FC00
FC00
FC00
FC00
FC00
FC00
FC00
FC00
FC00
FC00
FC00
FC00
FC00
FC00
FC00
FC00
FC00
FC00
FC00
FC00
FC00
F800
7000
ENDCHAR
STARTCHAR Icircumflex
ENCODING 206
SWIDTH 284 0
DWIDTH 21 0
BBX 21 73 0 0
BITMAP
007000
00F800
01FC00
03FE00
03FF00
07DF00
0FDF80
1F8FC0
1F07C0
3E03E0
7E03F0
7C01F0
F800F8
F00078
600030
000000
000000
000000
000000
000000
000000
007000
00F800
00FC00
00FC00
00FC00
00FC00
00FC00
00FC00
00FC00
00FC00
00FC00
00FC00
00FC00
00FC00
00FC00
00FC00
00FC00
00FC00
00FC00
00FC00
00FC00
00FC00
00FC00
00FC00
00FC00
00FC00
00FC00
00FC00
00FC00
00FC00
00FC00
00FC00
00FC00
00FC00
00FC00
00FC00
00FC00
00FC00
00FC00
00FC00
00FC00
00FC00
00FC00
00FC00
00FC00
00FC00
00FC00
00FC00
00FC00
00FC00
00F800
007000
ENDCHAR
STARTCHAR Idieresis
ENCODING 207
SWIDTH 284 0
DWIDTH 21 0
BBX 21 66 0 0
BITMAP
3C01E0
7E03F0
FE03F8
FE03F8
FE03F8
7E03F0
3C01E0
000000
000000
000000
000000
000000
000000
000000
007000
00F800
00FC00
00FC00
00FC00
00FC00
00FC00
00FC00
00FC00
00FC00
00FC00
00FC00
00FC00
00FC00
00FC00
00FC00
00FC00
00FC00
00FC00
00FC00
00FC00
00FC00
00FC00
00FC00
00FC00
00FC00
00FC00
00FC00
00FC00
00FC00
00FC00
00FC00
00FC00
00FC00
00FC00
00FC00
00FC00
00FC00
00FC00
00FC00
00FC00
00FC00
00FC00
00FC00
00FC00
00FC00
00FC00
00FC00
00FC00
00FC00
00F800
007000
ENDCHAR
STARTCHAR Eth
ENCODING 208
SWIDTH 729 0
DWIDTH 55 0
BBX 50 52 0 0
BITMAP
00FFFFF8000000
01FFFFFF800000
01FFFFFFF00000
01FFFFFFFC0000
01FFFFFFFF0000
01F0001FFF8000
01F00000FFC000
01F000003FE000
01F000000FF000
01F0000003F800
01F0000001FC00
01F0000000FC00
01F0000000FE00
01F00000007E00
01F00000007F00
01F00000003F00
01F00000003F80
01F00000001F80
01F00000001F80
01F00000001F80
01F00000001F80
01F00000001FC0
01F00000001FC0
01F00000000FC0
7FFFF800000FC0
FFFFFC00000FC0
FFFFFC00000FC0
FFFFFC00000FC0
01F00000000FC0
01F00000001FC0
01F00000001FC0
01F00000001F80
01F00000001F80
01F00000001F80
01F00000001F80
01F00000003F80
01F00000003F00
01F00000003F00
01F00000007F00
01F0000000FE00
01F0000000FE00
01F0000001FC00
01F0000003F800
01F0000007F000
01F000001FF000
01F000007FC000
01F00007FF8000
01FFFFFFFF0000
01FFFFFFFC0000
01FFFFFFF00000
01FFFFFF800000
00FFFFF8000000
ENDCHAR
STARTCHAR Ntilde
ENCODING 209
SWIDTH 727 0
DWIDTH 55 0
BBX 41 64 7 0
BITMAP
0000E0020000
0007FE0F0000
000FFFFE0000
001FFFFE0000
001E1FFC0000
001C01F00000
000000000000
000000000000
000000000000
000000000000
000000000000
000000000000
780000000700
FC0000000F80
FE0000001F80
FF0000001F80
FF8000001F80
FF8000001F80
FFC000001F80
FFE000001F80
FFE000001F80
FFF000001F80
FBF800001F80
F9F800001F80
F9FC00001F80
F8FE00001F80
F87E00001F80
F87F00001F80
F83F80001F80
F81F80001F80
F81FC0001F80
F80FE0001F80
F807E0001F80
F807F0001F80
F803F8001F80
F801F8001F80
F800FC001F80
F800FE001F80
F8007F001F80
F8003F001F80
F8003F801F80
F8001FC01F80
F8000FC01F80
F8000FE01F80
F80007F01F80
F80003F01F80
F80003F81F80
F80001FC1F80
F80000FC1F80
F800007E1F80
F800007F1F80
F800003F1F80
F800001F9F80
F800001FDF80
F800000FDF80
F8000007FF80
F8000007FF80
F8000003FF80
F8000001FF80
F8000001FF80
F8000000FF80
F80000007F80
F80000003F00
700000001E00
ENDCHAR
STARTCHAR Ograve
ENCODING 210
SWIDTH 778 0
DWIDTH 58 0
BBX 49 74 5 -1
BITMAP
00070000000000
000F8000000000
001FC000000000
001FC000000000
000FE000000000
0007F000000000
0003F800000000
0000FC00000000
00007E00000000
00003F00000000
00000F80000000
000007C0000000
000003C0000000
000000C0000000
00000000000000
00000000000000
00000000000000
00000000000000
00000000000000
00000000000000
00000000000000
00001FFC000000
0001FFFF800000
0007FFFFF00000
001FFFFFFC0000
007FFFFFFE0000
00FFF007FF0000
01FF8000FF8000
03FE00003FC000
07F800001FE000
07F000000FF000
0FE0000007F000
1FC0000003F800
1FC0000001FC00
3F80000001FC00
3F80000000FC00
3F00000000FE00
7F000000007E00
7E000000007E00
7E000000007F00
7E000000007F00
FE000000003F00
FE000000003F00
FC000000003F00
FC000000003F00
FC000000003F00
FC000000003F00
FC000000003F80
FC000000003F00
FC000000003F00
FC000000003F00
FC000000003F00
FE000000003F00
FE000000003F00
7E000000003F00
7E000000007F00
7E000000007E00
7F000000007E00
3F00000000FE00
3F80000000FC00
3F80000001FC00
1FC0000001FC00
1FC0000003F800
0FE0000007F000
07F000000FF000
07F800001FE000
03FE00003FC000
01FF8000FF8000
00FFF007FF0000
007FFFFFFE0000
001FFFFFFC0000
0007FFFFF00000
0001FFFF800000
00001FFC000000
ENDCHAR
STARTCHAR Oacute
ENCODING 211
SWIDTH 778 0
DWIDTH 58 0
BBX 49 74 5 -1
BITMAP
00000000700000
00000000F80000
00000001F80000
00000003F80000
00000007F00000
0000000FE00000
0000001FC00000
0000003F000000
0000007E000000
000000FC000000
000001F0000000
000003E0000000
000003C0000000
00000300000000
00000000000000
00000000000000
00000000000000
00000000000000
00000000000000
00000000000000
00000000000000
00001FFC000000
0001FFFF800000
0007FFFFF00000
001FFFFFFC0000
007FFFFFFE0000
00FFF007FF0000
01FF8000FF8000
03FE00003FC000
07F800001FE000
07F000000FF000
0FE0000007F000
1FC0000003F800
1FC0000001FC00
3F80000001FC00
3F80000000FC00
3F00000000FE00
7F000000007E00
7E000000007E00
7E000000007F00
7E000000007F00
FE000000003F00
FE000000003F00
FC000000003F00
FC000000003F00
FC000000003F00
FC000000003F00
FC000000003F80
FC000000003F00
FC000000003F00
FC000000003F00
FC000000003F00
FE000000003F00
FE000000003F00
7E000000003F00
7E000000007F00
7E000000007E00
7F000000007E00
3F00000000FE00
3F80000000FC00
3F80000001FC00
1FC0000001FC00
1FC0000003F800
0FE0000007F000
07F000000FF000
07F800001FE000
03FE00003FC000
01FF8000FF8000
00FFF007FF0000
007FFFFFFE0000
001FFFFFFC0000
0007FFFFF00000
0001FFFF800000
00001FFC000000
ENDCHAR
STARTCHAR Ocircumflex
ENCODING 212
SWIDTH 778 0
DWIDTH 58 0
BBX 49 74 5 -1
BITMAP
00000380000000
000007C0000000
00000FE0000000
00001FF0000000
00001FF8000000
00003EF8000000
00007EFC000000
0000FC7E000000
0000F83E000000
0001F01F000000
0003F01F800000
0003E00F800000
0007C007C00000
00078003C00000
00030001800000
00000000000000
00000000000000
00000000000000
00000000000000
00000000000000
00000000000000
00001FFC000000
0001FFFF800000
0007FFFFF00000
001FFFFFFC0000
007FFFFFFE0000
00FFF007FF0000
01FF8000FF8000
03FE00003FC000
07F800001FE000
07F000000FF000
0FE0000007F000
1FC0000003F800
1FC0000001FC00
3F80000001FC00
3F80000000FC00
3F00000000FE00
7F000000007E00
7E000000007E00
7E000000007F00
7E000000007F00
FE000000003F00
FE000000003F00
FC000000003F00
FC000000003F00
FC000000003F00
FC000000003F00
FC000000003F80
FC000000003F00
FC000000003F00
FC000000003F00
FC000000003F00
FE000000003F00
FE000000003F00
7E000000003F00
7E000000007F00
7E000000007E00
7F000000007E00
3F00000000FE00
3F80000000FC00
3F80000001FC00
1FC0000001FC00
1FC0000003F800
0FE0000007F000
07F000000FF000
07F800001FE000
03FE00003FC000
01FF8000FF8000
00FFF007FF0000
007FFFFFFE0000
001FFFFFFC0000
0007FFFFF00000
0001FFFF800000
00001FFC000000
ENDCHAR
STARTCHAR Otilde
ENCODING 213
SWIDTH 778 0
DWIDTH 58 0
BBX 49 65 5 -1
BITMAP
00003800800000
0001FF83C00000
0003FFFF800000
0007FFFF800000
000787FF000000
0007007C000000
00000000000000
00000000000000
00000000000000
00000000000000
00000000000000
00000000000000
00001FFC000000
0001FFFF800000
0007FFFFF00000
001FFFFFFC0000
007FFFFFFE0000
00FFF007FF0000
01FF8000FF8000
03FE00003FC000
07F800001FE000
07F000000FF000
0FE0000007F000
1FC0000003F800
1FC0000001FC00
3F80000001FC00
3F80000000FC00
3F00000000FE00
7F000000007E00
7E000000007E00
7E000000007F00
7E000000007F00
FE000000003F00
FE000000003F00
FC000000003F00
FC000000003F00
FC000000003F00
FC000000003F00
FC000000003F80
FC000000003F00
FC000000003F00
FC000000003F00
FC000000003F00
FE000000003F00
FE000000003F00
7E000000003F00
7E000000007F00
7E000000007E00
7F000000007E00
3F00000000FE00
3F80000000FC00
3F80000001FC00
1FC0000001FC00
1FC0000003F800
0FE0000007F000
07F000000FF000
07F800001FE000
03FE00003FC000
01FF8000FF8000
00FFF007FF0000
007FFFFFFE0000
001FFFFFFC0000
0007FFFFF00000
0001FFFF800000
00001FFC000000
ENDCHAR
STARTCHAR Odieresis
ENCODING 214
SWIDTH 778 0
DWIDTH 58 0
BBX 49 67 5 -1
BITMAP
0000F007800000
0001F80FC00000
0003F80FE00000
0003F80FE00000
0003F80FE00000
0001F80FC00000
0000F007800000
00000000000000
00000000000000
00000000000000
00000000000000
00000000000000
00000000000000
00000000000000
00001FFC000000
0001FFFF800000
0007FFFFF00000
001FFFFFFC0000
007FFFFFFE0000
00FFF007FF0000
01FF8000FF8000
03FE00003FC000
07F800001FE000
07F000000FF000
0FE0000007F000
1FC0000003F800
1FC0000001FC00
3F80000001FC00
3F80000000FC00
3F00000000FE00
7F000000007E00
7E000000007E00
7E000000007F00
7E000000007F00
FE000000003F00
FE000000003F00
FC000000003F00
FC000000003F00
FC000000003F00
FC000000003F00
FC000000003F80
FC000000003F00
FC000000003F00
FC000000003F00
FC000000003F00
FE000000003F00
FE000000003F00
7E000000003F00
7E000000007F00
7E000000007E00
7F000000007E00
3F00000000FE00
3F80000000FC00
3F80000001FC00
1FC0000001FC00
1FC0000003F800
0FE0000007F000
07F000000FF000
07F800001FE000
03FE00003FC000
01FF8000FF8000
00FFF007FF0000
007FFFFFFE0000
001FFFFFFC0000
0007FFFFF00000
0001FFFF800000
00001FFC000000
ENDCHAR
STARTCHAR multiply
ENCODING 215
SWIDTH 656 0
DWIDTH 49 0
BBX 28 28 11 4
BITMAP
000000E0
700001E0
F80003F0
FC0007E0
FE000FC0
7F001F80
3F803F00
1FC07F00
0FE0FE00
07F1FC00
03FBF800
01FFF000
00FFE000
007FC000
003F8000
007FC000
00FFF000
01FFF800
03F9FC00
07F0FE00
0FE07F00
1FC03F80
3F801FC0
7F000FE0
FE0007E0
FC0003E0
F80001C0
60000000
ENDCHAR
STARTCHAR Oslash
ENCODING 216
SWIDTH 779 0
DWIDTH 58 0
BBX 49 60 5 -4
BITMAP
00000000001C00
00000000003C00
00000000007C00
00000000007C00
00001FFC00F800
0001FFFF81F800
0007FFFFF1F000
001FFFFFFFE000
007FFFFFFFE000
00FFF007FFC000
01FF8000FF8000
03FE00003FC000
07F800001FE000
07F000003FF000
0FE000007FF000
1FC00000FFF800
1FC00000F9FC00
3F800001F1FC00
3F800003F0FC00
3F000003E0FE00
7F000007C07E00
7E00000F807E00
7E00000F807F00
7E00001F007F00
FE00003E003F00
FE00003E003F00
FC00007C003F00
FC0000F8003F00
FC0001F8003F00
FC0001F0003F00
FC0003E0003F80
FC0007C0003F00
FC0007C0003F00
FC000F80003F00
FC001F00003F00
FE001F00003F00
FE003E00003F00
7E007C00003F00
7E007C00007F00
7E00F800007E00
7F01F000007E00
3F03E00000FE00
3F83E00000FC00
3F87C00001FC00
1FCF800001FC00
1FCF800003F800
0FFF000007F000
07FE00000FF000
07FE00001FE000
03FE00003FC000
01FF8000FF8000
00FFF007FF0000
01FFFFFFFE0000
03FFFFFFFC0000
07C7FFFFF00000
07C1FFFF800000
0F801FFC000000
1F000000000000
1F000000000000
1E000000000000
ENDCHAR
STARTCHAR Ugrave
ENCODING 217
SWIDTH 726 0
DWIDTH 54 0
BBX 40 74 7 -1
BITMAP
0070000000
00F8000000
01FC000000
01FC000000
00FE000000
007F000000
003F800000
000FC00000
0007E00000
0003F00000
0000F80000
00007C0000
00003C0000
00000C0000
0000000000
0000000000
0000000000
0000000000
0000000000
0000000000
0000000000
780000000E
FC0000001F
FC0000003F
FC0000003F
FC0000003F
FC0000003F
FC0000003F
FC0000003F
FC0000003F
FC0000003F
FC0000003F
FC0000003F
FC0000003F
FC0000003F
FC0000003F
FC0000003F
FC0000003F
FC0000003F
FC0000003F
FC0000003F
FC0000003F
FC0000003F
FC0000003F
FC0000003F
FC0000003F
FC0000003F
FC0000003F
FC0000003F
FC0000003F
FC0000003F
FC0000003F
FC0000003F
FC0000003F
FC0000003F
FC0000003F
FC0000003F
FC0000003F
FC0000003F
FE0000003F
7E0000007F
7E0000007E
7F000000FE
3F800000FE
3F800001FC
1FC00003FC
0FF00007F8
0FFC001FF0
07FF00FFE0
03FFFFFFC0
00FFFFFF80
003FFFFE00
000FFFF800
0001FF8000
ENDCHAR
STARTCHAR Uacute
ENCODING 218
SWIDTH 726 0
DWIDTH 54 0
BBX 40 74 7 -1
BITMAP
0000000700
0000000F80
0000001F80
0000003F80
0000007F00
000000FE00
000001FC00
000003F000
000007E000
00000FC000
00001F0000
00003E0000
00003C0000
0000300000
0000000000
0000000000
0000000000
0000000000
0000000000
0000000000
0000000000
780000000E
FC0000001F
FC0000003F
FC0000003F
FC0000003F
FC0000003F
FC0000003F
FC0000003F
FC0000003F
FC0000003F
FC0000003F
FC0000003F
FC0000003F
FC0000003F
FC0000003F
FC0000003F
FC0000003F
FC0000003F
FC0000003F
FC0000003F
FC0000003F
FC0000003F
FC0000003F
FC0000003F
FC0000003F
FC0000003F
FC0000003F
FC0000003F
FC0000003F
FC0000003F
FC0000003F
FC0000003F
FC0000003F
FC0000003F
FC0000003F
FC0000003F
FC0000003F
FC0000003F
FE0000003F
7E0000007F
7E0000007E
7F000000FE
3F800000FE
3F800001FC
1FC00003FC
0FF00007F8
0FFC001FF0
07FF00FFE0
03FFFFFFC0
00FFFFFF80
003FFFFE00
000FFFF800
0001FF8000
ENDCHAR
STARTCHAR Ucircumflex
ENCODING 219
SWIDTH 726 0
DWIDTH 54 0
BBX 40 74 7 -1
BITMAP
00001C0000
00003E0000
00007F0000
0000FF8000
0000FFC000
0001F7C000
0003F7E000
0007E3F000
0007C1F000
000F80F800
001F80FC00
001F007C00
003E003E00
003C001E00
0018000C00
0000000000
0000000000
0000000000
0000000000
0000000000
0000000000
780000000E
FC0000001F
FC0000003F
FC0000003F
FC0000003F
FC0000003F
FC0000003F
FC0000003F
FC0000003F
FC0000003F
FC0000003F
FC0000003F
FC0000003F
FC0000003F
FC0000003F
FC0000003F
FC0000003F
FC0000003F
FC0000003F
FC0000003F
FC0000003F
FC0000003F
FC0000003F
FC0000003F
FC0000003F
FC0000003F
FC0000003F
FC0000003F
FC0000003F
FC0000003F
FC0000003F
FC0000003F
FC0000003F
FC0000003F
FC0000003F
FC0000003F
FC0000003F
FC0000003F
FE0000003F
7E0000007F
7E0000007E
7F000000FE
3F800000FE
3F800001FC
1FC00003FC
0FF00007F8
0FFC001FF0
07FF00FFE0
03FFFFFFC0
00FFFFFF80
003FFFFE00
000FFFF800
0001FF8000
ENDCHAR
STARTCHAR Udieresis
ENCODING 220
SWIDTH 726 0
DWIDTH 54 0
BBX 40 67 7 -1
BITMAP
000F007800
001F80FC00
003F80FE00
003F80FE00
003F80FE00
001F80FC00
000F007800
0000000000
0000000000
0000000000
0000000000
0000000000
0000000000
0000000000
780000000E
FC0000001F
FC0000003F
FC0000003F
FC0000003F
FC0000003F
FC0000003F
FC0000003F
FC0000003F
FC0000003F
FC0000003F
FC0000003F
FC0000003F
FC0000003F
FC0000003F
FC0000003F
FC0000003F
FC0000003F
FC0000003F
FC0000003F
FC0000003F
FC0000003F
FC0000003F
FC0000003F
FC0000003F
FC0000003F
FC0000003F
FC0000003F
FC0000003F
FC0000003F
FC0000003F
FC0000003F
FC0000003F
FC0000003F
FC0000003F
FC0000003F
FC0000003F
FC0000003F
FE0000003F
7E0000007F
7E0000007E
7F000000FE
3F800000FE
3F800001FC
1FC00003FC
0FF00007F8
0FFC001FF0
07FF00FFE0
03FFFFFFC0
00FFFFFF80
003FFFFE00
000FFFF800
0001FF8000
ENDCHAR
STARTCHAR Yacute
ENCODING 221
SWIDTH 622 0
DWIDTH 47 0
BBX 41 73 3 0
BITMAP
000000038000
00000007C000
0000000FC000
0000001FC000
0000003F8000
0000007F0000
000000FE0000
000001F80000
000003F00000
000007E00000
00000F800000
00001F000000
00001E000000
000018000000
000000000000
000000000000
000000000000
000000000000
000000000000
000000000000
000000000000
700000000700
F80000000F80
FC0000000F80
FE0000001F80
7E0000003F00
7F0000003E00
3F8000007E00
1F800000FC00
1FC00000F800
0FE00001F800
07E00003F000
07F00003E000
03F80007E000
01F8000FC000
01FC000F8000
00FC001F8000
007E003F0000
007F003E0000
003F007E0000
001F80FC0000
001FC0FC0000
000FC1F80000
0007E1F00000
0007F3F00000
0003F7E00000
0001FFC00000
0001FFC00000
0000FF800000
00007F000000
00007F000000
00007E000000
00007E000000
00007E000000
00007E000000
00007E000000
00007E000000
00007E000000
00007E000000
00007E000000
00007E000000
00007E000000
00007E000000
00007E000000
00007E000000
00007E000000
00007E000000
00007E000000
00007E000000
00007E000000
00007E000000
00003E000000
00001C000000
ENDCHAR
STARTCHAR Thorn
ENCODING 222
SWIDTH 619 0
DWIDTH 46 0
BBX 37 52 7 0
BITMAP
7800000000
7C00000000
FC00000000
FC00000000
FC00000000
FC00000000
FC00000000
FFFFFE0000
FFFFFFE000
FFFFFFF800
FFFFFFFE00
FFFFFFFF00
FC0001FF80
FC00003FC0
FC00001FE0
FC00000FF0
FC000007F0
FC000003F0
FC000003F8
FC000003F8
FC000001F8
FC000001F8
FC000001F8
FC000001F8
FC000003F8
FC000003F8
FC000003F0
FC000007F0
FC00000FF0
FC00001FE0
FC00003FC0
FC0003FFC0
FFFFFFFF80
FFFFFFFE00
FFFFFFF800
FFFFFFE000
FFFFFE0000
FC00000000
FC00000000
FC00000000
FC00000000
FC00000000
FC00000000
FC00000000
FC00000000
FC00000000
FC00000000
FC00000000
FC00000000
FC00000000
7C00000000
7800000000
ENDCHAR
STARTCHAR germandbls
ENCODING 223
SWIDTH 620 0
DWIDTH 47 0
BBX 38 54 6 -1
BITMAP
0003E00000
007FFE0000
01FFFF8000
03FFFFE000
07F81FF000
0FC003F000
1F8001F800
3F0000FC00
3F0000FC00
7E00007C00
7E00007C00
7E00007C00
7C0000FC00
7C0000FC00
FC0001FC00
FC0003F800
FC0007F000
FC000FE000
FC001FC000
FC003F8000
FC007F0000
FC007E0000
FC00FC0000
FC00FC0000
FC00FC0000
FC00FC0000
FC00FC0000
FC00FE0000
FC007F0000
FC003FC000
FC001FF000
FC000FFC00
FC0007FE00
FC0001FF80
FC00007FC0
FC00001FE0
FC00000FF0
FC000003F8
FC000001F8
FC000001F8
FC000000FC
FC000000FC
FC000000FC
FC000000FC
FC000000F8
FC018000F8
FC03C001F8
FC07E003F0
FC03F007F0
FC03F81FE0
FC01FFFFC0
F800FFFF80
78007FFE00
00000FF000
ENDCHAR
STARTCHAR agrave
ENCODING 224
SWIDTH 504 0
DWIDTH 38 0
BBX 31 57 2 -1
BITMAP
07000000
0F800000
1FC00000
1FC00000
0FE00000
07F00000
03F80000
00FC0000
007E0000
003F0000
000F8000
0007C000
0003C000
0000C000
00000000
00000000
00000000
00000000
00000000
001FF800
01FFFF00
07FFFFC0
1FFFFFE0
3FC007F0
3F0001F8
180000FC
000000FC
0000007C
0000007C
0000007E
0000007E
0000007E
0000007E
0000007E
0000007E
0000007E
003FFFFE
03FFFFFE
0FFFFFFE
1FFC007E
3F80007E
7E00007E
7E00007E
7C00007E
7C00007E
FC0000FE
FC0000FE
FC0001FE
7C0001FE
7C0003FE
7E0007FE
3F000F7E
3F803E7E
1FFFFC7E
0FFFF87C
03FFF038
007F8000
ENDCHAR
STARTCHAR aacute
ENCODING 225
SWIDTH 504 0
DWIDTH 38 0
BBX 31 57 2 -1
BITMAP
00000070
000000F8
000001F8
000003F8
000007F0
00000FE0
00001FC0
00003F00
00007E00
0000FC00
0001F000
0003E000
0003C000
00030000
00000000
00000000
00000000
00000000
00000000
001FF800
01FFFF00
07FFFFC0
1FFFFFE0
3FC007F0
3F0001F8
180000FC
000000FC
0000007C
0000007C
0000007E
0000007E
0000007E
0000007E
0000007E
0000007E
0000007E
003FFFFE
03FFFFFE
0FFFFFFE
1FFC007E
3F80007E
7E00007E
7E00007E
7C00007E
7C00007E
FC0000FE
FC0000FE
FC0001FE
7C0001FE
7C0003FE
7E0007FE
3F000F7E
3F803E7E
1FFFFC7E
0FFFF87C
03FFF038
007F8000
ENDCHAR
STARTCHAR acircumflex
ENCODING 226
SWIDTH 504 0
DWIDTH 38 0
BBX 31 57 2 -1
BITMAP
0001C000
0003E000
0007F000
000FF800
000FFC00
001F7C00
003F7E00
007E3F00
007C1F00
00F80F80
01F80FC0
01F007C0
03E003E0
03C001E0
018000C0
00000000
00000000
00000000
00000000
001FF800
01FFFF00
07FFFFC0
1FFFFFE0
3FC007F0
3F0001F8
180000FC
000000FC
0000007C
0000007C
0000007E
0000007E
0000007E
0000007E
0000007E
0000007E
0000007E
003FFFFE
03FFFFFE
0FFFFFFE
1FFC007E
3F80007E
7E00007E
7E00007E
7C00007E
7C00007E
FC0000FE
FC0000FE
FC0001FE
7C0001FE
7C0003FE
7E0007FE
3F000F7E
3F803E7E
1FFFFC7E
0FFFF87C
03FFF038
007F8000
ENDCHAR
STARTCHAR atilde
ENCODING 227
SWIDTH 504 0
DWIDTH 38 0
BBX 31 48 2 -1
BITMAP
001C0040
00FFC1E0
01FFFFC0
03FFFFC0
03C3FF80
03803E00
00000000
00000000
00000000
00000000
001FF800
01FFFF00
07FFFFC0
1FFFFFE0
3FC007F0
3F0001F8
180000FC
000000FC
0000007C
0000007C
0000007E
0000007E
0000007E
0000007E
0000007E
0000007E
0000007E
003FFFFE
03FFFFFE
0FFFFFFE
1FFC007E
3F80007E
7E00007E
7E00007E
7C00007E
7C00007E
FC0000FE
FC0000FE
FC0001FE
7C0001FE
7C0003FE
7E0007FE
3F000F7E
3F803E7E
1FFFFC7E
0FFFF87C
03FFF038
007F8000
ENDCHAR
STARTCHAR adieresis
ENCODING 228
SWIDTH 504 0
DWIDTH 38 0
BBX 31 50 2 -1
BITMAP
00F00780
01F80FC0
03F80FE0
03F80FE0
03F80FE0
01F80FC0
00F00780
00000000
00000000
00000000
00000000
00000000
001FF800
01FFFF00
07FFFFC0
1FFFFFE0
3FC007F0
3F0001F8
180000FC
000000FC
0000007C
0000007C
0000007E
0000007E
0000007E
0000007E
0000007E
0000007E
0000007E
003FFFFE
03FFFFFE
0FFFFFFE
1FFC007E
3F80007E
7E00007E
7E00007E
7C00007E
7C00007E
FC0000FE
FC0000FE
FC0001FE
7C0001FE
7C0003FE
7E0007FE
3F000F7E
3F803E7E
1FFFFC7E
0FFFF87C
03FFF038
007F8000
ENDCHAR
STARTCHAR aring
ENCODING 229
SWIDTH 504 0
DWIDTH 38 0
BBX 31 55 2 -1
BITMAP
0007E000
000FF800
001FFC00
003C1E00
00380E00
00300E00
00300E00
00300E00
00380E00
003C1E00
001FFC00
000FF800
0007E000
00000000
00000000
00000000
00000000
001FF800
01FFFF00
07FFFFC0
1FFFFFE0
3FC007F0
3F0001F8
180000FC
000000FC
0000007C
0000007C
0000007E
0000007E
0000007E
0000007E
0000007E
0000007E
0000007E
003FFFFE
03FFFFFE
0FFFFFFE
1FFC007E
3F80007E
7E00007E
7E00007E
7C00007E
7C00007E
FC0000FE
FC0000FE
FC0001FE
7C0001FE
7C0003FE
7E0007FE
3F000F7E
3F803E7E
1FFFFC7E
0FFFF87C
03FFF038
007F8000
ENDCHAR
STARTCHAR ae
ENCODING 230
SWIDTH 826 0
DWIDTH 62 0
BBX 55 38 3 -1
BITMAP
001FF0000FF000
01FFFE007FFE00
07FFFF81FFFF80
1FFFFFC3FFFFC0
3FE01FE7F81FE0
3F0007EFE007F0
3C0001FFC003F0
180001FF8001F8
000000FF0000F8
000000FF0000FC
000000FE00007C
000000FE00007C
000000FC00007C
000000FC00007E
000000FC00007E
0007FFFC00003E
00FFFFFFFFFFFE
03FFFFFFFFFFFE
0FFFFFFFFFFFFE
1FF000FFFFFFFC
3F8000FC000000
7E0000FC000000
7C0000FC000000
FC0000FC000000
F80000FC000000
F80000FC000000
F80001FE000000
F80001FE000000
F80001FF000000
FC0003FF000010
FC0007DF800038
FE000FCFC000FC
7F001F8FE001F8
3FC07F07F80FF0
1FFFFE03FFFFE0
0FFFFC01FFFFC0
07FFF0007FFE00
00FF00001FF000
ENDCHAR
STARTCHAR ccedilla
ENCODING 231
SWIDTH 462 0
DWIDTH 35 0
BBX 29 51 3 -14
BITMAP
0003FC00
003FFF80
007FFFE0
01FFFFF0
03FC01F8
07F00078
0FC00010
1F800000
1F800000
3F000000
3E000000
7E000000
7E000000
7C000000
7C000000
FC000000
FC000000
FC000000
FC000000
FC000000
FC000000
FC000000
FC000000
7C000000
7C000000
7C000000
7E000000
3E000000
3F000000
3F000000
1F800000
0FC00010
07E00078
07F801F8
03FFFFF0
00FFFFE0
003FFF80
0007FC00
00018000
00038000
00030000
0003F800
0003FE00
00003E00
00001F00
00001F00
00001F00
00401F00
007E7E00
003FFC00
000FF000
ENDCHAR
STARTCHAR egrave
ENCODING 232
SWIDTH 551 0
DWIDTH 41 0
BBX 33 58 4 -1
BITMAP
0380000000
07C0000000
0FE0000000
0FE0000000
07F0000000
03F8000000
01FC000000
007E000000
003F000000
001F800000
0007C00000
0003E00000
0001E00000
0000600000
0000000000
0000000000
0000000000
0000000000
0000000000
0000000000
0007FC0000
003FFF8000
00FFFFC000
03FFFFF000
07F803F800
0FE000FC00
1FC0007C00
1F80003E00
3F00003E00
3E00001F00
7E00001F00
7C00000F00
FC00000F80
FC00000F80
F800000F80
F800000780
FFFFFFFF80
FFFFFFFF80
FFFFFFFF80
FFFFFFFF80
F800000000
F800000000
F800000000
F800000000
F800000000
FC00000000
7C00000000
7C00000000
7E00000000
3F00000300
1F00000F00
1F80001F00
0FE0007F00
07F801FC00
03FFFFF800
00FFFFF000
003FFFC000
0007FC0000
ENDCHAR
STARTCHAR eacute
ENCODING 233
SWIDTH 551 0
DWIDTH 41 0
BBX 33 58 4 -1
BITMAP
0000003800
0000007C00
000000FC00
000001FC00
000003F800
000007F000
00000FE000
00001F8000
00003F0000
00007E0000
0000F80000
0001F00000
0001E00000
0001800000
0000000000
0000000000
0000000000
0000000000
0000000000
0000000000
0007FC0000
003FFF8000
00FFFFC000
03FFFFF000
07F803F800
0FE000FC00
1FC0007C00
1F80003E00
3F00003E00
3E00001F00
7E00001F00
7C00000F00
FC00000F80
FC00000F80
F800000F80
F800000780
FFFFFFFF80
FFFFFFFF80
FFFFFFFF80
FFFFFFFF80
F800000000
F800000000
F800000000
F800000000
F800000000
FC00000000
7C00000000
7C00000000
7E00000000
3F00000300
1F00000F00
1F80001F00
0FE0007F00
07F801FC00
03FFFFF800
00FFFFF000
003FFFC000
0007FC0000
ENDCHAR
STARTCHAR ecircumflex
ENCODING 234
SWIDTH 551 0
DWIDTH 41 0
BBX 33 58 4 -1
BITMAP
0001C00000
0003E00000
0007F00000
000FF80000
000FFC0000
001F7C0000
003F7E0000
007E3F0000
007C1F0000
00F80F8000
01F80FC000
01F007C000
03E003E000
03C001E000
018000C000
0000000000
0000000000
0000000000
0000000000
0000000000
0007FC0000
003FFF8000
00FFFFC000
03FFFFF000
07F803F800
0FE000FC00
1FC0007C00
1F80003E00
3F00003E00
3E00001F00
7E00001F00
7C00000F00
FC00000F80
FC00000F80
F800000F80
F800000780
FFFFFFFF80
FFFFFFFF80
FFFFFFFF80
FFFFFFFF80
F800000000
F800000000
F800000000
F800000000
F800000000
FC00000000
7C00000000
7C00000000
7E00000000
3F00000300
1F00000F00
1F80001F00
0FE0007F00
07F801FC00
03FFFFF800
00FFFFF000
003FFFC000
0007FC0000
ENDCHAR
STARTCHAR edieresis
ENCODING 235
SWIDTH 551 0
DWIDTH 41 0
BBX 33 51 4 -1
BITMAP
007803C000
00FC07E000
01FC07F000
01FC07F000
01FC07F000
00FC07E000
007803C000
0000000000
0000000000
0000000000
0000000000
0000000000
0000000000
0007FC0000
003FFF8000
00FFFFC000
03FFFFF000
07F803F800
0FE000FC00
1FC0007C00
1F80003E00
3F00003E00
3E00001F00
7E00001F00
7C00000F00
FC00000F80
FC00000F80
F800000F80
F800000780
FFFFFFFF80
FFFFFFFF80
FFFFFFFF80
FFFFFFFF80
F800000000
F800000000
F800000000
F800000000
F800000000
FC00000000
7C00000000
7C00000000
7E00000000
3F00000300
1F00000F00
1F80001F00
0FE0007F00
07F801FC00
03FFFFF800
00FFFFF000
003FFFC000
0007FC0000
ENDCHAR
STARTCHAR igrave
ENCODING 236
SWIDTH 228 0
DWIDTH 17 0
BBX 16 56 -5 0
BITMAP
3800
7C00
FE00
FE00
7F00
3F80
1FC0
07E0
03F0
01F8
007C
003E
001E
0006
0000
0000
0000
0000
0000
0000
000E
001F
001F
001F
001F
001F
001F
001F
001F
001F
001F
001F
001F
001F
001F
001F
001F
001F
001F
001F
001F
001F
001F
001F
001F
001F
001F
001F
001F
001F
001F
001F
001F
001F
001F
000E
ENDCHAR
STARTCHAR iacute
ENCODING 237
SWIDTH 228 0
DWIDTH 17 0
BBX 15 56 6 0
BITMAP
001C
003E
007E
00FE
01FC
03F8
07F0
0FC0
1F80
3F00
7C00
F800
F000
C000
0000
0000
0000
0000
0000
0000
7000
F800
F800
F800
F800
F800
F800
F800
F800
F800
F800
F800
F800
F800
F800
F800
F800
F800
F800
F800
F800
F800
F800
F800
F800
F800
F800
F800
F800
F800
F800
F800
F800
F800
F800
7000
ENDCHAR
STARTCHAR icircumflex
ENCODING 238
SWIDTH 228 0
DWIDTH 17 0
BBX 21 56 -2 0
BITMAP
007000
00F800
01FC00
03FE00
03FF00
07DF00
0FDF80
1F8FC0
1F07C0
3E03E0
7E03F0
7C01F0
F800F8
F00078
600030
000000
000000
000000
000000
000000
007000
00F800
00F800
00F800
00F800
00F800
00F800
00F800
00F800
00F800
00F800
00F800
00F800
00F800
00F800
00F800
00F800
00F800
00F800
00F800
00F800
00F800
00F800
00F800
00F800
00F800
00F800
00F800
00F800
00F800
00F800
00F800
00F800
00F800
00F800
007000
ENDCHAR
STARTCHAR idieresis
ENCODING 239
SWIDTH 228 0
DWIDTH 17 0
BBX 21 49 -2 0
BITMAP
3C01E0
7E03F0
FE03F8
FE03F8
FE03F8
7E03F0
3C01E0
000000
000000
000000
000000
000000
000000
007000
00F800
00F800
00F800
00F800
00F800
00F800
00F800
00F800
00F800
00F800
00F800
00F800
00F800
00F800
00F800
00F800
00F800
00F800
00F800
00F800
00F800
00F800
00F800
00F800
00F800
00F800
00F800
00F800
00F800
00F800
00F800
00F800
00F800
00F800
007000
ENDCHAR
STARTCHAR eth
ENCODING 240
SWIDTH 565 0
DWIDTH 42 0
BBX 42 57 3 -1
BITMAP
000003800000
000007E00000
000007F00000
000007F00000
000003F80000
000001FC0000
000001FC0000
000000FE0000
0000007E0000
0000007F0000
0000003F0000
0000003F0000
0000003F8000
00001FFFFF80
00003FFFFFC0
00003FFFFFC0
00001FFFFF80
0000000FE000
00000007E000
00000007E000
00000007E000
00000007E000
00000007E000
00000007F000
000FF807F000
007FFF07F000
01FFFF83F000
03FFFFE3F000
07F807F3F000
0FE001F3F000
1FC0007BF000
3F80003FF000
3F00001FF000
7F00001FF000
7E00000FF000
7E00000FF000
7E000007F000
FE000007F000
FC000007F000
FC000007F000
FC000007F000
FC000007E000
FE000007E000
7E000007E000
7E00000FE000
7E00000FC000
7F00001FC000
3F00001F8000
3F80003F8000
1FC0007F0000
1FF001FF0000
0FFC07FE0000
07FFFFFC0000
03FFFFF80000
00FFFFE00000
007FFF800000
0007FC000000
ENDCHAR
STARTCHAR ntilde
ENCODING 241
SWIDTH 559 0
DWIDTH 42 0
BBX 31 47 6 0
BITMAP
001C0040
00FFC1E0
01FFFFC0
03FFFFC0
03C3FF80
03803E00
00000000
00000000
00000000
00000000
0007FC00
701FFF00
F87FFFC0
F8FFFFE0
F9F00FF0
FBC003F8
FB8001F8
FF0000F8
FE0000FC
FE00007C
FC00007C
FC00007C
FC00007C
F800007E
F800007E
F800007E
F800007E
F800007E
F800007E
F800007E
F800007E
F800007E
F800007E
F800007E
F800007E
F800007E
F800007E
F800007E
F800007E
F800007E
F800007E
F800007E
F800007E
F800007E
F800007E
F800007C
70000038
ENDCHAR
STARTCHAR ograve
ENCODING 242
SWIDTH 553 0
DWIDTH 41 0
BBX 36 58 3 -1
BITMAP
0380000000
07C0000000
0FE0000000
0FE0000000
07F0000000
03F8000000
01FC000000
007E000000
003F000000
001F800000
0007C00000
0003E00000
0001E00000
0000600000
0000000000
0000000000
0000000000
0000000000
0000000000
0000000000
0003FE0000
003FFFC000
007FFFF000
01FFFFF800
03FC01FC00
07F0007E00
0FC0003F00
1F80001F80
1F00000FC0
3F00000FC0
3E000007E0
7E000007E0
7C000003E0
7C000003F0
7C000003F0
FC000003F0
FC000001F0
FC000001F0
FC000001F0
FC000001F0
FC000001F0
FC000001F0
FC000003F0
7C000003F0
7C000003F0
7C000003E0
7E000007E0
3E000007E0
3F000007C0
1F00000FC0
1F80001F80
0FC0003F00
07E0007E00
03F801FC00
01FFFFF800
00FFFFF000
003FFFC000
0003FE0000
ENDCHAR
STARTCHAR oacute
ENCODING 243
SWIDTH 553 0
DWIDTH 41 0
BBX 36 58 3 -1
BITMAP
0000001C00
0000003E00
0000007E00
000000FE00
000001FC00
000003F800
000007F000
00000FC000
00001F8000
00003F0000
00007C0000
0000F80000
0000F00000
0000C00000
0000000000
0000000000
0000000000
0000000000
0000000000
0000000000
0003FE0000
003FFFC000
007FFFF000
01FFFFF800
03FC01FC00
07F0007E00
0FC0003F00
1F80001F80
1F00000FC0
3F00000FC0
3E000007E0
7E000007E0
7C000003E0
7C000003F0
7C000003F0
FC000003F0
FC000001F0
FC000001F0
FC000001F0
FC000001F0
FC000001F0
FC000001F0
FC000003F0
7C000003F0
7C000003F0
7C000003E0
7E000007E0
3E000007E0
3F000007C0
1F00000FC0
1F80001F80
0FC0003F00
07E0007E00
03F801FC00
01FFFFF800
00FFFFF000
003FFFC000
0003FE0000
ENDCHAR
STARTCHAR ocircumflex
ENCODING 244
SWIDTH 553 0
DWIDTH 41 0
BBX 36 58 3 -1
BITMAP
0000E00000
0001F00000
0003F80000
0007FC0000
0007FE0000
000FBE0000
001FBF0000
003F1F8000
003E0F8000
007C07C000
00FC07E000
00F803E000
01F001F000
01E000F000
00C0006000
0000000000
0000000000
0000000000
0000000000
0000000000
0003FE0000
003FFFC000
007FFFF000
01FFFFF800
03FC01FC00
07F0007E00
0FC0003F00
1F80001F80
1F00000FC0
3F00000FC0
3E000007E0
7E000007E0
7C000003E0
7C000003F0
7C000003F0
FC000003F0
FC000001F0
FC000001F0
FC000001F0
FC000001F0
FC000001F0
FC000001F0
FC000003F0
7C000003F0
7C000003F0
7C000003E0
7E000007E0
3E000007E0
3F000007C0
1F00000FC0
1F80001F80
0FC0003F00
07E0007E00
03F801FC00
01FFFFF800
00FFFFF000
003FFFC000
0003FE0000
ENDCHAR
STARTCHAR otilde
ENCODING 245
SWIDTH 553 0
DWIDTH 41 0
BBX 36 49 3 -1
BITMAP
000E002000
007FE0F000
00FFFFE000
01FFFFE000
01E1FFC000
01C01F0000
0000000000
0000000000
0000000000
0000000000
0000000000
0003FE0000
003FFFC000
007FFFF000
01FFFFF800
03FC01FC00
07F0007E00
0FC0003F00
1F80001F80
1F00000FC0
3F00000FC0
3E000007E0
7E000007E0
7C000003E0
7C000003F0
7C000003F0
FC000003F0
FC000001F0
FC000001F0
FC000001F0
FC000001F0
FC000001F0
FC000001F0
FC000003F0
7C000003F0
7C000003F0
7C000003E0
7E000007E0
3E000007E0
3F000007C0
1F00000FC0
1F80001F80
0FC0003F00
07E0007E00
03F801FC00
01FFFFF800
00FFFFF000
003FFFC000
0003FE0000
ENDCHAR
STARTCHAR odieresis
ENCODING 246
SWIDTH 553 0
DWIDTH 41 0
BBX 36 51 3 -1
BITMAP
007803C000
00FC07E000
01FC07F000
01FC07F000
01FC07F000
00FC07E000
007803C000
0000000000
0000000000
0000000000
0000000000
0000000000
0000000000
0003FE0000
003FFFC000
007FFFF000
01FFFFF800
03FC01FC00
07F0007E00
0FC0003F00
1F80001F80
1F00000FC0
3F00000FC0
3E000007E0
7E000007E0
7C000003E0
7C000003F0
7C000003F0
FC000003F0
FC000001F0
FC000001F0
FC000001F0
FC000001F0
FC000001F0
FC000001F0
FC000003F0
7C000003F0
7C000003F0
7C000003E0
7E000007E0
3E000007E0
3F000007C0
1F00000FC0
1F80001F80
0FC0003F00
07E0007E00
03F801FC00
01FFFFF800
00FFFFF000
003FFFC000
0003FE0000
ENDCHAR
STARTCHAR divide
ENCODING 247
SWIDTH 656 0
DWIDTH 49 0
BBX 38 38 6 0
BITMAP
0000780000
0001FC0000
0001FC0000
0001FC0000
0001FC0000
0000F80000
0000000000
0000000000
0000000000
0000000000
0000000000
0000000000
0000000000
0000000000
0000000000
0000000000
0000000000
7FFFFFFFF8
FFFFFFFFFC
FFFFFFFFFC
FFFFFFFFFC
FFFFFFFFF8
0000000000
0000000000
0000000000
0000000000
0000000000
0000000000
0000000000
0000000000
0000000000
0000780000
0000FC0000
0001FC0000
0001FC0000
0001FC0000
0000FC0000
0000780000
ENDCHAR
STARTCHAR oslash
ENCODING 248
SWIDTH 553 0
DWIDTH 41 0
BBX 36 50 3 -7
BITMAP
0000007000
000000F800
000000F800
000000F800
000001F000
000001F000
0003FFF000
003FFFE000
007FFFF000
01FFFFF800
03FC07FC00
07F007FE00
0FC00FBF00
1F800F9F80
1F000F8FC0
3F001F0FC0
3E001F07E0
7E001F07E0
7C003E03E0
7C003E03F0
7C003E03F0
FC007C03F0
FC007C01F0
FC00F801F0
FC00F801F0
FC00F801F0
FC01F001F0
FC01F001F0
FC01F003F0
7C03E003F0
7C03E003F0
7C03E003E0
7E07C007E0
3E07C007E0
3F078007C0
1F0F800FC0
1F8F801F80
0FDF003F00
07FF007E00
03FF01FC00
01FFFFF800
00FFFFF000
003FFFC000
007FFE0000
007C000000
0078000000
00F8000000
00F8000000
00F0000000
0070000000
ENDCHAR
STARTCHAR ugrave
ENCODING 249
SWIDTH 559 0
DWIDTH 42 0
BBX 31 58 5 -1
BITMAP
0E000000
1F000000
3F800000
3F800000
1FC00000
0FE00000
07F00000
01F80000
00FC0000
007E0000
001F0000
000F8000
00078000
00018000
00000000
00000000
00000000
00000000
00000000
00000000
00000000
7800001C
7C00003E
FC00003E
FC00003E
FC00003E
FC00003E
FC00003E
FC00003E
FC00003E
FC00003E
FC00003E
FC00003E
FC00003E
FC00003E
FC00003E
FC00003E
FC00003E
FC00003E
FC00003E
FC00003E
FC00003E
FC00003E
FC00003E
FC00007E
FC00007E
7C00007E
7C00007E
7C0000FE
7E0000FE
7E0001FE
3F0003BE
3F8007BE
1FE01F3E
0FFFFE3E
07FFFC3E
01FFF01C
007FC000
ENDCHAR
STARTCHAR uacute
ENCODING 250
SWIDTH 559 0
DWIDTH 42 0
BBX 31 58 5 -1
BITMAP
000000E0
000001F0
000003F0
000007F0
00000FE0
00001FC0
00003F80
00007E00
0000FC00
0001F800
0003E000
0007C000
00078000
00060000
00000000
00000000
00000000
00000000
00000000
00000000
00000000
7800001C
7C00003E
FC00003E
FC00003E
FC00003E
FC00003E
FC00003E
FC00003E
FC00003E
FC00003E
FC00003E
FC00003E
FC00003E
FC00003E
FC00003E
FC00003E
FC00003E
FC00003E
FC00003E
FC00003E
FC00003E
FC00003E
FC00003E
FC00007E
FC00007E
7C00007E
7C00007E
7C0000FE
7E0000FE
7E0001FE
3F0003BE
3F8007BE
1FE01F3E
0FFFFE3E
07FFFC3E
01FFF01C
007FC000
ENDCHAR
STARTCHAR ucircumflex
ENCODING 251
SWIDTH 559 0
DWIDTH 42 0
BBX 31 58 5 -1
BITMAP
00038000
0007C000
000FE000
001FF000
001FF800
003EF800
007EFC00
00FC7E00
00F83E00
01F01F00
03F01F80
03E00F80
07C007C0
078003C0
03000180
00000000
00000000
00000000
00000000
00000000
00000000
7800001C
7C00003E
FC00003E
FC00003E
FC00003E
FC00003E
FC00003E
FC00003E
FC00003E
FC00003E
FC00003E
FC00003E
FC00003E
FC00003E
FC00003E
FC00003E
FC00003E
FC00003E
FC00003E
FC00003E
FC00003E
FC00003E
FC00003E
FC00007E
FC00007E
7C00007E
7C00007E
7C0000FE
7E0000FE
7E0001FE
3F0003BE
3F8007BE
1FE01F3E
0FFFFE3E
07FFFC3E
01FFF01C
007FC000
ENDCHAR
STARTCHAR udieresis
ENCODING 252
SWIDTH 559 0
DWIDTH 42 0
BBX 31 51 5 -1
BITMAP
01E00F00
03F01F80
07F01FC0
07F01FC0
07F01FC0
03F01F80
01E00F00
00000000
00000000
00000000
00000000
00000000
00000000
00000000
7800001C
7C00003E
FC00003E
FC00003E
FC00003E
FC00003E
FC00003E
FC00003E
FC00003E
FC00003E
FC00003E
FC00003E
FC00003E
FC00003E
FC00003E
FC00003E
FC00003E
FC00003E
FC00003E
FC00003E
FC00003E
FC00003E
FC00003E
FC00007E
FC00007E
7C00007E
7C00007E
7C0000FE
7E0000FE
7E0001FE
3F0003BE
3F8007BE
1FE01F3E
0FFFFE3E
07FFFC3E
01FFF01C
007FC000
ENDCHAR
STARTCHAR yacute
ENCODING 253
SWIDTH 499 0
DWIDTH 37 0
BBX 34 70 3 -14
BITMAP
0000003800
0000007C00
000000FC00
000001FC00
000003F800
000007F000
00000FE000
00001F8000
00003F0000
00007E0000
0000F80000
0001F00000
0001E00000
0001800000
0000000000
0000000000
0000000000
0000000000
0000000000
0000000000
7000000380
F8000007C0
FC000007C0
FC00000FC0
7C00000F80
7E00001F80
3E00001F00
3F00003F00
1F00003E00
1F80007E00
1F80007E00
0FC0007C00
0FC000FC00
07E000F800
07E001F800
03E001F000
03F003F000
01F003E000
01F807E000
00F807C000
00FC0FC000
007C0F8000
007E0F8000
003E1F8000
003F1F0000
003F3F0000
001FBE0000
001FFE0000
000FFC0000
000FFC0000
0007F80000
0007F80000
0003F00000
0003F00000
0003F00000
0003E00000
0007E00000
0007C00000
000FC00000
000F800000
001F800000
001F000000
003F000000
003E000000
007E000000
007C000000
00FC000000
00FC000000
00F8000000
0070000000
ENDCHAR
STARTCHAR thorn
ENCODING 254
SWIDTH 561 0
DWIDTH 42 0
BBX 34 65 5 -13
BITMAP
7000000000
F800000000
F800000000
F800000000
F800000000
F800000000
F800000000
F800000000
F800000000
F800000000
F800000000
F800000000
F800000000
F800000000
F800000000
F803FC0000
F80FFF8000
F83FFFE000
F8FFFFF000
F9FC0FF800
FBE001FC00
FBC000FE00
FF80007E00
FF00003F00
FE00003F00
FE00001F80
FE00001F80
FC00001F80
FC00000F80
FC00000FC0
FC00000FC0
FC00000FC0
F800000FC0
F800000FC0
F800000FC0
FC00000FC0
FC00000FC0
FC00000FC0
FC00000F80
FC00000F80
FC00001F80
FE00001F80
FE00001F00
FF00003F00
FF00003F00
FF80007E00
FBC000FE00
FBE001FC00
F9FC07F800
F8FFFFF000
F83FFFE000
F81FFF8000
F803FE0000
F800000000
F800000000
F800000000
F800000000
F800000000
F800000000
F800000000
F800000000
F800000000
F800000000
F800000000
7000000000
ENDCHAR
STARTCHAR ydieresis
ENCODING 255
SWIDTH 499 0
DWIDTH 37 0
BBX 34 63 3 -14
BITMAP
007803C000
00FC07E000
01FC07F000
01FC07F000
01FC07F000
00FC07E000
007803C000
0000000000
0000000000
0000000000
0000000000
0000000000
0000000000
7000000380
F8000007C0
FC000007C0
FC00000FC0
7C00000F80
7E00001F80
3E00001F00
3F00003F00
1F00003E00
1F80007E00
1F80007E00
0FC0007C00
0FC000FC00
07E000F800
07E001F800
03E001F000
03F003F000
01F003E000
01F807E000
00F807C000
00FC0FC000
007C0F8000
007E0F8000
003E1F8000
003F1F0000
003F3F0000
001FBE0000
001FFE0000
000FFC0000
000FFC0000
0007F80000
0007F80000
0003F00000
0003F00000
0003F00000
0003E00000
0007E00000
0007C00000
000FC00000
000F800000
001F800000
001F000000
003F000000
003E000000
007E000000
007C000000
00FC000000
00FC000000
00F8000000
0070000000
ENDCHAR
STARTCHAR Amacron
ENCODING 256
SWIDTH 687 0
DWIDTH 52 0
BBX 47 64 2 0
BITMAP
0003FFFF8000
000FFFFFC000
000FFFFFE000
0007FFFFC000
000000000000
000000000000
000000000000
000000000000
000000000000
000000000000
000000000000
000000000000
000007C00000
00000FE00000
00001FF00000
00001FF80000
00003FF80000
00003FF80000
00003EFC0000
00007EFC0000
00007E7E0000
0000FC7E0000
0000FC3E0000
0001F83F0000
0001F83F0000
0001F81F8000
0003F01F8000
0003F00FC000
0007E00FC000
0007E00FC000
0007E007E000
000FC007E000
000FC003F000
001F8003F000
001F8003F000
001F8001F800
003F0001F800
003F0000FC00
007E0000FC00
007E0000FC00
00FE00007E00
00FC00007E00
00FC00003F00
01F800003F00
01F800003F80
03F800001F80
03FFFFFFFF80
03FFFFFFFFC0
07FFFFFFFFC0
07FFFFFFFFE0
0FC0000007E0
0FC0000007E0
0FC0000003F0
1F80000003F0
1F80000001F8
3F00000001F8
3F00000001F8
3F00000000FC
7E00000000FC
7E000000007E
FC000000007E
FC000000007E
FC000000003E
78000000001C
ENDCHAR
STARTCHAR amacron
ENCODING 257
SWIDTH 504 0
DWIDTH 38 0
BBX 31 49 2 -1
BITMAP
01FFFFC0
07FFFFE0
07FFFFF0
03FFFFE0
00000000
00000000
00000000
00000000
00000000
00000000
00000000
001FF800
01FFFF00
07FFFFC0
1FFFFFE0
3FC007F0
3F0001F8
180000FC
000000FC
0000007C
0000007C
0000007E
0000007E
0000007E
0000007E
0000007E
0000007E
0000007E
003FFFFE
03FFFFFE
0FFFFFFE
1FFC007E
3F80007E
7E00007E
7E00007E
7C00007E
7C00007E
FC0000FE
FC0000FE
FC0001FE
7C0001FE
7C0003FE
7E0007FE
3F000F7E
3F803E7E
1FFFFC7E
0FFFF87C
03FFF038
007F8000
ENDCHAR
STARTCHAR Abreve
ENCODING 258
SWIDTH 687 0
DWIDTH 52 0
BBX 47 69 2 0
BITMAP
000380038000
000380078000
0003C0078000
0003F01F0000
0001FFFF0000
0000FFFE0000
00007FF80000
00000FE00000
000000000000
000000000000
000000000000
000000000000
000000000000
000000000000
000000000000
000000000000
000000000000
000007C00000
00000FE00000
00001FF00000
00001FF80000
00003FF80000
00003FF80000
00003EFC0000
00007EFC0000
00007E7E0000
0000FC7E0000
0000FC3E0000
0001F83F0000
0001F83F0000
0001F81F8000
0003F01F8000
0003F00FC000
0007E00FC000
0007E00FC000
0007E007E000
000FC007E000
000FC003F000
001F8003F000
001F8003F000
001F8001F800
003F0001F800
003F0000FC00
007E0000FC00
007E0000FC00
00FE00007E00
00FC00007E00
00FC00003F00
01F800003F00
01F800003F80
03F800001F80
03FFFFFFFF80
03FFFFFFFFC0
07FFFFFFFFC0
07FFFFFFFFE0
0FC0000007E0
0FC0000007E0
0FC0000003F0
1F80000003F0
1F80000001F8
3F00000001F8
3F00000001F8
3F00000000FC
7E00000000FC
7E000000007E
FC000000007E
FC000000007E
FC000000003E
78000000001C
ENDCHAR
STARTCHAR abreve
ENCODING 259
SWIDTH 504 0
DWIDTH 38 0
BBX 31 53 2 -1
BITMAP
01C001C0
01C003C0
01E003C0
01F80F80
00FFFF80
007FFF00
003FFC00
0007F000
00000000
00000000
00000000
00000000
00000000
00000000
00000000
001FF800
01FFFF00
07FFFFC0
1FFFFFE0
3FC007F0
3F0001F8
180000FC
000000FC
0000007C
0000007C
0000007E
0000007E
0000007E
0000007E
0000007E
0000007E
0000007E
003FFFFE
03FFFFFE
0FFFFFFE
1FFC007E
3F80007E
7E00007E
7E00007E
7C00007E
7C00007E
FC0000FE
FC0000FE
FC0001FE
7C0001FE
7C0003FE
7E0007FE
3F000F7E
3F803E7E
1FFFFC7E
0FFFF87C
03FFF038
007F8000
ENDCHAR
STARTCHAR Aogonek
ENCODING 260
SWIDTH 687 0
DWIDTH 52 0
BBX 51 67 2 -15
BITMAP
000007C0000000
00000FE0000000
00001FF0000000
00001FF8000000
00003FF8000000
00003FF8000000
00003EFC000000
00007EFC000000
00007E7E000000
0000FC7E000000
0000FC3E000000
0001F83F000000
0001F83F000000
0001F81F800000
0003F01F800000
0003F00FC00000
0007E00FC00000
0007E00FC00000
0007E007E00000
000FC007E00000
000FC003F00000
001F8003F00000
001F8003F00000
001F8001F80000
003F0001F80000
003F0000FC0000
007E0000FC0000
007E0000FC0000
00FE00007E0000
00FC00007E0000
00FC00003F0000
01F800003F0000
01F800003F8000
03F800001F8000
03FFFFFFFF8000
03FFFFFFFFC000
07FFFFFFFFC000
07FFFFFFFFE000
0FC0000007E000
0FC0000007E000
0FC0000003F000
1F80000003F000
1F80000001F800
3F00000001F800
3F00000001F800
3F00000000FC00
7E00000000FC00
7E000000007E00
FC000000007E00
FC000000007E00
FC000000003E00
78000000003C00
00000000003000
00000000007000
0000000000F000
0000000000E000
0000000001E000
0000000001E000
0000000003E000
0000000003E000
0000000003E000
0000000003F000
0000000003FC00
0000000003FFE0
0000000001FFE0
0000000000FFE0
00000000003F80
ENDCHAR
STARTCHAR aogonek
ENCODING 261
SWIDTH 504 0
DWIDTH 38 0
BBX 35 53 2 -16
BITMAP
001FF80000
01FFFF0000
07FFFFC000
1FFFFFE000
3FC007F000
3F0001F800
180000FC00
000000FC00
0000007C00
0000007C00
0000007E00
0000007E00
0000007E00
0000007E00
0000007E00
0000007E00
0000007E00
003FFFFE00
03FFFFFE00
0FFFFFFE00
1FFC007E00
3F80007E00
7E00007E00
7E00007E00
7C00007E00
7C00007E00
FC0000FE00
FC0000FE00
FC0001FE00
7C0001FE00
7C0003FE00
7E0007FE00
3F000F7E00
3F803E7E00
1FFFFC7E00
0FFFF87C00
03FFF03800
007F803800
0000003000
0000007000
000000F000
000000E000
000001E000
000001E000
000003E000
000003E000
000003E000
000003F000
000003FC00
000003FFE0
000001FFE0
000000FFE0
0000003F80
ENDCHAR
STARTCHAR Cacute
ENCODING 262
SWIDTH 659 0
DWIDTH 49 0
BBX 39 74 5 -1
BITMAP
00000000E0
00000001F0
00000003F0
00000007F0
0000000FE0
0000001FC0
0000003F80
0000007E00
000000FC00
000001F800
000003E000
000007C000
0000078000
0000060000
0000000000
0000000000
0000000000
0000000000
0000000000
0000000000
0000000000
00001FF800
0001FFFF80
0007FFFFE0
001FFFFFF8
003FFFFFFC
00FFF003FC
01FF80007C
03FE000018
03F8000000
07F0000000
0FE0000000
0FC0000000
1FC0000000
1F80000000
3F80000000
3F00000000
7F00000000
7E00000000
7E00000000
7E00000000
FE00000000
FC00000000
FC00000000
FC00000000
FC00000000
FC00000000
FC00000000
FC00000000
FC00000000
FC00000000
FC00000000
FC00000000
FE00000000
FE00000000
7E00000000
7E00000000
7F00000000
7F00000000
3F00000000
3F80000000
1FC0000000
1FC0000000
0FE0000000
0FF0000000
07F800000C
03FE00003E
01FF0000FE
00FFF007FE
007FFFFFFC
001FFFFFF8
000FFFFFE0
0001FFFF00
00003FF800
ENDCHAR
STARTCHAR cacute
ENCODING 263
SWIDTH 462 0
DWIDTH 35 0
BBX 30 57 3 -1
BITMAP
00000038
0000007C
000000FC
000001FC
000003F8
000007F0
00000FE0
00001F80
00003F00
00007E00
0000F800
0001F000
0001E000
00018000
00000000
00000000
00000000
00000000
00000000
0003FC00
003FFF80
007FFFE0
01FFFFF0
03FC01F8
07F00078
0FC00010
1F800000
1F800000
3F000000
3E000000
7E000000
7E000000
7C000000
7C000000
FC000000
FC000000
FC000000
FC000000
FC000000
FC000000
FC000000
FC000000
7C000000
7C000000
7C000000
7E000000
3E000000
3F000000
3F000000
1F800000
0FC00010
07E00078
07F801F8
03FFFFF0
00FFFFE0
003FFF80
0007FC00
ENDCHAR
STARTCHAR Ccircumflex
ENCODING 264
SWIDTH 659 0
DWIDTH 49 0
BBX 39 74 5 -1
BITMAP
0000038000
000007C000
00000FE000
00001FF000
00001FF800
00003EF800
00007EFC00
0000FC7E00
0000F83E00
0001F01F00
0003F01F80
0003E00F80
0007C007C0
00078003C0
0003000180
0000000000
0000000000
0000000000
0000000000
0000000000
0000000000
00001FF800
0001FFFF80
0007FFFFE0
001FFFFFF8
003FFFFFFC
00FFF003FC
01FF80007C
03FE000018
03F8000000
07F0000000
0FE0000000
0FC0000000
1FC0000000
1F80000000
3F80000000
3F00000000
7F00000000
7E00000000
7E00000000
7E00000000
FE00000000
FC00000000
FC00000000
FC00000000
FC00000000
FC00000000
FC00000000
FC00000000
FC00000000
FC00000000
FC00000000
FC00000000
FE00000000
FE00000000
7E00000000
7E00000000
7F00000000
7F00000000
3F00000000
3F80000000
1FC0000000
1FC0000000
0FE0000000
0FF0000000
07F800000C
03FE00003E
01FF0000FE
00FFF007FE
007FFFFFFC
001FFFFFF8
000FFFFFE0
0001FFFF00
00003FF800
ENDCHAR
STARTCHAR ccircumflex
ENCODING 265
SWIDTH 462 0
DWIDTH 35 0
BBX 29 57 3 -1
BITMAP
0000E000
0001F000
0003F800
0007FC00
0007FE00
000FBE00
001FBF00
003F1F80
003E0F80
007C07C0
00FC07E0
00F803E0
01F001F0
01E000F0
00C00060
00000000
00000000
00000000
00000000
0003FC00
003FFF80
007FFFE0
01FFFFF0
03FC01F8
07F00078
0FC00010
1F800000
1F800000
3F000000
3E000000
7E000000
7E000000
7C000000
7C000000
FC000000
FC000000
FC000000
FC000000
FC000000
FC000000
FC000000
FC000000
7C000000
7C000000
7C000000
7E000000
3E000000
3F000000
3F000000
1F800000
0FC00010
07E00078
07F801F8
03FFFFF0
00FFFFE0
003FFF80
0007FC00
ENDCHAR
STARTCHAR Cdotaccent
ENCODING 266
SWIDTH 659 0
DWIDTH 49 0
BBX 39 67 5 -1
BITMAP
0000078000
00000FC000
00000FE000
00001FE000
00000FE000
00000FC000
0000078000
0000000000
0000000000
0000000000
0000000000
0000000000
0000000000
0000000000
00001FF800
0001FFFF80
0007FFFFE0
001FFFFFF8
003FFFFFFC
00FFF003FC
01FF80007C
03FE000018
03F8000000
07F0000000
0FE0000000
0FC0000000
1FC0000000
1F80000000
3F80000000
3F00000000
7F00000000
7E00000000
7E00000000
7E00000000
FE00000000
FC00000000
FC00000000
FC00000000
FC00000000
FC00000000
FC00000000
FC00000000
FC00000000
FC00000000
FC00000000
FC00000000
FE00000000
FE00000000
7E00000000
7E00000000
7F00000000
7F00000000
3F00000000
3F80000000
1FC0000000
1FC0000000
0FE0000000
0FF0000000
07F800000C
03FE00003E
01FF0000FE
00FFF007FE
007FFFFFFC
001FFFFFF8
000FFFFFE0
0001FFFF00
00003FF800
ENDCHAR
STARTCHAR cdotaccent
ENCODING 267
SWIDTH 462 0
DWIDTH 35 0
BBX 29 51 3 -1
BITMAP
0001E000
0003F000
0003F800
0007F800
0003F800
0003F000
0001E000
00000000
00000000
00000000
00000000
00000000
00000000
0003FC00
003FFF80
007FFFE0
01FFFFF0
03FC01F8
07F00078
0FC00010
1F800000
1F800000
3F000000
3E000000
7E000000
7E000000
7C000000
7C000000
FC000000
FC000000
FC000000
FC000000
FC000000
FC000000
FC000000
FC000000
7C000000
7C000000
7C000000
7E000000
3E000000
3F000000
3F000000
1F800000
0FC00010
07E00078
07F801F8
03FFFFF0
00FFFFE0
003FFF80
0007FC00
ENDCHAR
STARTCHAR Ccaron
ENCODING 268
SWIDTH 659 0
DWIDTH 49 0
BBX 39 72 5 -1
BITMAP
0003000180
00078003C0
0007C007C0
0003E00F80
0003E01F80
0001F01F00
0000F83E00
0000FC7C00
00007EFC00
00003EF800
00003FF000
00001FF000
00000FE000
000007C000
0000038000
0000000000
0000000000
0000000000
0000000000
00001FF800
0001FFFF80
0007FFFFE0
001FFFFFF8
003FFFFFFC
00FFF003FC
01FF80007C
03FE000018
03F8000000
07F0000000
0FE0000000
0FC0000000
1FC0000000
1F80000000
3F80000000
3F00000000
7F00000000
7E00000000
7E00000000
7E00000000
FE00000000
FC00000000
FC00000000
FC00000000
FC00000000
FC00000000
FC00000000
FC00000000
FC00000000
FC00000000
FC00000000
FC00000000
FE00000000
FE00000000
7E00000000
7E00000000
7F00000000
7F00000000
3F00000000
3F80000000
1FC0000000
1FC0000000
0FE0000000
0FF0000000
07F800000C
03FE00003E
01FF0000FE
00FFF007FE
007FFFFFFC
001FFFFFF8
000FFFFFE0
0001FFFF00
00003FF800
ENDCHAR
STARTCHAR ccaron
ENCODING 269
SWIDTH 462 0
DWIDTH 35 0
BBX 29 55 3 -1
BITMAP
018000C0
03C001E0
03E003E0
01F007C0
01F00FC0
00F80F80
007C1F00
007E3E00
003F7E00
001F7C00
001FF800
000FF800
0007F000
0003E000
0001C000
00000000
00000000
0003FC00
003FFF80
007FFFE0
01FFFFF0
03FC01F8
07F00078
0FC00010
1F800000
1F800000
3F000000
3E000000
7E000000
7E000000
7C000000
7C000000
FC000000
FC000000
FC000000
FC000000
FC000000
FC000000
FC000000
FC000000
7C000000
7C000000
7C000000
7E000000
3E000000
3F000000
3F000000
1F800000
0FC00010
07E00078
07F801F8
03FFFFF0
00FFFFE0
003FFF80
0007FC00
ENDCHAR
STARTCHAR Dcaron
ENCODING 270
SWIDTH 729 0
DWIDTH 55 0
BBX 43 71 7 0
BITMAP
000C00060000
001E000F0000
001F001F0000
000F803E0000
000F807E0000
0007C07C0000
0003E0F80000
0003F1F00000
0001FBF00000
0000FBE00000
0000FFC00000
00007FC00000
00003F800000
00001F000000
00000E000000
000000000000
000000000000
000000000000
000000000000
7FFFFC000000
FFFFFFC00000
FFFFFFF80000
FFFFFFFE0000
FFFFFFFF8000
F8000FFFC000
F800007FE000
F800001FF000
F8000007F800
F8000001FC00
F8000000FE00
F80000007E00
F80000007F00
F80000003F00
F80000003F80
F80000001F80
F80000001FC0
F80000000FC0
F80000000FC0
F80000000FC0
F80000000FC0
F80000000FE0
F80000000FE0
F800000007E0
F800000007E0
F800000007E0
F800000007E0
F800000007E0
F800000007E0
F80000000FE0
F80000000FE0
F80000000FC0
F80000000FC0
F80000000FC0
F80000000FC0
F80000001FC0
F80000001F80
F80000001F80
F80000003F80
F80000007F00
F80000007F00
F8000000FE00
F8000001FC00
F8000003F800
F800000FF800
F800003FE000
F80003FFC000
FFFFFFFF8000
FFFFFFFE0000
FFFFFFF80000
FFFFFFC00000
7FFFFC000000
ENDCHAR
STARTCHAR dcaron
ENCODING 271
SWIDTH 572 0
DWIDTH 43 0
BBX 48 55 3 -1
BITMAP
00000000001F
00000000003F
00000003803F
00000007C03F
00000007C03E
00000007C03E
00000007C07E
00000007C07C
00000007C07C
00000007C07C
00000007C078
00000007C078
00000007C078
00000007C0F0
00000007C0F0
00000007C0F0
00000007C0E0
000FF007C0E0
003FFE07C000
00FFFF87C000
03FFFFC7C000
07F807E7C000
0FE001E7C000
0FC000F7C000
1F80007FC000
1F00003FC000
3F00001FC000
3E00001FC000
7E00001FC000
7C00000FC000
7C00000FC000
7C00000FC000
FC00000FC000
FC000007C000
FC000007C000
FC000007C000
FC000007C000
FC000007C000
FC000007C000
FC00000FC000
7C00000FC000
7C00000FC000
7C00000FC000
7E00000FC000
3E00001FC000
3E00001FC000
3F00003FC000
1F80007FC000
1F800077C000
0FE001F7C000
07F007E7C000
03FFFFC7C000
01FFFF07C000
007FFE038000
000FF0000000
ENDCHAR
STARTCHAR Dcroat
ENCODING 272
SWIDTH 729 0
DWIDTH 55 0
BBX 50 52 0 0
BITMAP
00FFFFF8000000
01FFFFFF800000
01FFFFFFF00000
01FFFFFFFC0000
01FFFFFFFF0000
01F0001FFF8000
01F00000FFC000
01F000003FE000
01F000000FF000
01F0000003F800
01F0000001FC00
01F0000000FC00
01F0000000FE00
01F00000007E00
01F00000007F00
01F00000003F00
01F00000003F80
01F00000001F80
01F00000001F80
01F00000001F80
01F00000001F80
01F00000001FC0
01F00000001FC0
01F00000000FC0
7FFFF800000FC0
FFFFFC00000FC0
FFFFFC00000FC0
3FFFF000000FC0
01F00000000FC0
01F00000001FC0
01F00000001FC0
01F00000001F80
01F00000001F80
01F00000001F80
01F00000001F80
01F00000003F80
01F00000003F00
01F00000003F00
01F00000007F00
01F0000000FE00
01F0000000FE00
01F0000001FC00
01F0000003F800
01F0000007F000
01F000001FF000
01F000007FC000
01F00007FF8000
01FFFFFFFF0000
01FFFFFFFC0000
01FFFFFFF00000
01FFFFFF800000
00FFFFF8000000
ENDCHAR
STARTCHAR dcroat
ENCODING 273
SWIDTH 572 0
DWIDTH 43 0
BBX 41 53 3 -1
BITMAP
000000038000
00000007C000
00000007C000
00000007C000
00000007C000
00000007C000
00000FFFFE00
00003FFFFF00
00003FFFFF80
00001FFFFF00
00000007C000
00000007C000
00000007C000
00000007C000
00000007C000
000FF007C000
003FFE07C000
00FFFF87C000
03FFFFC7C000
07F807E7C000
0FE001E7C000
0FC000F7C000
1F80007FC000
1F00003FC000
3F00001FC000
3E00001FC000
7E00001FC000
7C00000FC000
7C00000FC000
7C00000FC000
FC00000FC000
FC000007C000
FC000007C000
FC000007C000
FC000007C000
FC000007C000
FC000007C000
FC00000FC000
7C00000FC000
7C00000FC000
7C00000FC000
7E00000FC000
3E00001FC000
3E00001FC000
3F00003FC000
1F80007FC000
1F800077C000
0FE001F7C000
07F007E7C000
03FFFFC7C000
01FFFF07C000
007FFE038000
000FF0000000
ENDCHAR
STARTCHAR Emacron
ENCODING 274
SWIDTH 602 0
DWIDTH 45 0
BBX 33 64 7 0
BITMAP
01FFFFC000
07FFFFE000
07FFFFF000
03FFFFE000
0000000000
0000000000
0000000000
0000000000
0000000000
0000000000
0000000000
0000000000
7FFFFFFE00
FFFFFFFF00
FFFFFFFF00
FFFFFFFF00
FFFFFFFE00
F800000000
F800000000
F800000000
F800000000
F800000000
F800000000
F800000000
F800000000
F800000000
F800000000
F800000000
F800000000
F800000000
F800000000
F800000000
F800000000
F800000000
F800000000
FFFFFFFC00
FFFFFFFE00
FFFFFFFE00
FFFFFFFE00
FFFFFFFC00
F800000000
F800000000
F800000000
F800000000
F800000000
F800000000
F800000000
F800000000
F800000000
F800000000
F800000000
F800000000
F800000000
F800000000
F800000000
F800000000
F800000000
F800000000
F800000000
FFFFFFFF00
FFFFFFFF80
FFFFFFFF80
FFFFFFFF80
7FFFFFFF00
ENDCHAR
STARTCHAR emacron
ENCODING 275
SWIDTH 551 0
DWIDTH 41 0
BBX 33 49 4 -1
BITMAP
00FFFFE000
03FFFFF000
03FFFFF800
01FFFFF000
0000000000
0000000000
0000000000
0000000000
0000000000
0000000000
0000000000
0007FC0000
003FFF8000
00FFFFC000
03FFFFF000
07F803F800
0FE000FC00
1FC0007C00
1F80003E00
3F00003E00
3E00001F00
7E00001F00
7C00000F00
FC00000F80
FC00000F80
F800000F80
F800000780
FFFFFFFF80
FFFFFFFF80
FFFFFFFF80
FFFFFFFF80
F800000000
F800000000
F800000000
F800000000
F800000000
FC00000000
7C00000000
7C00000000
7E00000000
3F00000300
1F00000F00
1F80001F00
0FE0007F00
07F801FC00
03FFFFF800
00FFFFF000
003FFFC000
0007FC0000
ENDCHAR
STARTCHAR Ebreve
ENCODING 276
SWIDTH 602 0
DWIDTH 45 0
BBX 33 69 7 0
BITMAP
01C001C000
01C003C000
01E003C000
01F80F8000
00FFFF8000
007FFF0000
003FFC0000
0007F00000
0000000000
0000000000
0000000000
0000000000
0000000000
0000000000
0000000000
0000000000
0000000000
7FFFFFFE00
FFFFFFFF00
FFFFFFFF00
FFFFFFFF00
FFFFFFFE00
F800000000
F800000000
F800000000
F800000000
F800000000
F800000000
F800000000
F800000000
F800000000
F800000000
F800000000
F800000000
F800000000
F800000000
F800000000
F800000000
F800000000
F800000000
FFFFFFFC00
FFFFFFFE00
FFFFFFFE00
FFFFFFFE00
FFFFFFFC00
F800000000
F800000000
F800000000
F800000000
F800000000
F800000000
F800000000
F800000000
F800000000
F800000000
F800000000
F800000000
F800000000
F800000000
F800000000
F800000000
F800000000
F800000000
F800000000
FFFFFFFF00
FFFFFFFF80
FFFFFFFF80
FFFFFFFF80
7FFFFFFF00
ENDCHAR
STARTCHAR ebreve
ENCODING 277
SWIDTH 551 0
DWIDTH 41 0
BBX 33 54 4 -1
BITMAP
00E000E000
00E001E000
00F001E000
00FC07C000
007FFFC000
003FFF8000
001FFE0000
0003F80000
0000000000
0000000000
0000000000
0000000000
0000000000
0000000000
0000000000
0000000000
0007FC0000
003FFF8000
00FFFFC000
03FFFFF000
07F803F800
0FE000FC00
1FC0007C00
1F80003E00
3F00003E00
3E00001F00
7E00001F00
7C00000F00
FC00000F80
FC00000F80
F800000F80
F800000780
FFFFFFFF80
FFFFFFFF80
FFFFFFFF80
FFFFFFFF80
F800000000
F800000000
F800000000
F800000000
F800000000
FC00000000
7C00000000
7C00000000
7E00000000
3F00000300
1F00000F00
1F80001F00
0FE0007F00
07F801FC00
03FFFFF800
00FFFFF000
003FFFC000
0007FC0000
ENDCHAR
STARTCHAR Edotaccent
ENCODING 278
SWIDTH 602 0
DWIDTH 45 0
BBX 33 66 7 0
BITMAP
0003C00000
0007E00000
0007F00000
000FF00000
0007F00000
0007E00000
0003C00000
0000000000
0000000000
0000000000
0000000000
0000000000
0000000000
0000000000
7FFFFFFE00
FFFFFFFF00
FFFFFFFF00
FFFFFFFF00
FFFFFFFE00
F800000000
F800000000
F800000000
F800000000
F800000000
F800000000
F800000000
F800000000
F800000000
F800000000
F800000000
F800000000
F800000000
F800000000
F800000000
F800000000
F800000000
F800000000
FFFFFFFC00
FFFFFFFE00
FFFFFFFE00
FFFFFFFE00
FFFFFFFC00
F800000000
F800000000
F800000000
F800000000
F800000000
F800000000
F800000000
F800000000
F800000000
F800000000
F800000000
F800000000
F800000000
F800000000
F800000000
F800000000
F800000000
F800000000
F800000000
FFFFFFFF00
FFFFFFFF80
FFFFFFFF80
FFFFFFFF80
7FFFFFFF00
ENDCHAR
STARTCHAR edotaccent
ENCODING 279
SWIDTH 551 0
DWIDTH 41 0
BBX 33 51 4 -1
BITMAP
0001E00000
0003F00000
0003F80000
0007F80000
0003F80000
0003F00000
0001E00000
0000000000
0000000000
0000000000
0000000000
0000000000
0000000000
0007FC0000
003FFF8000
00FFFFC000
03FFFFF000
07F803F800
0FE000FC00
1FC0007C00
1F80003E00
3F00003E00
3E00001F00
7E00001F00
7C00000F00
FC00000F80
FC00000F80
F800000F80
F800000780
FFFFFFFF80
FFFFFFFF80
FFFFFFFF80
FFFFFFFF80
F800000000
F800000000
F800000000
F800000000
F800000000
FC00000000
7C00000000
7C00000000
7E00000000
3F00000300
1F00000F00
1F80001F00
0FE0007F00
07F801FC00
03FFFFF800
00FFFFF000
003FFFC000
0007FC0000
ENDCHAR
STARTCHAR Eogonek
ENCODING 280
SWIDTH 602 0
DWIDTH 45 0
BBX 33 68 7 -16
BITMAP
7FFFFFFE00
FFFFFFFF00
FFFFFFFF00
FFFFFFFF00
FFFFFFFE00
F800000000
F800000000
F800000000
F800000000
F800000000
F800000000
F800000000
F800000000
F800000000
F800000000
F800000000
F800000000
F800000000
F800000000
F800000000
F800000000
F800000000
F800000000
FFFFFFFC00
FFFFFFFE00
FFFFFFFE00
FFFFFFFE00
FFFFFFFC00
F800000000
F800000000
F800000000
F800000000
F800000000
F800000000
F800000000
F800000000
F800000000
F800000000
F800000000
F800000000
F800000000
F800000000
F800000000
F800000000
F800000000
F800000000
F800000000
FFFFFFFF00
FFFFFFFF80
FFFFFFFF80
FFFFFFFF80
7FFFFFFF00
0000070000
0000060000
00000E0000
00001E0000
00001C0000
00003C0000
00003C0000
00007C0000
00007C0000
00007C0000
00007E0000
00007F8000
00007FFC00
00003FFC00
00001FFC00
000007F000
ENDCHAR
STARTCHAR eogonek
ENCODING 281
SWIDTH 551 0
DWIDTH 41 0
BBX 33 52 4 -15
BITMAP
0007FC0000
003FFF8000
00FFFFC000
03FFFFF000
07F803F800
0FE000FC00
1FC0007C00
1F80003E00
3F00003E00
3E00001F00
7E00001F00
7C00000F00
FC00000F80
FC00000F80
F800000F80
F800000780
FFFFFFFF80
FFFFFFFF80
FFFFFFFF80
FFFFFFFF80
F800000000
F800000000
F800000000
F800000000
F800000000
FC00000000
7C00000000
7C00000000
7E00000000
3F00000300
1F00000F00
1F80001F00
0FE0007F00
07F801FC00
03FFFFF800
00FFFFF000
003FFFC000
0007FE0000
00000E0000
00001E0000
00001C0000
00003C0000
00003C0000
00007C0000
00007C0000
00007C0000
00007E0000
00007F8000
00007FFC00
00003FFC00
00001FFC00
000007F000
ENDCHAR
STARTCHAR Ecaron
ENCODING 282
SWIDTH 602 0
DWIDTH 45 0
BBX 33 71 7 0
BITMAP
018000C000
03C001E000
03E003E000
01F007C000
01F00FC000
00F80F8000
007C1F0000
007E3E0000
003F7E0000
001F7C0000
001FF80000
000FF80000
0007F00000
0003E00000
0001C00000
0000000000
0000000000
0000000000
0000000000
7FFFFFFE00
FFFFFFFF00
FFFFFFFF00
FFFFFFFF00
FFFFFFFE00
F800000000
F800000000
F800000000
F800000000
F800000000
F800000000
F800000000
F800000000
F800000000
F800000000
F800000000
F800000000
F800000000
F800000000
F800000000
F800000000
F800000000
F800000000
FFFFFFFC00
FFFFFFFE00
FFFFFFFE00
FFFFFFFE00
FFFFFFFC00
F800000000
F800000000
F800000000
F800000000
F800000000
F800000000
F800000000
F800000000
F800000000
F800000000
F800000000
F800000000
F800000000
F800000000
F800000000
F800000000
F800000000
F800000000
F800000000
FFFFFFFF00
FFFFFFFF80
FFFFFFFF80
FFFFFFFF80
7FFFFFFF00
ENDCHAR
STARTCHAR ecaron
ENCODING 283
SWIDTH 551 0
DWIDTH 41 0
BBX 33 56 4 -1
BITMAP
018000C000
03C001E000
03E003E000
01F007C000
01F00FC000
00F80F8000
007C1F0000
007E3E0000
003F7E0000
001F7C0000
001FF80000
000FF80000
0007F00000
0003E00000
0001C00000
0000000000
0000000000
0000000000
0007FC0000
003FFF8000
00FFFFC000
03FFFFF000
07F803F800
0FE000FC00
1FC0007C00
1F80003E00
3F00003E00
3E00001F00
7E00001F00
7C00000F00
FC00000F80
FC00000F80
F800000F80
F800000780
FFFFFFFF80
FFFFFFFF80
FFFFFFFF80
FFFFFFFF80
F800000000
F800000000
F800000000
F800000000
F800000000
FC00000000
7C00000000
7C00000000
7E00000000
3F00000300
1F00000F00
1F80001F00
0FE0007F00
07F801FC00
03FFFFF800
00FFFFF000
003FFFC000
0007FC0000
ENDCHAR
STARTCHAR Gcircumflex
ENCODING 284
SWIDTH 703 0
DWIDTH 53 0
BBX 43 73 5 -1
BITMAP
000000700000
000000F80000
000001FC0000
000003FE0000
000003FF0000
000007DF0000
00000FDF8000
00001F8FC000
00001F07C000
00003E03E000
00007E03F000
00007C01F000
0000F800F800
0000F0007800
000060003000
000000000000
000000000000
000000000000
000000000000
000000000000
00000FFF0000
0000FFFFF000
0003FFFFFE00
000FFFFFFF80
003FFFFFFF80
007FF801FF80
00FF80000F80
01FE00000000
03FC00000000
07F000000000
0FE000000000
0FE000000000
1FC000000000
1F8000000000
3F8000000000
3F0000000000
7F0000000000
7E0000000000
7E0000000000
7E0000000000
FE0000000000
FC0000000000
FC0000000000
FC0000000000
FC0000000000
FC00007FFFC0
FC0000FFFFE0
FC0000FFFFE0
FC0000FFFFE0
FC00007FFFE0
FC00000007E0
FC00000007E0
FE00000007E0
FE00000007E0
7E00000007E0
7E00000007E0
7F00000007E0
7F00000007E0
3F80000007E0
3F80000007E0
1FC0000007E0
1FC0000007E0
0FE0000007E0
0FF0000007E0
07F8000007E0
03FE000007E0
01FF80000FE0
00FFF001FFE0
007FFFFFFFE0
001FFFFFFFC0
000FFFFFFF00
0001FFFFF800
00001FFE0000
ENDCHAR
STARTCHAR gcircumflex
ENCODING 285
SWIDTH 565 0
DWIDTH 42 0
BBX 34 71 3 -15
BITMAP
0001C00000
0003E00000
0007F00000
000FF80000
000FFC0000
001F7C0000
003F7E0000
007E3F0000
007C1F0000
00F80F8000
01F80FC000
01F007C000
03E003E000
03C001E000
018000C000
0000000000
0000000000
0000000000
0000000000
000FF00000
007FFE0380
00FFFF87C0
03FFFFC7C0
07F803E7C0
0FE001E7C0
0FC00077C0
1F80003FC0
1F00003FC0
3F00001FC0
3E00001FC0
7E00000FC0
7C00000FC0
7C00000FC0
7C00000FC0
FC00000FC0
FC000007C0
FC000007C0
FC000007C0
FC000007C0
FC000007C0
FC000007C0
FC00000FC0
7C00000FC0
7C00000FC0
7E00000FC0
7E00001FC0
3E00001FC0
3F00003FC0
1F800077C0
1FC000F7C0
0FE001E7C0
07F807E7C0
03FFFFC7C0
01FFFF07C0
007FFE07C0
000FF007C0
00000007C0
00000007C0
00000007C0
0000000FC0
0000000FC0
0000000F80
0000001F80
0000001F80
0000003F00
0E00007E00
0FE003FC00
0FFFFFF800
07FFFFF000
01FFFFC000
001FFE0000
ENDCHAR
STARTCHAR Gbreve
ENCODING 286
SWIDTH 703 0
DWIDTH 53 0
BBX 43 69 5 -1
BITMAP
000070007000
00007000F000
00007800F000
00007E03E000
00003FFFE000
00001FFFC000
00000FFF0000
000001FC0000
000000000000
000000000000
000000000000
000000000000
000000000000
000000000000
000000000000
000000000000
00000FFF0000
0000FFFFF000
0003FFFFFE00
000FFFFFFF80
003FFFFFFF80
007FF801FF80
00FF80000F80
01FE00000000
03FC00000000
07F000000000
0FE000000000
0FE000000000
1FC000000000
1F8000000000
3F8000000000
3F0000000000
7F0000000000
7E0000000000
7E0000000000
7E0000000000
FE0000000000
FC0000000000
FC0000000000
FC0000000000
FC0000000000
FC00007FFFC0
FC0000FFFFE0
FC0000FFFFE0
FC0000FFFFE0
FC00007FFFE0
FC00000007E0
FC00000007E0
FE00000007E0
FE00000007E0
7E00000007E0
7E00000007E0
7F00000007E0
7F00000007E0
3F80000007E0
3F80000007E0
1FC0000007E0
1FC0000007E0
0FE0000007E0
0FF0000007E0
07F8000007E0
03FE000007E0
01FF80000FE0
00FFF001FFE0
007FFFFFFFE0
001FFFFFFFC0
000FFFFFFF00
0001FFFFF800
00001FFE0000
ENDCHAR
STARTCHAR gbreve
ENCODING 287
SWIDTH 565 0
DWIDTH 42 0
BBX 34 67 3 -15
BITMAP
01C001C000
01C003C000
01E003C000
01F80F8000
00FFFF8000
007FFF0000
003FFC0000
0007F00000
0000000000
0000000000
0000000000
0000000000
0000000000
0000000000
0000000000
000FF00000
007FFE0380
00FFFF87C0
03FFFFC7C0
07F803E7C0
0FE001E7C0
0FC00077C0
1F80003FC0
1F00003FC0
3F00001FC0
3E00001FC0
7E00000FC0
7C00000FC0
7C00000FC0
7C00000FC0
FC00000FC0
FC000007C0
FC000007C0
FC000007C0
FC000007C0
FC000007C0
FC000007C0
FC00000FC0
7C00000FC0
7C00000FC0
7E00000FC0
7E00001FC0
3E00001FC0
3F00003FC0
1F800077C0
1FC000F7C0
0FE001E7C0
07F807E7C0
03FFFFC7C0
01FFFF07C0
007FFE07C0
000FF007C0
00000007C0
00000007C0
00000007C0
0000000FC0
0000000FC0
0000000F80
0000001F80
0000001F80
0000003F00
0E00007E00
0FE003FC00
0FFFFFF800
07FFFFF000
01FFFFC000
001FFE0000
ENDCHAR
STARTCHAR Gdotaccent
ENCODING 288
SWIDTH 703 0
DWIDTH 53 0
BBX 43 67 5 -1
BITMAP
000000F00000
000001F80000
000001FC0000
000003FC0000
000001FC0000
000001F80000
000000F00000
000000000000
000000000000
000000000000
000000000000
000000000000
000000000000
000000000000
00000FFF0000
0000FFFFF000
0003FFFFFE00
000FFFFFFF80
003FFFFFFF80
007FF801FF80
00FF80000F80
01FE00000000
03FC00000000
07F000000000
0FE000000000
0FE000000000
1FC000000000
1F8000000000
3F8000000000
3F0000000000
7F0000000000
7E0000000000
7E0000000000
7E0000000000
FE0000000000
FC0000000000
FC0000000000
FC0000000000
FC0000000000
FC00007FFFC0
FC0000FFFFE0
FC0000FFFFE0
FC0000FFFFE0
FC00007FFFE0
FC00000007E0
FC00000007E0
FE00000007E0
FE00000007E0
7E00000007E0
7E00000007E0
7F00000007E0
7F00000007E0
3F80000007E0
3F80000007E0
1FC0000007E0
1FC0000007E0
0FE0000007E0
0FF0000007E0
07F8000007E0
03FE000007E0
01FF80000FE0
00FFF001FFE0
007FFFFFFFE0
001FFFFFFFC0
000FFFFFFF00
0001FFFFF800
00001FFE0000
ENDCHAR
STARTCHAR gdotaccent
ENCODING 289
SWIDTH 565 0
DWIDTH 42 0
BBX 34 65 3 -15
BITMAP
0003C00000
0007E00000
0007F00000
000FF00000
0007F00000
0007E00000
0003C00000
0000000000
0000000000
0000000000
0000000000
0000000000
0000000000
000FF00000
007FFE0380
00FFFF87C0
03FFFFC7C0
07F803E7C0
0FE001E7C0
0FC00077C0
1F80003FC0
1F00003FC0
3F00001FC0
3E00001FC0
7E00000FC0
7C00000FC0
7C00000FC0
7C00000FC0
FC00000FC0
FC000007C0
FC000007C0
FC000007C0
FC000007C0
FC000007C0
FC000007C0
FC00000FC0
7C00000FC0
7C00000FC0
7E00000FC0
7E00001FC0
3E00001FC0
3F00003FC0
1F800077C0
1FC000F7C0
0FE001E7C0
07F807E7C0
03FFFFC7C0
01FFFF07C0
007FFE07C0
000FF007C0
00000007C0
00000007C0
00000007C0
0000000FC0
0000000FC0
0000000F80
0000001F80
0000001F80
0000003F00
0E00007E00
0FE003FC00
0FFFFFF800
07FFFFF000
01FFFFC000
001FFE0000
ENDCHAR
STARTCHAR Gcommaaccent
ENCODING 290
SWIDTH 703 0
DWIDTH 53 0
BBX 43 73 5 -21
BITMAP
00000FFF0000
0000FFFFF000
0003FFFFFE00
000FFFFFFF80
003FFFFFFF80
007FF801FF80
00FF80000F80
01FE00000000
03FC00000000
07F000000000
0FE000000000
0FE000000000
1FC000000000
1F8000000000
3F8000000000
3F0000000000
7F0000000000
7E0000000000
7E0000000000
7E0000000000
FE0000000000
FC0000000000
FC0000000000
FC0000000000
FC0000000000
FC00007FFFC0
FC0000FFFFE0
FC0000FFFFE0
FC0000FFFFE0
FC00007FFFE0
FC00000007E0
FC00000007E0
FE00000007E0
FE00000007E0
7E00000007E0
7E00000007E0
7F00000007E0
7F00000007E0
3F80000007E0
3F80000007E0
1FC0000007E0
1FC0000007E0
0FE0000007E0
0FF0000007E0
07F8000007E0
03FE000007E0
01FF80000FE0
00FFF001FFE0
007FFFFFFFE0
001FFFFFFFC0
000FFFFFFF00
0001FFFFF800
00001FFE0000
000000000000
000000000000
000003E00000
000007E00000
000007E00000
000007E00000
000007C00000
000007C00000
000007C00000
00000F800000
00000F800000
00000F800000
00000F000000
00000F000000
00000F000000
00001E000000
00001E000000
00001E000000
00001C000000
00001C000000
ENDCHAR
STARTCHAR gcommaaccent
ENCODING 291
SWIDTH 565 0
DWIDTH 42 0
BBX 34 80 3 -15
BITMAP
0000020000
00000F0000
00000F0000
00000F0000
00001F0000
00001F0000
00001F0000
00003E0000
00003E0000
00003E0000
00007E0000
00007E0000
00007C0000
0000FC0000
0000FC0000
0001FC0000
0001FC0000
0001FC0000
0003F80000
0003F80000
0003F00000
0000000000
0000000000
0000000000
0000000000
0000000000
0000000000
0000000000
000FF00000
007FFE0380
00FFFF87C0
03FFFFC7C0
07F803E7C0
0FE001E7C0
0FC00077C0
1F80003FC0
1F00003FC0
3F00001FC0
3E00001FC0
7E00000FC0
7C00000FC0
7C00000FC0
7C00000FC0
FC00000FC0
FC000007C0
FC000007C0
FC000007C0
FC000007C0
FC000007C0
FC000007C0
FC00000FC0
7C00000FC0
7C00000FC0
7E00000FC0
7E00001FC0
3E00001FC0
3F00003FC0
1F800077C0
1FC000F7C0
0FE001E7C0
07F807E7C0
03FFFFC7C0
01FFFF07C0
007FFE07C0
000FF007C0
00000007C0
00000007C0
00000007C0
0000000FC0
0000000FC0
0000000F80
0000001F80
0000001F80
0000003F00
0E00007E00
0FE003FC00
0FFFFFF800
07FFFFF000
01FFFFC000
001FFE0000
ENDCHAR
STARTCHAR Hcircumflex
ENCODING 292
SWIDTH 710 0
DWIDTH 53 0
BBX 40 73 7 0
BITMAP
00001C0000
00003E0000
00007F0000
0000FF8000
0000FFC000
0001F7C000
0003F7E000
0007E3F000
0007C1F000
000F80F800
001F80FC00
001F007C00
003E003E00
003C001E00
0018000C00
0000000000
0000000000
0000000000
0000000000
0000000000
0000000000
700000001C
F80000003E
F80000003F
F80000003F
F80000003F
F80000003F
F80000003F
F80000003F
F80000003F
F80000003F
F80000003F
F80000003F
F80000003F
F80000003F
F80000003F
F80000003F
F80000003F
F80000003F
F80000003F
F80000003F
F80000003F
F80000003F
F80000003F
FFFFFFFFFF
FFFFFFFFFF
FFFFFFFFFF
FFFFFFFFFF
FFFFFFFFFF
F80000003F
F80000003F
F80000003F
F80000003F
F80000003F
F80000003F
F80000003F
F80000003F
F80000003F
F80000003F
F80000003F
F80000003F
F80000003F
F80000003F
F80000003F
F80000003F
F80000003F
F80000003F
F80000003F
F80000003F
F80000003F
F80000003F
F80000003E
700000001C
ENDCHAR
STARTCHAR hcircumflex
ENCODING 293
SWIDTH 556 0
DWIDTH 42 0
BBX 31 63 6 0
BITMAP
00003800
00007C00
0000FE00
0001FF00
0001FF80
0003EF80
0007EFC0
000FC7E0
000F83E0
001F01F0
003F01F8
703E00F8
F87C007C
F878003C
F8300018
F8000000
F8000000
F8000000
F8000000
F8000000
F8000000
F8000000
F8000000
F8000000
F8000000
F8000000
F807FC00
F81FFF00
F87FFFC0
F8FFFFE0
F9F007F0
FBC003F8
FF8001F8
FF0000F8
FE0000FC
FC00007C
FC00007C
FC00007C
FC00007C
F800007E
F800007E
F800007E
F800007E
F800007E
F800007E
F800007E
F800007E
F800007E
F800007E
F800007E
F800007E
F800007E
F800007E
F800007E
F800007E
F800007E
F800007E
F800007E
F800007E
F800007E
F800007E
F800007C
70000038
ENDCHAR
STARTCHAR Hbar
ENCODING 294
SWIDTH 710 0
DWIDTH 53 0
BBX 49 52 2 0
BITMAP
0380000000E000
07C0000001F000
07C0000001F800
07C0000001F800
07C0000001F800
07C0000001F800
07C0000001F800
07C0000001F800
07C0000001F800
07C0000001F800
07C0000001F800
7FFFFFFFFFFF80
FFFFFFFFFFFF80
FFFFFFFFFFFF80
7FFFFFFFFFFF00
07C0000001F800
07C0000001F800
07C0000001F800
07C0000001F800
07C0000001F800
07C0000001F800
07C0000001F800
07C0000001F800
07FFFFFFFFF800
07FFFFFFFFF800
07FFFFFFFFF800
07FFFFFFFFF800
07FFFFFFFFF800
07C0000001F800
07C0000001F800
07C0000001F800
07C0000001F800
07C0000001F800
07C0000001F800
07C0000001F800
07C0000001F800
07C0000001F800
07C0000001F800
07C0000001F800
07C0000001F800
07C0000001F800
07C0000001F800
07C0000001F800
07C0000001F800
07C0000001F800
07C0000001F800
07C0000001F800
07C0000001F800
07C0000001F800
07C0000001F800
07C0000001F000
0380000000E000
ENDCHAR
STARTCHAR hbar
ENCODING 295
SWIDTH 556 0
DWIDTH 42 0
BBX 31 52 6 0
BITMAP
70000000
F8000000
F8000000
F8000000
F8000000
F8000000
F8000000
F8000000
F8000000
F8000000
F8000000
F8000000
F8000000
F8000000
F8000000
F807FC00
F81FFF00
F87FFFC0
F8FFFFE0
F9F007F0
FBC003F8
FF8001F8
FF0000F8
FE0000FC
FC00007C
FC00007C
FC00007C
FC00007C
F800007E
F800007E
F800007E
F800007E
F800007E
F800007E
F800007E
F800007E
F800007E
F800007E
F800007E
F800007E
F800007E
F800007E
F800007E
F800007E
F800007E
F800007E
F800007E
F800007E
F800007E
F800007E
F800007C
70000038
ENDCHAR
STARTCHAR Itilde
ENCODING 296
SWIDTH 284 0
DWIDTH 21 0
BBX 21 64 0 0
BITMAP
070010
3FF078
7FFFF0
FFFFF0
F0FFE0
E00F80
000000
000000
000000
000000
000000
000000
007000
00F800
00FC00
00FC00
00FC00
00FC00
00FC00
00FC00
00FC00
00FC00
00FC00
00FC00
00FC00
00FC00
00FC00
00FC00
00FC00
00FC00
00FC00
00FC00
00FC00
00FC00
00FC00
00FC00
00FC00
00FC00
00FC00
00FC00
00FC00
00FC00
00FC00
00FC00
00FC00
00FC00
00FC00
00FC00
00FC00
00FC00
00FC00
00FC00
00FC00
00FC00
00FC00
00FC00
00FC00
00FC00
00FC00
00FC00
00FC00
00FC00
00F800
007000
ENDCHAR
STARTCHAR itilde
ENCODING 297
SWIDTH 228 0
DWIDTH 17 0
BBX 21 47 -2 0
BITMAP
070010
3FF078
7FFFF0
FFFFF0
F0FFE0
E00F80
000000
000000
000000
000000
000000
007000
00F800
00F800
00F800
00F800
00F800
00F800
00F800
00F800
00F800
00F800
00F800
00F800
00F800
00F800
00F800
00F800
00F800
00F800
00F800
00F800
00F800
00F800
00F800
00F800
00F800
00F800
00F800
00F800
00F800
00F800
00F800
00F800
00F800
00F800
007000
ENDCHAR
STARTCHAR Imacron
ENCODING 298
SWIDTH 284 0
DWIDTH 21 0
BBX 23 64 -1 0
BITMAP
3FFFF8
FFFFFC
FFFFFE
7FFFFC
000000
000000
000000
000000
000000
000000
000000
000000
003800
007C00
007E00
007E00
007E00
007E00
007E00
007E00
007E00
007E00
007E00
007E00
007E00
007E00
007E00
007E00
007E00
007E00
007E00
007E00
007E00
007E00
007E00
007E00
007E00
007E00
007E00
007E00
007E00
007E00
007E00
007E00
007E00
007E00
007E00
007E00
007E00
007E00
007E00
007E00
007E00
007E00
007E00
007E00
007E00
007E00
007E00
007E00
007E00
007E00
007C00
003800
ENDCHAR
STARTCHAR imacron
ENCODING 299
SWIDTH 228 0
DWIDTH 17 0
BBX 23 48 -3 0
BITMAP
3FFFF8
FFFFFC
FFFFFE
7FFFFC
000000
000000
000000
000000
000000
000000
000000
000000
003800
007C00
007C00
007C00
007C00
007C00
007C00
007C00
007C00
007C00
007C00
007C00
007C00
007C00
007C00
007C00
007C00
007C00
007C00
007C00
007C00
007C00
007C00
007C00
007C00
007C00
007C00
007C00
007C00
007C00
007C00
007C00
007C00
007C00
007C00
003800
ENDCHAR
STARTCHAR Ibreve
ENCODING 300
SWIDTH 284 0
DWIDTH 21 0
BBX 19 69 2 0
BITMAP
E000E0
E001E0
F001E0
FC07C0
7FFFC0
3FFF80
1FFE00
03F800
000000
000000
000000
000000
000000
000000
000000
000000
000000
01C000
03E000
03F000
03F000
03F000
03F000
03F000
03F000
03F000
03F000
03F000
03F000
03F000
03F000
03F000
03F000
03F000
03F000
03F000
03F000
03F000
03F000
03F000
03F000
03F000
03F000
03F000
03F000
03F000
03F000
03F000
03F000
03F000
03F000
03F000
03F000
03F000
03F000
03F000
03F000
03F000
03F000
03F000
03F000
03F000
03F000
03F000
03F000
03F000
03F000
03E000
01C000
ENDCHAR
STARTCHAR ibreve
ENCODING 301
SWIDTH 228 0
DWIDTH 17 0
BBX 19 52 -1 0
BITMAP
E000E0
E001E0
F001E0
FC07C0
7FFFC0
3FFF80
1FFE00
03F800
000000
000000
000000
000000
000000
000000
000000
000000
00E000
01F000
01F000
01F000
01F000
01F000
01F000
01F000
01F000
01F000
01F000
01F000
01F000
01F000
01F000
01F000
01F000
01F000
01F000
01F000
01F000
01F000
01F000
01F000
01F000
01F000
01F000
01F000
01F000
01F000
01F000
01F000
01F000
01F000
01F000
00E000
ENDCHAR
STARTCHAR Iogonek
ENCODING 302
SWIDTH 284 0
DWIDTH 21 0
BBX 13 67 5 -15
BITMAP
0E00
1F00
1F80
1F80
1F80
1F80
1F80
1F80
1F80
1F80
1F80
1F80
1F80
1F80
1F80
1F80
1F80
1F80
1F80
1F80
1F80
1F80
1F80
1F80
1F80
1F80
1F80
1F80
1F80
1F80
1F80
1F80
1F80
1F80
1F80
1F80
1F80
1F80
1F80
1F80
1F80
1F80
1F80
1F80
1F80
1F80
1F80
1F80
1F80
1F80
1F00
0F00
0C00
1C00
3C00
3800
7800
7800
F800
F800
F800
FC00
FF00
FFF8
7FF8
3FF8
0FE0
ENDCHAR
STARTCHAR iogonek
ENCODING 303
SWIDTH 228 0
DWIDTH 17 0
BBX 13 66 3 -16
BITMAP
1E00
3F00
3F80
7F80
3F80
3F00
1E00
0000
0000
0000
0000
0000
0000
0000
0E00
1F00
1F00
1F00
1F00
1F00
1F00
1F00
1F00
1F00
1F00
1F00
1F00
1F00
1F00
1F00
1F00
1F00
1F00
1F00
1F00
1F00
1F00
1F00
1F00
1F00
1F00
1F00
1F00
1F00
1F00
1F00
1F00
1F00
1F00
0E00
0E00
0C00
1C00
3C00
3800
7800
7800
F800
F800
F800
FC00
FF00
FFF8
7FF8
3FF8
0FE0
ENDCHAR
STARTCHAR Idotaccent
ENCODING 304
SWIDTH 284 0
DWIDTH 21 0
BBX 8 66 7 0
BITMAP
3C
7E
7F
FF
7F
7E
3C
00
00
00
00
00
00
00
38
7C
7E
7E
7E
7E
7E
7E
7E
7E
7E
7E
7E
7E
7E
7E
7E
7E
7E
7E
7E
7E
7E
7E
7E
7E
7E
7E
7E
7E
7E
7E
7E
7E
7E
7E
7E
7E
7E
7E
7E
7E
7E
7E
7E
7E
7E
7E
7E
7E
7C
38
ENDCHAR
STARTCHAR dotlessi
ENCODING 305
SWIDTH 228 0
DWIDTH 17 0
BBX 5 36 6 0
BITMAP
70
F8
F8
F8
F8
F8
F8
F8
F8
F8
F8
F8
F8
F8
F8
F8
F8
F8
F8
F8
F8
F8
F8
F8
F8
F8
F8
F8
F8
F8
F8
F8
F8
F8
F8
70
ENDCHAR
STARTCHAR IJ
ENCODING 306
SWIDTH 767 0
DWIDTH 58 0
BBX 44 53 8 -1
BITMAP
7000000001E0
F800000001F0
FC00000003F0
FC00000003F0
FC00000003F0
FC00000003F0
FC00000003F0
FC00000003F0
FC00000003F0
FC00000003F0
FC00000003F0
FC00000003F0
FC00000003F0
FC00000003F0
FC00000003F0
FC00000003F0
FC00000003F0
FC00000003F0
FC00000003F0
FC00000003F0
FC00000003F0
FC00000003F0
FC00000003F0
FC00000003F0
FC00000003F0
FC00000003F0
FC00000003F0
FC00000003F0
FC00000003F0
FC00000003F0
FC00000003F0
FC00000003F0
FC00000003F0
FC00000003F0
FC00000003F0
FC00000003F0
FC00000003F0
FC00000003F0
FC00000003F0
FC00000003F0
FC00000003F0
FC00000007F0
FC00000007E0
FC00000007E0
FC0070000FE0
FC00F8001FC0
FC00FE003FC0
FC00FF80FF80
FC007FFFFF00
FC003FFFFE00
F8001FFFF800
780007FFF000
000000FF8000
ENDCHAR
STARTCHAR ij
ENCODING 307
SWIDTH 473 0
DWIDTH 35 0
BBX 26 66 5 -14
BITMAP
3C000F00
7E001FC0
7F001FC0
FF001FC0
7F001FC0
7E001FC0
3C000F00
00000000
00000000
00000000
00000000
00000000
00000000
00000000
00000000
00000000
1C000700
3E000F80
3E000F80
3E000F80
3E000F80
3E000F80
3E000F80
3E000F80
3E000F80
3E000F80
3E000F80
3E000F80
3E000F80
3E000F80
3E000F80
3E000F80
3E000F80
3E000F80
3E000F80
3E000F80
3E000F80
3E000F80
3E000F80
3E000F80
3E000F80
3E000F80
3E000F80
3E000F80
3E000F80
3E000F80
3E000F80
3E000F80
3E000F80
3E000F80
3E000F80
1C000F80
00000F80
00000F80
00000F80
00000F80
00000F80
00000F80
00000F80
00000F80
00001F80
00003F80
0007FF00
000FFE00
000FFC00
000FF000
ENDCHAR
STARTCHAR Jcircumflex
ENCODING 308
SWIDTH 482 0
DWIDTH 36 0
BBX 35 74 3 -1
BITMAP
000001C000
000003E000
000007F000
00000FF800
00000FFC00
00001F7C00
00003F7E00
00007E3F00
00007C1F00
0000F80F80
0001F80FC0
0001F007C0
0003E003E0
0003C001E0
00018000C0
0000000000
0000000000
0000000000
0000000000
0000000000
0000000000
000001E000
000001F000
000003F000
000003F000
000003F000
000003F000
000003F000
000003F000
000003F000
000003F000
000003F000
000003F000
000003F000
000003F000
000003F000
000003F000
000003F000
000003F000
000003F000
000003F000
000003F000
000003F000
000003F000
000003F000
000003F000
000003F000
000003F000
000003F000
000003F000
000003F000
000003F000
000003F000
000003F000
000003F000
000003F000
000003F000
000003F000
000003F000
000003F000
000003F000
000003F000
000007F000
000007E000
000007E000
70000FE000
F8001FC000
FE003FC000
FF80FF8000
7FFFFF0000
3FFFFE0000
1FFFF80000
07FFF00000
00FF800000
ENDCHAR
STARTCHAR jcircumflex
ENCODING 309
SWIDTH 228 0
DWIDTH 17 0
BBX 21 70 -2 -14
BITMAP
007000
00F800
01FC00
03FE00
03FF00
07DF00
0FDF80
1F8FC0
1F07C0
3E03E0
7E03F0
7C01F0
F800F8
F00078
600030
000000
000000
000000
000000
000000
007000
00F800
00F800
00F800
00F800
00F800
00F800
00F800
00F800
00F800
00F800
00F800
00F800
00F800
00F800
00F800
00F800
00F800
00F800
00F800
00F800
00F800
00F800
00F800
00F800
00F800
00F800
00F800
00F800
00F800
00F800
00F800
00F800
00F800
00F800
00F800
00F800
00F800
00F800
00F800
00F800
00F800
00F800
00F800
01F800
01F800
7FF000
FFF000
FFE000
7F0000
ENDCHAR
STARTCHAR Kcommaaccent
ENCODING 310
SWIDTH 599 0
DWIDTH 45 0
BBX 35 73 7 -21
BITMAP
7000000780
F800000F80
F800001F80
F800003F80
F800007F00
F80000FE00
F80001FC00
F80003F800
F80007F000
F8000FE000
F8001FC000
F8001F8000
F8003F0000
F8007E0000
F800FC0000
F801F80000
F803F00000
F807E00000
F80FC00000
F81F800000
F83F000000
F87E000000
F8FC000000
F9F8000000
FBF0000000
FFE0000000
FFF8000000
FBFC000000
F9FE000000
F8FF000000
F87F800000
F83FC00000
F81FE00000
F807F00000
F803F80000
F801FC0000
F800FE0000
F8007F0000
F8003F8000
F8001FC000
F8000FE000
F80007F000
F80003F800
F80001FC00
F80000FE00
F800007F80
F800003FC0
F800001FE0
F800000FE0
F8000007E0
F8000003E0
70000001C0
0000000000
0000000000
0000000000
0007C00000
000FC00000
000FC00000
000FC00000
000F800000
000F800000
000F800000
001F000000
001F000000
001F000000
001E000000
001E000000
001E000000
003C000000
003C000000
003C000000
0038000000
0038000000
ENDCHAR
STARTCHAR kcommaaccent
ENCODING 311
SWIDTH 474 0
DWIDTH 36 0
BBX 27 73 6 -21
BITMAP
70000000
F8000000
F8000000
F8000000
F8000000
F8000000
F8000000
F8000000
F8000000
F8000000
F8000000
F8000000
F8000000
F8000000
F8000000
F8000180
F80007C0
F8000FC0
F8001FC0
F8003F80
F8007F00
F800FE00
F801FC00
F803F000
F807E000
F81FC000
F83F8000
F87F0000
F8FE0000
F9FC0000
FBF80000
FFE00000
FBF00000
FBF80000
F9FC0000
F8FE0000
F87F0000
F83F8000
F81FC000
F80FE000
F807E000
F803F000
F801F800
F800FC00
F8007E00
F8003F00
F8001F80
F8000FC0
F8000FE0
F80007E0
F80003E0
700001C0
00000000
00000000
00000000
003E0000
007E0000
007E0000
007E0000
007C0000
007C0000
007C0000
00F80000
00F80000
00F80000
00F00000
00F00000
00F00000
01E00000
01E00000
01E00000
01C00000
01C00000
ENDCHAR
STARTCHAR kgreenlandic
ENCODING 312
SWIDTH 475 0
DWIDTH 36 0
BBX 27 37 6 0
BITMAP
70000180
F80003C0
F80007C0
F8001FC0
F8003F80
F8007F00
F800FE00
F801FC00
F803F800
F807F000
F80FE000
F81FC000
F83F8000
F87F0000
F8FE0000
F9FC0000
FBF00000
FFE00000
FFF00000
FBF80000
F9FC0000
F8FE0000
F87F0000
F83F8000
F81FC000
F80FE000
F807F000
F803F800
F801FC00
F800FE00
F8007F00
F8003F80
F8001FC0
F8000FE0
F80007E0
F80003E0
700001C0
ENDCHAR
STARTCHAR Lacute
ENCODING 313
SWIDTH 530 0
DWIDTH 40 0
BBX 32 73 7 0
BITMAP
0001C000
0003E000
0007E000
000FE000
001FC000
003F8000
007F0000
00FC0000
01F80000
03F00000
07C00000
0F800000
0F000000
0C000000
00000000
00000000
00000000
00000000
00000000
00000000
00000000
70000000
F8000000
F8000000
F8000000
F8000000
F8000000
F8000000
F8000000
F8000000
F8000000
F8000000
F8000000
F8000000
F8000000
F8000000
F8000000
F8000000
F8000000
F8000000
F8000000
F8000000
F8000000
F8000000
F8000000
F8000000
F8000000
F8000000
F8000000
F8000000
F8000000
F8000000
F8000000
F8000000
F8000000
F8000000
F8000000
F8000000
F8000000
F8000000
F8000000
F8000000
F8000000
F8000000
F8000000
F8000000
F8000000
F8000000
FFFFFFFE
FFFFFFFF
FFFFFFFF
FFFFFFFF
7FFFFFFE
ENDCHAR
STARTCHAR lacute
ENCODING 314
SWIDTH 237 0
DWIDTH 18 0
BBX 17 72 7 0
BITMAP
000700
000F80
001F80
003F80
007F00
00FE00
01FC00
03F000
07E000
0FC000
1F0000
3E0000
3C0000
300000
000000
000000
000000
000000
000000
000000
700000
F80000
F80000
F80000
F80000
F80000
F80000
F80000
F80000
F80000
F80000
F80000
F80000
F80000
F80000
F80000
F80000
F80000
F80000
F80000
F80000
F80000
F80000
F80000
F80000
F80000
F80000
F80000
F80000
F80000
F80000
F80000
F80000
F80000
F80000
F80000
F80000
F80000
F80000
F80000
F80000
F80000
F80000
F80000
F80000
F80000
F80000
F80000
F80000
F80000
F80000
700000
ENDCHAR
STARTCHAR Lcommaaccent
ENCODING 315
SWIDTH 530 0
DWIDTH 40 0
BBX 32 73 7 -21
BITMAP
70000000
F8000000
F8000000
F8000000
F8000000
F8000000
F8000000
F8000000
F8000000
F8000000
F8000000
F8000000
F8000000
F8000000
F8000000
F8000000
F8000000
F8000000
F8000000
F8000000
F8000000
F8000000
F8000000
F8000000
F8000000
F8000000
F8000000
F8000000
F8000000
F8000000
F8000000
F8000000
F8000000
F8000000
F8000000
F8000000
F8000000
F8000000
F8000000
F8000000
F8000000
F8000000
F8000000
F8000000
F8000000
F8000000
F8000000
FFFFFFFE
FFFFFFFF
FFFFFFFF
FFFFFFFF
7FFFFFFE
00000000
00000000
00000000
0003E000
0007E000
0007E000
0007E000
0007C000
0007C000
0007C000
000F8000
000F8000
000F8000
000F0000
000F0000
000F0000
001E0000
001E0000
001E0000
001C0000
001C0000
ENDCHAR
STARTCHAR lcommaaccent
ENCODING 316
SWIDTH 237 0
DWIDTH 18 0
BBX 9 73 3 -21
BITMAP
0700
0F80
0F80
0F80
0F80
0F80
0F80
0F80
0F80
0F80
0F80
0F80
0F80
0F80
0F80
0F80
0F80
0F80
0F80
0F80
0F80
0F80
0F80
0F80
0F80
0F80
0F80
0F80
0F80
0F80
0F80
0F80
0F80
0F80
0F80
0F80
0F80
0F80
0F80
0F80
0F80
0F80
0F80
0F80
0F80
0F80
0F80
0F80
0F80
0F80
0F80
0700
0000
0000
0000
1F00
3F00
3F00
3F00
3E00
3E00
3E00
7C00
7C00
7C00
7800
7800
7800
F000
F000
F000
E000
E000
ENDCHAR
STARTCHAR Lcaron
ENCODING 317
SWIDTH 530 0
DWIDTH 40 0
BBX 32 54 7 0
BITMAP
000001F0
000003F0
700003F0
F80003F0
F80003E0
F80003E0
F80007E0
F80007C0
F80007C0
F80007C0
F8000780
F8000780
F8000780
F8000F00
F8000F00
F8000F00
F8000E00
F8000E00
F8000000
F8000000
F8000000
F8000000
F8000000
F8000000
F8000000
F8000000
F8000000
F8000000
F8000000
F8000000
F8000000
F8000000
F8000000
F8000000
F8000000
F8000000
F8000000
F8000000
F8000000
F8000000
F8000000
F8000000
F8000000
F8000000
F8000000
F8000000
F8000000
F8000000
F8000000
FFFFFFFE
FFFFFFFF
FFFFFFFF
FFFFFFFF
7FFFFFFE
ENDCHAR
STARTCHAR lcaron
ENCODING 318
SWIDTH 237 0
DWIDTH 18 0
BBX 21 54 7 0
BITMAP
0000F8
0001F8
7001F8
F801F8
F801F0
F801F0
F803F0
F803E0
F803E0
F803E0
F803C0
F803C0
F803C0
F80780
F80780
F80780
F80700
F80700
F80000
F80000
F80000
F80000
F80000
F80000
F80000
F80000
F80000
F80000
F80000
F80000
F80000
F80000
F80000
F80000
F80000
F80000
F80000
F80000
F80000
F80000
F80000
F80000
F80000
F80000
F80000
F80000
F80000
F80000
F80000
F80000
F80000
F80000
F80000
700000
ENDCHAR
STARTCHAR Ldot
ENCODING 319
SWIDTH 530 0
DWIDTH 40 0
BBX 32 52 7 0
BITMAP
70000000
F8000000
F8000000
F8000000
F8000000
F8000000
F8000000
F8000000
F8000000
F8000000
F8000000
F8000000
F8000000
F8000000
F8000000
F8000000
F8000000
F8000000
F8000000
F8000000
F8000000
F8000000
F801E000
F803F000
F807F000
F807F000
F807F000
F803F000
F801E000
F8000000
F8000000
F8000000
F8000000
F8000000
F8000000
F8000000
F8000000
F8000000
F8000000
F8000000
F8000000
F8000000
F8000000
F8000000
F8000000
F8000000
F8000000
FFFFFFFE
FFFFFFFF
FFFFFFFF
FFFFFFFF
7FFFFFFE
ENDCHAR
STARTCHAR ldot
ENCODING 320
SWIDTH 237 0
DWIDTH 18 0
BBX 17 52 7 0
BITMAP
700000
F80000
F80000
F80000
F80000
F80000
F80000
F80000
F80000
F80000
F80000
F80000
F80000
F80000
F80000
F80000
F80000
F80000
F80000
F80000
F80000
F80000
F80000
F80000
F80F00
F81F80
F83F80
F83F80
F83F80
F81F80
F80F00
F80000
F80000
F80000
F80000
F80000
F80000
F80000
F80000
F80000
F80000
F80000
F80000
F80000
F80000
F80000
F80000
F80000
F80000
F80000
F80000
700000
ENDCHAR
STARTCHAR Lslash
ENCODING 321
SWIDTH 559 0
DWIDTH 42 0
BBX 37 52 2 0
BITMAP
0380000000
07C0000000
07C0000000
07C0000000
07C0000000
07C0000000
07C0000000
07C0000000
07C0000000
07C0000000
07C0000000
07C0000000
07C0000000
07C0000000
07C0000000
07C0000000
07C0C00000
07C3C00000
07C7E00000
07DFC00000
07FF800000
07FE000000
07FC000000
07F0000000
1FE0000000
3FC0000000
FFC0000000
FFC0000000
F7C0000000
E7C0000000
07C0000000
07C0000000
07C0000000
07C0000000
07C0000000
07C0000000
07C0000000
07C0000000
07C0000000
07C0000000
07C0000000
07C0000000
07C0000000
07C0000000
07C0000000
07C0000000
07C0000000
07FFFFFFF0
07FFFFFFF8
07FFFFFFF8
07FFFFFFF8
03FFFFFFF0
ENDCHAR
STARTCHAR lslash
ENCODING 322
SWIDTH 308 0
DWIDTH 23 0
BBX 15 52 4 0
BITMAP
0380
07C0
07C0
07C0
07C0
07C0
07C0
07C0
07C0
07C0
07C0
07C0
07C0
07C0
07C0
07C0
07C0
07CE
07DE
07FE
07FE
07F8
07F0
1FC0
3FC0
FFC0
FFC0
F7C0
67C0
07C0
07C0
07C0
07C0
07C0
07C0
07C0
07C0
07C0
07C0
07C0
07C0
07C0
07C0
07C0
07C0
07C0
07C0
07C0
07C0
07C0
07C0
0380
ENDCHAR
STARTCHAR Nacute
ENCODING 323
SWIDTH 727 0
DWIDTH 55 0
BBX 41 73 7 0
BITMAP
00000001C000
00000003E000
00000007E000
0000000FE000
0000001FC000
0000003F8000
0000007F0000
000000FC0000
000001F80000
000003F00000
000007C00000
00000F800000
00000F000000
00000C000000
000000000000
000000000000
000000000000
000000000000
000000000000
000000000000
000000000000
780000000700
FC0000000F80
FE0000001F80
FF0000001F80
FF8000001F80
FF8000001F80
FFC000001F80
FFE000001F80
FFE000001F80
FFF000001F80
FBF800001F80
F9F800001F80
F9FC00001F80
F8FE00001F80
F87E00001F80
F87F00001F80
F83F80001F80
F81F80001F80
F81FC0001F80
F80FE0001F80
F807E0001F80
F807F0001F80
F803F8001F80
F801F8001F80
F800FC001F80
F800FE001F80
F8007F001F80
F8003F001F80
F8003F801F80
F8001FC01F80
F8000FC01F80
F8000FE01F80
F80007F01F80
F80003F01F80
F80003F81F80
F80001FC1F80
F80000FC1F80
F800007E1F80
F800007F1F80
F800003F1F80
F800001F9F80
F800001FDF80
F800000FDF80
F8000007FF80
F8000007FF80
F8000003FF80
F8000001FF80
F8000001FF80
F8000000FF80
F80000007F80
F80000003F00
700000001E00
ENDCHAR
STARTCHAR nacute
ENCODING 324
SWIDTH 559 0
DWIDTH 42 0
BBX 31 56 6 0
BITMAP
00000070
000000F8
000001F8
000003F8
000007F0
00000FE0
00001FC0
00003F00
00007E00
0000FC00
0001F000
0003E000
0003C000
00030000
00000000
00000000
00000000
00000000
00000000
0007FC00
701FFF00
F87FFFC0
F8FFFFE0
F9F00FF0
FBC003F8
FB8001F8
FF0000F8
FE0000FC
FE00007C
FC00007C
FC00007C
FC00007C
F800007E
F800007E
F800007E
F800007E
F800007E
F800007E
F800007E
F800007E
F800007E
F800007E
F800007E
F800007E
F800007E
F800007E
F800007E
F800007E
F800007E
F800007E
F800007E
F800007E
F800007E
F800007E
F800007C
70000038
ENDCHAR
STARTCHAR Ncommaaccent
ENCODING 325
SWIDTH 727 0
DWIDTH 55 0
BBX 41 73 7 -21
BITMAP
780000000700
FC0000000F80
FE0000001F80
FF0000001F80
FF8000001F80
FF8000001F80
FFC000001F80
FFE000001F80
FFE000001F80
FFF000001F80
FBF800001F80
F9F800001F80
F9FC00001F80
F8FE00001F80
F87E00001F80
F87F00001F80
F83F80001F80
F81F80001F80
F81FC0001F80
F80FE0001F80
F807E0001F80
F807F0001F80
F803F8001F80
F801F8001F80
F800FC001F80
F800FE001F80
F8007F001F80
F8003F001F80
F8003F801F80
F8001FC01F80
F8000FC01F80
F8000FE01F80
F80007F01F80
F80003F01F80
F80003F81F80
F80001FC1F80
F80000FC1F80
F800007E1F80
F800007F1F80
F800003F1F80
F800001F9F80
F800001FDF80
F800000FDF80
F8000007FF80
F8000007FF80
F8000003FF80
F8000001FF80
F8000001FF80
F8000000FF80
F80000007F80
F80000003F00
700000001E00
000000000000
000000000000
000000000000
00003E000000
00007E000000
00007E000000
00007E000000
00007C000000
00007C000000
00007C000000
0000F8000000
0000F8000000
0000F8000000
0000F0000000
0000F0000000
0000F0000000
0001E0000000
0001E0000000
0001E0000000
0001C0000000
0001C0000000
ENDCHAR
STARTCHAR ncommaaccent
ENCODING 326
SWIDTH 559 0
DWIDTH 42 0
BBX 31 58 6 -21
BITMAP
0007FC00
701FFF00
F87FFFC0
F8FFFFE0
F9F00FF0
FBC003F8
FB8001F8
FF0000F8
FE0000FC
FE00007C
FC00007C
FC00007C
FC00007C
F800007E
F800007E
F800007E
F800007E
F800007E
F800007E
F800007E
F800007E
F800007E
F800007E
F800007E
F800007E
F800007E
F800007E
F800007E
F800007E
F800007E
F800007E
F800007E
F800007E
F800007E
F800007E
F800007C
70000038
00000000
00000000
00000000
000F8000
001F8000
001F8000
001F8000
001F0000
001F0000
001F0000
003E0000
003E0000
003E0000
003C0000
003C0000
003C0000
00780000
00780000
00780000
00700000
00700000
ENDCHAR
STARTCHAR Ncaron
ENCODING 327
SWIDTH 727 0
DWIDTH 55 0
BBX 41 71 7 0
BITMAP
000C00060000
001E000F0000
001F001F0000
000F803E0000
000F807E0000
0007C07C0000
0003E0F80000
0003F1F00000
0001FBF00000
0000FBE00000
0000FFC00000
00007FC00000
00003F800000
00001F000000
00000E000000
000000000000
000000000000
000000000000
000000000000
780000000700
FC0000000F80
FE0000001F80
FF0000001F80
FF8000001F80
FF8000001F80
FFC000001F80
FFE000001F80
FFE000001F80
FFF000001F80
FBF800001F80
F9F800001F80
F9FC00001F80
F8FE00001F80
F87E00001F80
F87F00001F80
F83F80001F80
F81F80001F80
F81FC0001F80
F80FE0001F80
F807E0001F80
F807F0001F80
F803F8001F80
F801F8001F80
F800FC001F80
F800FE001F80
F8007F001F80
F8003F001F80
F8003F801F80
F8001FC01F80
F8000FC01F80
F8000FE01F80
F80007F01F80
F80003F01F80
F80003F81F80
F80001FC1F80
F80000FC1F80
F800007E1F80
F800007F1F80
F800003F1F80
F800001F9F80
F800001FDF80
F800000FDF80
F8000007FF80
F8000007FF80
F8000003FF80
F8000001FF80
F8000001FF80
F8000000FF80
F80000007F80
F80000003F00
700000001E00
ENDCHAR
STARTCHAR ncaron
ENCODING 328
SWIDTH 559 0
DWIDTH 42 0
BBX 31 54 6 0
BITMAP
018000C0
03C001E0
03E003E0
01F007C0
01F00FC0
00F80F80
007C1F00
007E3E00
003F7E00
001F7C00
001FF800
000FF800
0007F000
0003E000
0001C000
00000000
00000000
0007FC00
701FFF00
F87FFFC0
F8FFFFE0
F9F00FF0
FBC003F8
FB8001F8
FF0000F8
FE0000FC
FE00007C
FC00007C
FC00007C
FC00007C
F800007E
F800007E
F800007E
F800007E
F800007E
F800007E
F800007E
F800007E
F800007E
F800007E
F800007E
F800007E
F800007E
F800007E
F800007E
F800007E
F800007E
F800007E
F800007E
F800007E
F800007E
F800007E
F800007C
70000038
ENDCHAR
STARTCHAR napostrophe
ENCODING 329
SWIDTH 559 0
DWIDTH 42 0
BBX 32 64 5 0
BITMAP
03800000
0FE00000
0FE00000
1FC00000
1FC00000
1FC00000
1F800000
1F800000
1F800000
3F000000
3F000000
3E000000
3E000000
3E000000
7C000000
7C000000
7C000000
78000000
78000000
F8000000
70000000
00000000
00000000
00000000
00000000
00000000
00000000
0003FE00
380FFF80
7C3FFFE0
7C7FFFF0
7CF807F8
7DE001FC
7DC000FC
7F80007C
7F00007E
7F00003E
7E00003E
7E00003E
7E00003E
7C00003F
7C00003F
7C00003F
7C00003F
7C00003F
7C00003F
7C00003F
7C00003F
7C00003F
7C00003F
7C00003F
7C00003F
7C00003F
7C00003F
7C00003F
7C00003F
7C00003F
7C00003F
7C00003F
7C00003F
7C00003F
7C00003F
7C00003E
3800001C
ENDCHAR
STARTCHAR Eng
ENCODING 330
SWIDTH 724 0
DWIDTH 54 0
BBX 41 68 7 -16
BITMAP
780000000700
FC0000000F80
FE0000000F80
FF0000000F80
FF8000000F80
FF8000000F80
FFC000000F80
FFE000000F80
FFE000000F80
FFF000000F80
FBF800000F80
F9F800000F80
F9FC00000F80
F8FE00000F80
F87E00000F80
F83F00000F80
F83F80000F80
F81F80000F80
F80FC0000F80
F80FE0000F80
F807F0000F80
F803F0000F80
F801F8000F80
F801FC000F80
F800FC000F80
F8007E000F80
F8007F000F80
F8003F000F80
F8001F800F80
F8000FC00F80
F8000FC00F80
F80007E00F80
F80003F00F80
F80003F00F80
F80001F80F80
F80000FC0F80
F800007C0F80
F800007E0F80
F800003F0F80
F800001F0F80
F800001F8F80
F800000FCF80
F8000007CF80
F8000003EF80
F8000003FF80
F8000001FF80
F8000000FF80
F8000000FF80
F80000007F80
F80000003F80
F80000001F80
700000001F80
000000000F80
000000001F80
000000001F80
000000001F80
000000001F80
000000001F00
000000001F00
000000001F00
000000003F00
000000003E00
0001C0007E00
0003FE01FC00
0003FFFFF800
0003FFFFF000
0000FFFFE000
000007FF0000
ENDCHAR
STARTCHAR eng
ENCODING 331
SWIDTH 562 0
DWIDTH 42 0
BBX 31 48 6 -11
BITMAP
0007FC00
701FFF00
F87FFFC0
F8FFFFE0
F9F00FF0
FBC003F8
FB8001F8
FF0000FC
FE0000FC
FE00007C
FC00007C
FC00007C
FC00007C
F800007E
F800007E
F800007E
F800007E
F800007E
F800007E
F800007E
F800007E
F800007E
F800007E
F800007E
F800007E
F800007E
F800007E
F800007E
F800007E
F800007E
F800007E
F800007E
F800007E
F800007E
F800007E
F800007E
7000007C
0000007C
0000007C
0000007C
000000FC
000000F8
000001F8
01F803F0
01FFFFE0
01FFFFC0
007FFF80
0007FC00
ENDCHAR
STARTCHAR Omacron
ENCODING 332
SWIDTH 778 0
DWIDTH 58 0
BBX 49 65 5 -1
BITMAP
0001FFFFC00000
0007FFFFE00000
0007FFFFF00000
0003FFFFE00000
00000000000000
00000000000000
00000000000000
00000000000000
00000000000000
00000000000000
00000000000000
00000000000000
00001FFC000000
0001FFFF800000
0007FFFFF00000
001FFFFFFC0000
007FFFFFFE0000
00FFF007FF0000
01FF8000FF8000
03FE00003FC000
07F800001FE000
07F000000FF000
0FE0000007F000
1FC0000003F800
1FC0000001FC00
3F80000001FC00
3F80000000FC00
3F00000000FE00
7F000000007E00
7E000000007E00
7E000000007F00
7E000000007F00
FE000000003F00
FE000000003F00
FC000000003F00
FC000000003F00
FC000000003F00
FC000000003F00
FC000000003F80
FC000000003F00
FC000000003F00
FC000000003F00
FC000000003F00
FE000000003F00
FE000000003F00
7E000000003F00
7E000000007F00
7E000000007E00
7F000000007E00
3F00000000FE00
3F80000000FC00
3F80000001FC00
1FC0000001FC00
1FC0000003F800
0FE0000007F000
07F000000FF000
07F800001FE000
03FE00003FC000
01FF8000FF8000
00FFF007FF0000
007FFFFFFE0000
001FFFFFFC0000
0007FFFFF00000
0001FFFF800000
00001FFC000000
ENDCHAR
STARTCHAR omacron
ENCODING 333
SWIDTH 553 0
DWIDTH 41 0
BBX 36 49 3 -1
BITMAP
00FFFFE000
03FFFFF000
03FFFFF800
01FFFFF000
0000000000
0000000000
0000000000
0000000000
0000000000
0000000000
0000000000
0003FE0000
003FFFC000
007FFFF000
01FFFFF800
03FC01FC00
07F0007E00
0FC0003F00
1F80001F80
1F00000FC0
3F00000FC0
3E000007E0
7E000007E0
7C000003E0
7C000003F0
7C000003F0
FC000003F0
FC000001F0
FC000001F0
FC000001F0
FC000001F0
FC000001F0
FC000001F0
FC000003F0
7C000003F0
7C000003F0
7C000003E0
7E000007E0
3E000007E0
3F000007C0
1F00000FC0
1F80001F80
0FC0003F00
07E0007E00
03F801FC00
01FFFFF800
00FFFFF000
003FFFC000
0003FE0000
ENDCHAR
STARTCHAR Obreve
ENCODING 334
SWIDTH 778 0
DWIDTH 58 0
BBX 49 70 5 -1
BITMAP
0001C001C00000
0001C003C00000
0001E003C00000
0001F80F800000
0000FFFF800000
00007FFF000000
00003FFC000000
000007F0000000
00000000000000
00000000000000
00000000000000
00000000000000
00000000000000
00000000000000
00000000000000
00000000000000
00000000000000
00001FFC000000
0001FFFF800000
0007FFFFF00000
001FFFFFFC0000
007FFFFFFE0000
00FFF007FF0000
01FF8000FF8000
03FE00003FC000
07F800001FE000
07F000000FF000
0FE0000007F000
1FC0000003F800
1FC0000001FC00
3F80000001FC00
3F80000000FC00
3F00000000FE00
7F000000007E00
7E000000007E00
7E000000007F00
7E000000007F00
FE000000003F00
FE000000003F00
FC000000003F00
FC000000003F00
FC000000003F00
FC000000003F00
FC000000003F80
FC000000003F00
FC000000003F00
FC000000003F00
FC000000003F00
FE000000003F00
FE000000003F00
7E000000003F00
7E000000007F00
7E000000007E00
7F000000007E00
3F00000000FE00
3F80000000FC00
3F80000001FC00
1FC0000001FC00
1FC0000003F800
0FE0000007F000
07F000000FF000
07F800001FE000
03FE00003FC000
01FF8000FF8000
00FFF007FF0000
007FFFFFFE0000
001FFFFFFC0000
0007FFFFF00000
0001FFFF800000
00001FFC000000
ENDCHAR
STARTCHAR obreve
ENCODING 335
SWIDTH 553 0
DWIDTH 41 0
BBX 36 54 3 -1
BITMAP
00E000E000
00E001E000
00F001E000
00FC07C000
007FFFC000
003FFF8000
001FFE0000
0003F80000
0000000000
0000000000
0000000000
0000000000
0000000000
0000000000
0000000000
0000000000
0003FE0000
003FFFC000
007FFFF000
01FFFFF800
03FC01FC00
07F0007E00
0FC0003F00
1F80001F80
1F00000FC0
3F00000FC0
3E000007E0
7E000007E0
7C000003E0
7C000003F0
7C000003F0
FC000003F0
FC000001F0
FC000001F0
FC000001F0
FC000001F0
FC000001F0
FC000001F0
FC000003F0
7C000003F0
7C000003F0
7C000003E0
7E000007E0
3E000007E0
3F000007C0
1F00000FC0
1F80001F80
0FC0003F00
07E0007E00
03F801FC00
01FFFFF800
00FFFFF000
003FFFC000
0003FE0000
ENDCHAR
STARTCHAR Ohungarumlaut
ENCODING 336
SWIDTH 778 0
DWIDTH 58 0
BBX 49 70 5 -1
BITMAP
0000000E01C000
0000001F03E000
0000003F87F000
0000007F8FF000
0000007F0FE000
000000FE1FC000
000001F83F0000
000003F07E0000
000007E0FC0000
00000F81F80000
00001F03E00000
00003E07C00000
00007C07800000
00003006000000
00000000000000
00000000000000
00000000000000
00001FFC000000
0001FFFF800000
0007FFFFF00000
001FFFFFFC0000
007FFFFFFE0000
00FFF007FF0000
01FF8000FF8000
03FE00003FC000
07F800001FE000
07F000000FF000
0FE0000007F000
1FC0000003F800
1FC0000001FC00
3F80000001FC00
3F80000000FC00
3F00000000FE00
7F000000007E00
7E000000007E00
7E000000007F00
7E000000007F00
FE000000003F00
FE000000003F00
FC000000003F00
FC000000003F00
FC000000003F00
FC000000003F00
FC000000003F80
FC000000003F00
FC000000003F00
FC000000003F00
FC000000003F00
FE000000003F00
FE000000003F00
7E000000003F00
7E000000007F00
7E000000007E00
7F000000007E00
3F00000000FE00
3F80000000FC00
3F80000001FC00
1FC0000001FC00
1FC0000003F800
0FE0000007F000
07F000000FF000
07F800001FE000
03FE00003FC000
01FF8000FF8000
00FFF007FF0000
007FFFFFFE0000
001FFFFFFC0000
0007FFFFF00000
0001FFFF800000
00001FFC000000
ENDCHAR
STARTCHAR ohungarumlaut
ENCODING 337
SWIDTH 553 0
DWIDTH 41 0
BBX 37 54 3 -1
BITMAP
00000700E0
00000F81F0
00001FC3F8
00003FC7F8
00003F87F0
00007F0FE0
0000FC1F80
0001F83F00
0003F07E00
0007C0FC00
000F81F000
001F03E000
003E03C000
0018030000
0000000000
0000000000
0003FE0000
003FFFC000
007FFFF000
01FFFFF800
03FC01FC00
07F0007E00
0FC0003F00
1F80001F80
1F00000FC0
3F00000FC0
3E000007E0
7E000007E0
7C000003E0
7C000003F0
7C000003F0
FC000003F0
FC000001F0
FC000001F0
FC000001F0
FC000001F0
FC000001F0
FC000001F0
FC000003F0
7C000003F0
7C000003F0
7C000003E0
7E000007E0
3E000007E0
3F000007C0
1F00000FC0
1F80001F80
0FC0003F00
07E0007E00
03F801FC00
01FFFFF800
00FFFFF000
003FFFC000
0003FE0000
ENDCHAR
STARTCHAR OE
ENCODING 338
SWIDTH 975 0
DWIDTH 73 0
BBX 64 53 4 -1
BITMAP
00007FFFFFFFFFFE
0003FFFFFFFFFFFE
000FFFFFFFFFFFFF
003FFFFFFFFFFFFE
007FFFFFFFFFFFFC
00FFE0000F800000
01FF00000F800000
03FC00000F800000
07F800000F800000
07F000000F800000
0FE000000F800000
0FC000000F800000
1FC000000F800000
1F8000000F800000
3F8000000F800000
3F0000000F800000
3F0000000F800000
7F0000000F800000
7E0000000F800000
7E0000000F800000
7E0000000F800000
7E0000000F800000
7E0000000F800000
7E0000000FFFFFF8
FC0000000FFFFFFC
FC0000000FFFFFFC
FC0000000FFFFFFC
FC0000000FFFFFF8
FC0000000F800000
7E0000000F800000
7E0000000F800000
7E0000000F800000
7E0000000F800000
7E0000000F800000
7E0000000F800000
7F0000000F800000
3F0000000F800000
3F0000000F800000
3F8000000F800000
1F8000000F800000
1FC000000F800000
0FC000000F800000
0FE000000F800000
07F000000F800000
07F800000F800000
03FC00000F800000
01FF00000F800000
00FFE000FFFFFFFE
007FFFFFFFFFFFFF
003FFFFFFFFFFFFF
000FFFFFFFFFFFFF
0003FFFFFFFFFFFE
00007FFF00000000
ENDCHAR
STARTCHAR oe
ENCODING 339
SWIDTH 893 0
DWIDTH 67 0
BBX 60 38 3 -1
BITMAP
0007FC0000FF8000
003FFF0003FFF000
00FFFFC00FFFF800
01FFFFE01FFFFE00
03FC0FF03F81FF00
07F001F87E003F00
0FE000FCFC001F80
1FC0007EF8000FC0
1F80003FF0000FC0
3F00003FF00007E0
3F00001FE00007E0
7E00001FE00003E0
7E00001FE00003E0
7E00000FC00003F0
7C00000FC00003F0
FC00000FC00001F0
FC00000FFFFFFFF0
FC00000FFFFFFFF0
FC00000FFFFFFFF0
FC00000FFFFFFFE0
FC00000FC0000000
FC00000FC0000000
FC00000FC0000000
7C00000FC0000000
7E00000FE0000000
7E00001FE0000000
7E00001FE0000000
3F00001FF0000000
3F00003FF0000000
1F80003FF8000080
1FC0007FF80003C0
0FE000FCFC0007C0
07F001F87F001FC0
03FC0FF03FC07F80
01FFFFE01FFFFF00
00FFFFC00FFFFC00
003FFF0007FFF000
0007F80000FF8000
ENDCHAR
STARTCHAR Racute
ENCODING 340
SWIDTH 653 0
DWIDTH 49 0
BBX 37 73 7 0
BITMAP
0000001C00
0000003E00
0000007E00
000000FE00
000001FC00
000003F800
000007F000
00000FC000
00001F8000
00003F0000
00007C0000
0000F80000
0000F00000
0000C00000
0000000000
0000000000
0000000000
0000000000
0000000000
0000000000
0000000000
7FFFFF8000
FFFFFFF800
FFFFFFFE00
FFFFFFFF00
FFFFFFFF80
F80000FFC0
F800001FE0
F800000FE0
F8000007F0
F8000003F0
F8000003F0
F8000003F0
F8000001F0
F8000001F8
F8000001F0
F8000003F0
F8000003F0
F8000003F0
F8000007E0
F8000007E0
F800000FC0
F800003F80
F80001FF00
FFFFFFFE00
FFFFFFF000
FFFFFFE000
FFFFFFFC00
FFFFFFFE00
F80000FF00
F800003F80
F800001F80
F800000FC0
F800000FC0
F8000007E0
F8000007E0
F8000007E0
F8000007E0
F8000007E0
F8000007E0
F8000003F0
F8000003F0
F8000003F0
F8000003F0
F8000003F0
F8000003F0
F8000003F0
F8000003F0
F8000003F0
F8000001F8
F8000001F8
F8000001F0
70000000F0
ENDCHAR
STARTCHAR racute
ENCODING 341
SWIDTH 344 0
DWIDTH 26 0
BBX 21 57 6 0
BITMAP
000070
0000F8
0001F8
0003F8
0007F0
000FE0
001FC0
003F00
007E00
00FC00
01F000
03E000
03C000
030000
000000
000000
000000
000000
000000
000000
000780
703FC0
F87FC0
F8FFC0
F9FF80
F9F000
FBC000
FB0000
FF0000
FE0000
FC0000
FC0000
FC0000
F80000
F80000
F80000
F80000
F80000
F80000
F80000
F80000
F80000
F80000
F80000
F80000
F80000
F80000
F80000
F80000
F80000
F80000
F80000
F80000
F80000
F80000
F80000
700000
ENDCHAR
STARTCHAR Rcommaaccent
ENCODING 342
SWIDTH 653 0
DWIDTH 49 0
BBX 37 73 7 -21
BITMAP
7FFFFF8000
FFFFFFF800
FFFFFFFE00
FFFFFFFF00
FFFFFFFF80
F80000FFC0
F800001FE0
F800000FE0
F8000007F0
F8000003F0
F8000003F0
F8000003F0
F8000001F0
F8000001F8
F8000001F0
F8000003F0
F8000003F0
F8000003F0
F8000007E0
F8000007E0
F800000FC0
F800003F80
F80001FF00
FFFFFFFE00
FFFFFFF000
FFFFFFE000
FFFFFFFC00
FFFFFFFE00
F80000FF00
F800003F80
F800001F80
F800000FC0
F800000FC0
F8000007E0
F8000007E0
F8000007E0
F8000007E0
F8000007E0
F8000007E0
F8000003F0
F8000003F0
F8000003F0
F8000003F0
F8000003F0
F8000003F0
F8000003F0
F8000003F0
F8000003F0
F8000001F8
F8000001F8
F8000001F0
70000000F0
0000000000
0000000000
0000000000
0001F00000
0003F00000
0003F00000
0003F00000
0003E00000
0003E00000
0003E00000
0007C00000
0007C00000
0007C00000
0007800000
0007800000
0007800000
000F000000
000F000000
000F000000
000E000000
000E000000
ENDCHAR
STARTCHAR rcommaaccent
ENCODING 343
SWIDTH 344 0
DWIDTH 26 0
BBX 22 58 2 -21
BITMAP
000078
0703FC
0F87FC
0F8FFC
0F9FF8
0F9F00
0FBC00
0FB000
0FF000
0FE000
0FC000
0FC000
0FC000
0F8000
0F8000
0F8000
0F8000
0F8000
0F8000
0F8000
0F8000
0F8000
0F8000
0F8000
0F8000
0F8000
0F8000
0F8000
0F8000
0F8000
0F8000
0F8000
0F8000
0F8000
0F8000
0F8000
070000
000000
000000
000000
1F0000
3F0000
3F0000
3F0000
3E0000
3E0000
3E0000
7C0000
7C0000
7C0000
780000
780000
780000
F00000
F00000
F00000
E00000
E00000
ENDCHAR
STARTCHAR Rcaron
ENCODING 344
SWIDTH 653 0
DWIDTH 49 0
BBX 37 71 7 0
BITMAP
00C0006000
01E000F000
01F001F000
00F803E000
00F807E000
007C07C000
003E0F8000
003F1F0000
001FBF0000
000FBE0000
000FFC0000
0007FC0000
0003F80000
0001F00000
0000E00000
0000000000
0000000000
0000000000
0000000000
7FFFFF8000
FFFFFFF800
FFFFFFFE00
FFFFFFFF00
FFFFFFFF80
F80000FFC0
F800001FE0
F800000FE0
F8000007F0
F8000003F0
F8000003F0
F8000003F0
F8000001F0
F8000001F8
F8000001F0
F8000003F0
F8000003F0
F8000003F0
F8000007E0
F8000007E0
F800000FC0
F800003F80
F80001FF00
FFFFFFFE00
FFFFFFF000
FFFFFFE000
FFFFFFFC00
FFFFFFFE00
F80000FF00
F800003F80
F800001F80
F800000FC0
F800000FC0
F8000007E0
F8000007E0
F8000007E0
F8000007E0
F8000007E0
F8000007E0
F8000003F0
F8000003F0
F8000003F0
F8000003F0
F8000003F0
F8000003F0
F8000003F0
F8000003F0
F8000003F0
F8000001F8
F8000001F8
F8000001F0
70000000F0
ENDCHAR
STARTCHAR rcaron
ENCODING 345
SWIDTH 344 0
DWIDTH 26 0
BBX 21 55 3 0
BITMAP
600030
F00078
F800F8
7C01F0
7C03F0
3E03E0
1F07C0
1F8F80
0FDF80
07DF00
07FE00
03FE00
01FC00
00F800
007000
000000
000000
000000
0000F0
0E07F8
1F0FF8
1F1FF8
1F3FF0
1F3E00
1F7800
1F6000
1FE000
1FC000
1F8000
1F8000
1F8000
1F0000
1F0000
1F0000
1F0000
1F0000
1F0000
1F0000
1F0000
1F0000
1F0000
1F0000
1F0000
1F0000
1F0000
1F0000
1F0000
1F0000
1F0000
1F0000
1F0000
1F0000
1F0000
1F0000
0E0000
ENDCHAR
STARTCHAR Sacute
ENCODING 346
SWIDTH 619 0
DWIDTH 46 0
BBX 37 74 5 -1
BITMAP
0000001C00
0000003E00
0000007E00
000000FE00
000001FC00
000003F800
000007F000
00000FC000
00001F8000
00003F0000
00007C0000
0000F80000
0000F00000
0000C00000
0000000000
0000000000
0000000000
0000000000
0000000000
0000000000
0000000000
0007FE0000
007FFFE000
01FFFFFC00
03FFFFFF00
0FFFFFFF80
1FFC01FFC0
1FE0001FE0
3F800007F0
7F000001E0
7E000000C0
7E00000000
7C00000000
FC00000000
FC00000000
FC00000000
7C00000000
7E00000000
7E00000000
7F00000000
3F80000000
1FE0000000
1FFC000000
07FF800000
03FFF00000
00FFFE0000
003FFFC000
0007FFF000
0000FFFC00
00001FFF00
000003FF80
0000007FC0
0000001FE0
0000000FF0
00000007F0
00000003F0
00000001F8
00000001F8
00000001F8
00000001F8
00000001F8
00000001F8
00000001F8
00000003F0
38000003F0
7C000007F0
FF00000FE0
7FC0003FC0
3FFC01FFC0
1FFFFFFF80
07FFFFFE00
03FFFFFC00
007FFFF000
000FFF0000
ENDCHAR
STARTCHAR sacute
ENCODING 347
SWIDTH 492 0
DWIDTH 37 0
BBX 29 58 4 -1
BITMAP
00000380
000007C0
00000FC0
00001FC0
00003F80
00007F00
0000FE00
0001F800
0003F000
0007E000
000F8000
001F0000
001E0000
00180000
00000000
00000000
00000000
00000000
00000000
00000000
003FF000
03FFFE00
0FFFFFC0
1FFFFFE0
3F800FF0
7E0001E0
7C000000
7C000000
7C000000
F8000000
FC000000
7C000000
7C000000
7F000000
3FC00000
3FFC0000
1FFFC000
07FFFC00
00FFFF00
001FFFC0
0001FFE0
00001FE0
000003F0
000001F0
000000F8
000000F8
000000F8
000000F8
000000F8
000000F8
000000F0
780001F0
FC0003F0
7F800FE0
3FFFFFC0
0FFFFF80
03FFFE00
003FF000
ENDCHAR
STARTCHAR Scircumflex
ENCODING 348
SWIDTH 619 0
DWIDTH 46 0
BBX 37 74 5 -1
BITMAP
0000700000
0000F80000
0001FC0000
0003FE0000
0003FF0000
0007DF0000
000FDF8000
001F8FC000
001F07C000
003E03E000
007E03F000
007C01F000
00F800F800
00F0007800
0060003000
0000000000
0000000000
0000000000
0000000000
0000000000
0000000000
0007FE0000
007FFFE000
01FFFFFC00
03FFFFFF00
0FFFFFFF80
1FFC01FFC0
1FE0001FE0
3F800007F0
7F000001E0
7E000000C0
7E00000000
7C00000000
FC00000000
FC00000000
FC00000000
7C00000000
7E00000000
7E00000000
7F00000000
3F80000000
1FE0000000
1FFC000000
07FF800000
03FFF00000
00FFFE0000
003FFFC000
0007FFF000
0000FFFC00
00001FFF00
000003FF80
0000007FC0
0000001FE0
0000000FF0
00000007F0
00000003F0
00000001F8
00000001F8
00000001F8
00000001F8
00000001F8
00000001F8
00000001F8
00000003F0
38000003F0
7C000007F0
FF00000FE0
7FC0003FC0
3FFC01FFC0
1FFFFFFF80
07FFFFFE00
03FFFFFC00
007FFFF000
000FFF0000
ENDCHAR
STARTCHAR scircumflex
ENCODING 349
SWIDTH 492 0
DWIDTH 37 0
BBX 29 58 4 -1
BITMAP
000E0000
001F0000
003F8000
007FC000
007FE000
00FBE000
01FBF000
03F1F800
03E0F800
07C07C00
0FC07E00
0F803E00
1F001F00
1E000F00
0C000600
00000000
00000000
00000000
00000000
00000000
003FF000
03FFFE00
0FFFFFC0
1FFFFFE0
3F800FF0
7E0001E0
7C000000
7C000000
7C000000
F8000000
FC000000
7C000000
7C000000
7F000000
3FC00000
3FFC0000
1FFFC000
07FFFC00
00FFFF00
001FFFC0
0001FFE0
00001FE0
000003F0
000001F0
000000F8
000000F8
000000F8
000000F8
000000F8
000000F8
000000F0
780001F0
FC0003F0
7F800FE0
3FFFFFC0
0FFFFF80
03FFFE00
003FF000
ENDCHAR
STARTCHAR Scedilla
ENCODING 350
SWIDTH 619 0
DWIDTH 46 0
BBX 37 66 5 -14
BITMAP
0007FE0000
007FFFE000
01FFFFFC00
03FFFFFF00
0FFFFFFF80
1FFC01FFC0
1FE0001FE0
3F800007F0
7F000001E0
7E000000C0
7E00000000
7C00000000
FC00000000
FC00000000
FC00000000
7C00000000
7E00000000
7E00000000
7F00000000
3F80000000
1FE0000000
1FFC000000
07FF800000
03FFF00000
00FFFE0000
003FFFC000
0007FFF000
0000FFFC00
00001FFF00
000003FF80
0000007FC0
0000001FE0
0000000FF0
00000007F0
00000003F0
00000001F8
00000001F8
00000001F8
00000001F8
00000001F8
00000001F8
00000001F8
00000003F0
38000003F0
7C000007F0
FF00000FE0
7FC0003FC0
3FFC01FFC0
1FFFFFFF80
07FFFFFE00
03FFFFFC00
007FFFF000
000FFF0000
0000600000
0000E00000
0000C00000
0000FE0000
0000FF8000
00000F8000
000007C000
000007C000
000007C000
001007C000
001F9F8000
000FFF0000
0003FC0000
ENDCHAR
STARTCHAR scedilla
ENCODING 351
SWIDTH 492 0
DWIDTH 37 0
BBX 29 51 4 -14
BITMAP
003FF000
03FFFE00
0FFFFFC0
1FFFFFE0
3F800FF0
7E0001E0
7C000000
7C000000
7C000000
F8000000
FC000000
7C000000
7C000000
7F000000
3FC00000
3FFC0000
1FFFC000
07FFFC00
00FFFF00
001FFFC0
0001FFE0
00001FE0
000003F0
000001F0
000000F8
000000F8
000000F8
000000F8
000000F8
000000F8
000000F0
780001F0
FC0003F0
7F800FE0
3FFFFFC0
0FFFFF80
03FFFE00
003FF000
00060000
000E0000
000C0000
000FE000
000FF800
0000F800
00007C00
00007C00
00007C00
01007C00
01F9F800
00FFF000
003FC000
ENDCHAR
STARTCHAR Scaron
ENCODING 352
SWIDTH 619 0
DWIDTH 46 0
BBX 37 72 5 -1
BITMAP
0060003000
00F0007800
00F800F800
007C01F000
007C03F000
003E03E000
001F07C000
001F8F8000
000FDF8000
0007DF0000
0007FE0000
0003FE0000
0001FC0000
0000F80000
0000700000
0000000000
0000000000
0000000000
0000000000
0007FE0000
007FFFE000
01FFFFFC00
03FFFFFF00
0FFFFFFF80
1FFC01FFC0
1FE0001FE0
3F800007F0
7F000001E0
7E000000C0
7E00000000
7C00000000
FC00000000
FC00000000
FC00000000
7C00000000
7E00000000
7E00000000
7F00000000
3F80000000
1FE0000000
1FFC000000
07FF800000
03FFF00000
00FFFE0000
003FFFC000
0007FFF000
0000FFFC00
00001FFF00
000003FF80
0000007FC0
0000001FE0
0000000FF0
00000007F0
00000003F0
00000001F8
00000001F8
00000001F8
00000001F8
00000001F8
00000001F8
00000001F8
00000003F0
38000003F0
7C000007F0
FF00000FE0
7FC0003FC0
3FFC01FFC0
1FFFFFFF80
07FFFFFE00
03FFFFFC00
007FFFF000
000FFF0000
ENDCHAR
STARTCHAR scaron
ENCODING 353
SWIDTH 527 0
DWIDTH 40 0
BBX 29 56 4 -1
BITMAP
0C000600
1E000F00
1F001F00
0F803E00
0F807E00
07C07C00
03E0F800
03F1F000
01FBF000
00FBE000
00FFC000
007FC000
003F8000
001F0000
000E0000
00000000
00000000
00000000
003FF000
03FFFE00
0FFFFFC0
1FFFFFE0
3F800FF0
7E0001E0
7C000000
7C000000
7C000000
F8000000
FC000000
7C000000
7C000000
7F000000
3FC00000
3FFC0000
1FFFC000
07FFFC00
00FFFF00
001FFFC0
0001FFE0
00001FE0
000003F0
000001F0
000000F8
000000F8
000000F8
000000F8
000000F8
000000F8
000000F0
780001F0
FC0003F0
7F800FE0
3FFFFFC0
0FFFFF80
03FFFE00
003FF000
ENDCHAR
STARTCHAR Tcommaaccent
ENCODING 354
SWIDTH 562 0
DWIDTH 42 0
BBX 40 66 1 -14
BITMAP
7FFFFFFFFE
FFFFFFFFFF
FFFFFFFFFF
FFFFFFFFFF
7FFFFFFFFE
00007E0000
00007E0000
00007E0000
00007E0000
00007E0000
00007E0000
00007E0000
00007E0000
00007E0000
00007E0000
00007E0000
00007E0000
00007E0000
00007E0000
00007E0000
00007E0000
00007E0000
00007E0000
00007E0000
00007E0000
00007E0000
00007E0000
00007E0000
00007E0000
00007E0000
00007E0000
00007E0000
00007E0000
00007E0000
00007E0000
00007E0000
00007E0000
00007E0000
00007E0000
00007E0000
00007E0000
00007E0000
00007E0000
00007E0000
00007E0000
00007E0000
00007E0000
00007E0000
00007E0000
00007E0000
00003E0000
00003C0000
0000180000
0000180000
0000380000
0000300000
00003F8000
00003FE000
000003E000
000001F000
000001F000
000001F000
000401F000
0007E7E000
0003FFC000
0000FF0000
ENDCHAR
STARTCHAR tcommaaccent
ENCODING 355
SWIDTH 350 0
DWIDTH 26 0
BBX 22 63 2 -14
BITMAP
004000
00E000
01F000
01F000
01F000
01F000
01F000
01F000
01F000
01F000
01F000
01F000
03F000
FFFFF0
FFFFF8
FFFFF8
7FFFF0
03F000
03F000
03F000
03F000
03F000
03F000
03F000
03F000
03F000
03F000
03F000
03F000
03F000
03F000
03F000
03F000
03F000
03F000
03F000
03F000
03F000
03F000
03F000
03F000
01F000
01F000
01F000
01F800
00FC00
00FFF8
007FFC
003FFC
000FF8
000600
000E00
000C00
000FE0
000FF8
0000F8
00007C
00007C
00007C
01007C
01F9F8
00FFF0
003FC0
ENDCHAR
STARTCHAR Tcaron
ENCODING 356
SWIDTH 562 0
DWIDTH 42 0
BBX 40 71 1 0
BITMAP
0018000C00
003C001E00
003E003E00
001F007C00
001F00FC00
000F80F800
0007C1F000
0007E3E000
0003F7E000
0001F7C000
0001FF8000
0000FF8000
00007F0000
00003E0000
00001C0000
0000000000
0000000000
0000000000
0000000000
7FFFFFFFFE
FFFFFFFFFF
FFFFFFFFFF
FFFFFFFFFF
7FFFFFFFFE
00007E0000
00007E0000
00007E0000
00007E0000
00007E0000
00007E0000
00007E0000
00007E0000
00007E0000
00007E0000
00007E0000
00007E0000
00007E0000
00007E0000
00007E0000
00007E0000
00007E0000
00007E0000
00007E0000
00007E0000
00007E0000
00007E0000
00007E0000
00007E0000
00007E0000
00007E0000
00007E0000
00007E0000
00007E0000
00007E0000
00007E0000
00007E0000
00007E0000
00007E0000
00007E0000
00007E0000
00007E0000
00007E0000
00007E0000
00007E0000
00007E0000
00007E0000
00007E0000
00007E0000
00007E0000
00003E0000
00003C0000
ENDCHAR
STARTCHAR tcaron
ENCODING 357
SWIDTH 350 0
DWIDTH 26 0
BBX 28 54 2 -1
BITMAP
000001F0
000003F0
000003F0
000003F0
004003E0
00E003E0
01F007E0
01F007C0
01F007C0
01F007C0
01F00780
01F00780
01F00780
01F00F00
01F00F00
01F00F00
03F00E00
FFFFFE00
FFFFF800
FFFFF800
7FFFF000
03F00000
03F00000
03F00000
03F00000
03F00000
03F00000
03F00000
03F00000
03F00000
03F00000
03F00000
03F00000
03F00000
03F00000
03F00000
03F00000
03F00000
03F00000
03F00000
03F00000
03F00000
03F00000
03F00000
03F00000
01F00000
01F00000
01F00000
01F80000
00FC0000
00FFF800
007FFC00
003FFC00
000FF800
ENDCHAR
STARTCHAR Tbar
ENCODING 358
SWIDTH 562 0
DWIDTH 42 0
BBX 40 52 1 0
BITMAP
7FFFFFFFFE
FFFFFFFFFF
FFFFFFFFFF
FFFFFFFFFF
7FFFFFFFFE
00007E0000
00007E0000
00007E0000
00007E0000
00007E0000
00007E0000
00007E0000
00007E0000
00007E0000
00007E0000
00007E0000
00007E0000
00007E0000
00007E0000
00007E0000
00007E0000
00007E0000
00007E0000
001FFFFC00
007FFFFE00
007FFFFF00
003FFFFE00
00007E0000
00007E0000
00007E0000
00007E0000
00007E0000
00007E0000
00007E0000
00007E0000
00007E0000
00007E0000
00007E0000
00007E0000
00007E0000
00007E0000
00007E0000
00007E0000
00007E0000
00007E0000
00007E0000
00007E0000
00007E0000
00007E0000
00007E0000
00003E0000
00003C0000
ENDCHAR
STARTCHAR tbar
ENCODING 359
SWIDTH 350 0
DWIDTH 26 0
BBX 23 50 1 -1
BITMAP
002000
007000
00F800
00F800
00F800
00F800
00F800
00F800
00F800
00F800
00F800
00F800
01F800
7FFFF8
FFFFFC
7FFFFC
3FFFF8
01F800
01F800
01F800
01F800
01F800
01F800
01F800
01F800
01F800
3FFFF8
FFFFFC
FFFFFE
7FFFFC
01F800
01F800
01F800
01F800
01F800
01F800
01F800
01F800
01F800
01F800
01F800
00F800
00F800
00F800
00FC00
007E00
007FFC
003FFE
001FFE
0007FC
ENDCHAR
STARTCHAR Utilde
ENCODING 360
SWIDTH 726 0
DWIDTH 54 0
BBX 40 65 7 -1
BITMAP
0001C00400
000FFC1E00
001FFFFC00
003FFFFC00
003C3FF800
003803E000
0000000000
0000000000
0000000000
0000000000
0000000000
0000000000
780000000E
FC0000001F
FC0000003F
FC0000003F
FC0000003F
FC0000003F
FC0000003F
FC0000003F
FC0000003F
FC0000003F
FC0000003F
FC0000003F
FC0000003F
FC0000003F
FC0000003F
FC0000003F
FC0000003F
FC0000003F
FC0000003F
FC0000003F
FC0000003F
FC0000003F
FC0000003F
FC0000003F
FC0000003F
FC0000003F
FC0000003F
FC0000003F
FC0000003F
FC0000003F
FC0000003F
FC0000003F
FC0000003F
FC0000003F
FC0000003F
FC0000003F
FC0000003F
FC0000003F
FE0000003F
7E0000007F
7E0000007E
7F000000FE
3F800000FE
3F800001FC
1FC00003FC
0FF00007F8
0FFC001FF0
07FF00FFE0
03FFFFFFC0
00FFFFFF80
003FFFFE00
000FFFF800
0001FF8000
ENDCHAR
STARTCHAR utilde
ENCODING 361
SWIDTH 559 0
DWIDTH 42 0
BBX 31 49 5 -1
BITMAP
00380080
01FF83C0
03FFFF80
07FFFF80
0787FF00
07007C00
00000000
00000000
00000000
00000000
00000000
00000000
7800001C
7C00003E
FC00003E
FC00003E
FC00003E
FC00003E
FC00003E
FC00003E
FC00003E
FC00003E
FC00003E
FC00003E
FC00003E
FC00003E
FC00003E
FC00003E
FC00003E
FC00003E
FC00003E
FC00003E
FC00003E
FC00003E
FC00003E
FC00007E
FC00007E
7C00007E
7C00007E
7C0000FE
7E0000FE
7E0001FE
3F0003BE
3F8007BE
1FE01F3E
0FFFFE3E
07FFFC3E
01FFF01C
007FC000
ENDCHAR
STARTCHAR Umacron
ENCODING 362
SWIDTH 726 0
DWIDTH 54 0
BBX 40 65 7 -1
BITMAP
001FFFFC00
007FFFFE00
007FFFFF00
003FFFFE00
0000000000
0000000000
0000000000
0000000000
0000000000
0000000000
0000000000
0000000000
780000000E
FC0000001F
FC0000003F
FC0000003F
FC0000003F
FC0000003F
FC0000003F
FC0000003F
FC0000003F
FC0000003F
FC0000003F
FC0000003F
FC0000003F
FC0000003F
FC0000003F
FC0000003F
FC0000003F
FC0000003F
FC0000003F
FC0000003F
FC0000003F
FC0000003F
FC0000003F
FC0000003F
FC0000003F
FC0000003F
FC0000003F
FC0000003F
FC0000003F
FC0000003F
FC0000003F
FC0000003F
FC0000003F
FC0000003F
FC0000003F
FC0000003F
FC0000003F
FC0000003F
FE0000003F
7E0000007F
7E0000007E
7F000000FE
3F800000FE
3F800001FC
1FC00003FC
0FF00007F8
0FFC001FF0
07FF00FFE0
03FFFFFFC0
00FFFFFF80
003FFFFE00
000FFFF800
0001FF8000
ENDCHAR
STARTCHAR umacron
ENCODING 363
SWIDTH 559 0
DWIDTH 42 0
BBX 31 49 5 -1
BITMAP
03FFFF80
0FFFFFC0
0FFFFFE0
07FFFFC0
00000000
00000000
00000000
00000000
00000000
00000000
00000000
00000000
7800001C
7C00003E
FC00003E
FC00003E
FC00003E
FC00003E
FC00003E
FC00003E
FC00003E
FC00003E
FC00003E
FC00003E
FC00003E
FC00003E
FC00003E
FC00003E
FC00003E
FC00003E
FC00003E
FC00003E
FC00003E
FC00003E
FC00003E
FC00007E
FC00007E
7C00007E
7C00007E
7C0000FE
7E0000FE
7E0001FE
3F0003BE
3F8007BE
1FE01F3E
0FFFFE3E
07FFFC3E
01FFF01C
007FC000
ENDCHAR
STARTCHAR Ubreve
ENCODING 364
SWIDTH 726 0
DWIDTH 54 0
BBX 40 70 7 -1
BITMAP
001C001C00
001C003C00
001E003C00
001F80F800
000FFFF800
0007FFF000
0003FFC000
00007F0000
0000000000
0000000000
0000000000
0000000000
0000000000
0000000000
0000000000
0000000000
0000000000
780000000E
FC0000001F
FC0000003F
FC0000003F
FC0000003F
FC0000003F
FC0000003F
FC0000003F
FC0000003F
FC0000003F
FC0000003F
FC0000003F
FC0000003F
FC0000003F
FC0000003F
FC0000003F
FC0000003F
FC0000003F
FC0000003F
FC0000003F
FC0000003F
FC0000003F
FC0000003F
FC0000003F
FC0000003F
FC0000003F
FC0000003F
FC0000003F
FC0000003F
FC0000003F
FC0000003F
FC0000003F
FC0000003F
FC0000003F
FC0000003F
FC0000003F
FC0000003F
FC0000003F
FE0000003F
7E0000007F
7E0000007E
7F000000FE
3F800000FE
3F800001FC
1FC00003FC
0FF00007F8
0FFC001FF0
07FF00FFE0
03FFFFFFC0
00FFFFFF80
003FFFFE00
000FFFF800
0001FF8000
ENDCHAR
STARTCHAR ubreve
ENCODING 365
SWIDTH 559 0
DWIDTH 42 0
BBX 31 54 5 -1
BITMAP
03800380
03800780
03C00780
03F01F00
01FFFF00
00FFFE00
007FF800
000FE000
00000000
00000000
00000000
00000000
00000000
00000000
00000000
00000000
00000000
7800001C
7C00003E
FC00003E
FC00003E
FC00003E
FC00003E
FC00003E
FC00003E
FC00003E
FC00003E
FC00003E
FC00003E
FC00003E
FC00003E
FC00003E
FC00003E
FC00003E
FC00003E
FC00003E
FC00003E
FC00003E
FC00003E
FC00003E
FC00007E
FC00007E
7C00007E
7C00007E
7C0000FE
7E0000FE
7E0001FE
3F0003BE
3F8007BE
1FE01F3E
0FFFFE3E
07FFFC3E
01FFF01C
007FC000
ENDCHAR
STARTCHAR Uring
ENCODING 366
SWIDTH 726 0
DWIDTH 54 0
BBX 40 72 7 -1
BITMAP
00007E0000
0000FF8000
0001FFC000
0003C1E000
000380E000
000300E000
000300E000
000300E000
000380E000
0003C1E000
0001FFC000
0000FF8000
00007E0000
0000000000
0000000000
0000000000
0000000000
0000000000
0000000000
780000000E
FC0000001F
FC0000003F
FC0000003F
FC0000003F
FC0000003F
FC0000003F
FC0000003F
FC0000003F
FC0000003F
FC0000003F
FC0000003F
FC0000003F
FC0000003F
FC0000003F
FC0000003F
FC0000003F
FC0000003F
FC0000003F
FC0000003F
FC0000003F
FC0000003F
FC0000003F
FC0000003F
FC0000003F
FC0000003F
FC0000003F
FC0000003F
FC0000003F
FC0000003F
FC0000003F
FC0000003F
FC0000003F
FC0000003F
FC0000003F
FC0000003F
FC0000003F
FC0000003F
FE0000003F
7E0000007F
7E0000007E
7F000000FE
3F800000FE
3F800001FC
1FC00003FC
0FF00007F8
0FFC001FF0
07FF00FFE0
03FFFFFFC0
00FFFFFF80
003FFFFE00
000FFFF800
0001FF8000
ENDCHAR
STARTCHAR uring
ENCODING 367
SWIDTH 559 0
DWIDTH 42 0
BBX 31 56 5 -1
BITMAP
000FC000
001FF000
003FF800
00783C00
00701C00
00601C00
00601C00
00601C00
00701C00
00783C00
003FF800
001FF000
000FC000
00000000
00000000
00000000
00000000
00000000
00000000
7800001C
7C00003E
FC00003E
FC00003E
FC00003E
FC00003E
FC00003E
FC00003E
FC00003E
FC00003E
FC00003E
FC00003E
FC00003E
FC00003E
FC00003E
FC00003E
FC00003E
FC00003E
FC00003E
FC00003E
FC00003E
FC00003E
FC00003E
FC00007E
FC00007E
7C00007E
7C00007E
7C0000FE
7E0000FE
7E0001FE
3F0003BE
3F8007BE
1FE01F3E
0FFFFE3E
07FFFC3E
01FFF01C
007FC000
ENDCHAR
STARTCHAR Uhungarumlaut
ENCODING 368
SWIDTH 726 0
DWIDTH 54 0
BBX 40 70 7 -1
BITMAP
000000E01C
000001F03E
000003F87F
000007F8FF
000007F0FE
00000FE1FC
00001F83F0
00003F07E0
00007E0FC0
0000F81F80
0001F03E00
0003E07C00
0007C07800
0003006000
0000000000
0000000000
0000000000
780000000E
FC0000001F
FC0000003F
FC0000003F
FC0000003F
FC0000003F
FC0000003F
FC0000003F
FC0000003F
FC0000003F
FC0000003F
FC0000003F
FC0000003F
FC0000003F
FC0000003F
FC0000003F
FC0000003F
FC0000003F
FC0000003F
FC0000003F
FC0000003F
FC0000003F
FC0000003F
FC0000003F
FC0000003F
FC0000003F
FC0000003F
FC0000003F
FC0000003F
FC0000003F
FC0000003F
FC0000003F
FC0000003F
FC0000003F
FC0000003F
FC0000003F
FC0000003F
FC0000003F
FE0000003F
7E0000007F
7E0000007E
7F000000FE
3F800000FE
3F800001FC
1FC00003FC
0FF00007F8
0FFC001FF0
07FF00FFE0
03FFFFFFC0
00FFFFFF80
003FFFFE00
000FFFF800
0001FF8000
ENDCHAR
STARTCHAR uhungarumlaut
ENCODING 369
SWIDTH 559 0
DWIDTH 42 0
BBX 35 54 5 -1
BITMAP
00001C0380
00003E07C0
00007F0FE0
0000FF1FE0
0000FE1FC0
0001FC3F80
0003F07E00
0007E0FC00
000FC1F800
001F03F000
003E07C000
007C0F8000
00F80F0000
00600C0000
0000000000
0000000000
0000000000
7800001C00
7C00003E00
FC00003E00
FC00003E00
FC00003E00
FC00003E00
FC00003E00
FC00003E00
FC00003E00
FC00003E00
FC00003E00
FC00003E00
FC00003E00
FC00003E00
FC00003E00
FC00003E00
FC00003E00
FC00003E00
FC00003E00
FC00003E00
FC00003E00
FC00003E00
FC00003E00
FC00007E00
FC00007E00
7C00007E00
7C00007E00
7C0000FE00
7E0000FE00
7E0001FE00
3F0003BE00
3F8007BE00
1FE01F3E00
0FFFFE3E00
07FFFC3E00
01FFF01C00
007FC00000
ENDCHAR
STARTCHAR Uogonek
ENCODING 370
SWIDTH 726 0
DWIDTH 54 0
BBX 40 68 7 -16
BITMAP
780000000E
FC0000001F
FC0000003F
FC0000003F
FC0000003F
FC0000003F
FC0000003F
FC0000003F
FC0000003F
FC0000003F
FC0000003F
FC0000003F
FC0000003F
FC0000003F
FC0000003F
FC0000003F
FC0000003F
FC0000003F
FC0000003F
FC0000003F
FC0000003F
FC0000003F
FC0000003F
FC0000003F
FC0000003F
FC0000003F
FC0000003F
FC0000003F
FC0000003F
FC0000003F
FC0000003F
FC0000003F
FC0000003F
FC0000003F
FC0000003F
FC0000003F
FC0000003F
FC0000003F
FE0000003F
7E0000007F
7E0000007E
7F000000FE
3F800000FE
3F800001FC
1FC00003FC
0FF00007F8
0FFC001FF0
07FF00FFE0
03FFFFFFC0
00FFFFFF80
003FFFFE00
000FFFF800
0001FF8000
0000030000
0000070000
00000F0000
00000E0000
00001E0000
00001E0000
00003E0000
00003E0000
00003E0000
00003F0000
00003FC000
00003FFE00
00001FFE00
00000FFE00
000003F800
ENDCHAR
STARTCHAR uogonek
ENCODING 371
SWIDTH 559 0
DWIDTH 42 0
BBX 35 51 5 -15
BITMAP
7800001C00
7C00003E00
FC00003E00
FC00003E00
FC00003E00
FC00003E00
FC00003E00
FC00003E00
FC00003E00
FC00003E00
FC00003E00
FC00003E00
FC00003E00
FC00003E00
FC00003E00
FC00003E00
FC00003E00
FC00003E00
FC00003E00
FC00003E00
FC00003E00
FC00003E00
FC00003E00
FC00007E00
FC00007E00
7C00007E00
7C00007E00
7C0000FE00
7E0000FE00
7E0001FE00
3F0003BE00
3F8007BE00
1FE01F3E00
0FFFFE3E00
07FFFC3E00
01FFF03C00
007FC03000
0000007000
000000F000
000000E000
000001E000
000001E000
000003E000
000003E000
000003E000
000003F000
000003FC00
000003FFE0
000001FFE0
000000FFE0
0000003F80
ENDCHAR
STARTCHAR Wcircumflex
ENCODING 372
SWIDTH 1035 0
DWIDTH 78 0
BBX 72 73 3 0
BITMAP
000000003800000000
000000007C00000000
00000000FE00000000
00000001FF00000000
00000001FF80000000
00000003EF80000000
00000007EFC0000000
0000000FC7E0000000
0000000F83E0000000
0000001F01F0000000
0000003F01F8000000
0000003E00F8000000
0000007C007C000000
00000078003C000000
000000300018000000
000000000000000000
000000000000000000
000000000000000000
000000000000000000
000000000000000000
000000000000000000
700000003C0000000E
F80000007E0000001F
FC000000FF0000003F
FC000000FF0000003F
FC000001FF0000003F
7C000001FF8000003E
7E000001FF8000007E
7E000003FF8000007E
7E000003EFC000007E
3E000003E7C00000FC
3F000007E7C00000FC
3F000007C7E00000FC
3F000007C3E00000F8
1F80000FC3F00001F8
1F80000F81F00001F8
1F80000F81F00001F8
0F80001F81F80001F0
0FC0001F00F80003F0
0FC0001F00F80003F0
0FC0003F00FC0003F0
07C0003E007C0003E0
07E0003E007C0007E0
07E0007E007E0007E0
07E0007C003E0007C0
03E0007C003E0007C0
03F000F8003F000FC0
03F000F8001F000FC0
01F000F8001F000F80
01F001F0001F801F80
01F801F0000F801F80
01F801F0000F801F00
00F803E00007C01F00
00FC03E00007C03F00
00FC03E00007C03F00
007C07C00003E03E00
007C07C00003E03E00
007E0FC00003E07E00
007E0F800001F07E00
003E0F800001F07C00
003E1F800001F07C00
003F1F000000F8FC00
003F1F000000F8F800
001F3E000000F8F800
001F3E0000007DF800
001FBE0000007DF800
000FFC0000007FF000
000FFC0000003FF000
000FFC0000003FF000
000FF80000001FE000
0007F80000001FE000
0007F00000000FC000
0001E0000000078000
ENDCHAR
STARTCHAR wcircumflex
ENCODING 373
SWIDTH 827 0
DWIDTH 62 0
BBX 57 57 3 0
BITMAP
0000001C00000000
0000003E00000000
0000007F00000000
000000FF80000000
000000FFC0000000
000001F7C0000000
000003F7E0000000
000007E3F0000000
000007C1F0000000
00000F80F8000000
00001F80FC000000
00001F007C000000
00003E003E000000
00003C001E000000
000018000C000000
0000000000000000
0000000000000000
0000000000000000
0000000000000000
0000000000000000
0000000000000000
7000001C00000700
F800003E00000F80
F800007F00000F80
F800007F00000F80
FC0000FF80001F80
7C0000FF80001F00
7C0000F780001F00
3E0001F7C0003E00
3E0001E3C0003E00
3E0003E3E0007E00
1F0003E3E0007C00
1F0003C1E0007C00
1F8007C1F000FC00
0F800781F000F800
0F800780F000F800
0FC00F80F801F000
07C00F007801F000
07C01F007801F000
03E01F007C03E000
03E01E003C03E000
03E03E003E03E000
01F03C003E07C000
01F03C001E07C000
01F07C001F07C000
00F878000F0F8000
00F878000F0F8000
007CF8000F9F0000
007CF000079F0000
007DF00007DF0000
003FE00003FE0000
003FE00003FE0000
003FE00003FE0000
001FC00001FC0000
001FC00001FC0000
000F800000F80000
0007000000700000
ENDCHAR
STARTCHAR Ycircumflex
ENCODING 374
SWIDTH 622 0
DWIDTH 47 0
BBX 41 73 3 0
BITMAP
00000E000000
00001F000000
00003F800000
00007FC00000
00007FE00000
0000FBE00000
0001FBF00000
0003F1F80000
0003E0F80000
0007C07C0000
000FC07E0000
000F803E0000
001F001F0000
001E000F0000
000C00060000
000000000000
000000000000
000000000000
000000000000
000000000000
000000000000
700000000700
F80000000F80
FC0000000F80
FE0000001F80
7E0000003F00
7F0000003E00
3F8000007E00
1F800000FC00
1FC00000F800
0FE00001F800
07E00003F000
07F00003E000
03F80007E000
01F8000FC000
01FC000F8000
00FC001F8000
007E003F0000
007F003E0000
003F007E0000
001F80FC0000
001FC0FC0000
000FC1F80000
0007E1F00000
0007F3F00000
0003F7E00000
0001FFC00000
0001FFC00000
0000FF800000
00007F000000
00007F000000
00007E000000
00007E000000
00007E000000
00007E000000
00007E000000
00007E000000
00007E000000
00007E000000
00007E000000
00007E000000
00007E000000
00007E000000
00007E000000
00007E000000
00007E000000
00007E000000
00007E000000
00007E000000
00007E000000
00007E000000
00003E000000
00001C000000
ENDCHAR
ENDFONT
